<svg xmlns="http://www.w3.org/2000/svg" width="615.028" height="381.479" viewBox="0 0 615.028 381.479">
  <g id="Group_8255" data-name="Group 8255" transform="translate(-83.019 -95.81)">
    <g id="freepik--Page--inject-19">
      <rect id="Rectangle_17553" data-name="Rectangle 17553" width="554.08" height="369.38" transform="translate(92.17 96.12)" fill="#fafafa"/>
      <rect id="Rectangle_17554" data-name="Rectangle 17554" width="554.08" height="23.61" transform="translate(92.17 96.12)" fill="#263238"/>
      <path id="Path_12038" data-name="Path 12038" d="M646.25,119.73c0-.48,0-7.45-.07-23.61l.07.07-554,.19h0l.26-.26v23.61l-.26-.26,554.08.26L92.17,120h-.26V95.86h.29l554.05.19h.07v.07C646.27,112.28,646.25,119.25,646.25,119.73Z" fill="#263238"/>
      <path id="Path_12039" data-name="Path 12039" d="M110.27,107.22a3.81,3.81,0,1,1-3.81-3.81,3.81,3.81,0,0,1,3.81,3.81Z" fill="#e0e0e0"/>
      <path id="Path_12040" data-name="Path 12040" d="M122.05,107.22a3.8,3.8,0,1,1-1.113-2.7,3.81,3.81,0,0,1,1.113,2.7Z" fill="#e0e0e0"/>
      <path id="Path_12041" data-name="Path 12041" d="M133.84,107.22a3.81,3.81,0,1,1-3.81-3.81A3.81,3.81,0,0,1,133.84,107.22Z" fill="#e0e0e0"/>
      <path id="Path_12042" data-name="Path 12042" d="M247.71,188h-22l-4.2,10.16H210.27l21.12-47.4h10.84l21.19,47.4H251.91Zm-3.45-8.33-7.52-18.15-7.51,18.15Z" fill="#455a64"/>
      <path id="Path_12043" data-name="Path 12043" d="M307.31,179.9c0,11.45-7.93,18.76-18.15,18.76-4.88,0-8.81-1.56-11.45-4.74v4.2H267.62V147.87h10.57v17.68c2.71-3,6.43-4.4,11-4.4C299.38,161.15,307.31,168.46,307.31,179.9Zm-10.7,0c0-6.29-4-10.09-9.28-10.09s-9.28,3.8-9.28,10.09,4,10.09,9.28,10.09S296.61,186.2,296.61,179.9Z" fill="#455a64"/>
      <path id="Path_12044" data-name="Path 12044" d="M311.64,179.9c0-11,8.46-18.75,20-18.75s20,7.78,20,18.75-8.4,18.76-20,18.76S311.64,190.87,311.64,179.9Zm29.32,0c0-6.29-4-10.09-9.28-10.09s-9.34,3.8-9.34,10.09,4.06,10.1,9.34,10.1,9.32-3.8,9.32-10.1Z" fill="#455a64"/>
      <path id="Path_12045" data-name="Path 12045" d="M395.41,161.69v36.43h-10v-4.33a14.72,14.72,0,0,1-11.3,4.87c-9.15,0-15.58-5.14-15.58-16.39V161.69h10.56v19c0,6.09,2.71,8.8,7.39,8.8,4.87,0,8.39-3.12,8.39-9.82v-18Z" fill="#455a64"/>
      <path id="Path_12046" data-name="Path 12046" d="M428.72,196.36a15.06,15.06,0,0,1-8.6,2.3c-8.6,0-13.61-4.4-13.61-13.07v-15h-5.62V162.5h5.62v-8.87h10.57v8.87h9.07v8.13h-9.07v14.83c0,3.11,1.69,4.8,4.53,4.8a7.12,7.12,0,0,0,4.27-1.35Z" fill="#455a64"/>
      <path id="Path_12047" data-name="Path 12047" d="M490.55,161.69v36.43h-10v-4.33a14.75,14.75,0,0,1-11.31,4.87c-9.14,0-15.58-5.14-15.58-16.39V161.69h10.57v19c0,6.09,2.71,8.8,7.38,8.8,4.88,0,8.4-3.12,8.4-9.82v-18Z" fill="#455a64"/>
      <path id="Path_12048" data-name="Path 12048" d="M496.85,194.73l3.52-7.58A24.9,24.9,0,0,0,513,190.67c4.88,0,6.71-1.29,6.71-3.32,0-6-22,.14-22-14.42,0-6.91,6.23-11.78,16.86-11.78,5,0,10.57,1.15,14,3.18l-3.52,7.52a20.85,20.85,0,0,0-10.5-2.71c-4.74,0-6.77,1.49-6.77,3.38,0,6.23,22,.21,22,14.56,0,6.77-6.3,11.58-17.2,11.58C506.47,198.66,500.23,197,496.85,194.73Z" fill="#455a64"/>
      <path id="Path_12049" data-name="Path 12049" d="M582.26,465.47C560.88,443,529.49,432,498.44,432.22c-22.68.15-46.34,6.92-67.41-1.44-19.51-7.74-31.89-26.53-47.06-41a128.49,128.49,0,0,0-87.36-35.14c-21.82-.07-45.84,4.94-63.84-7.4-12.14-8.33-18.35-22.68-26.88-34.69-25-35.21-73.13-49.89-113.41-34.33v187Z" fill="#ebebeb"/>
      <path id="Path_12050" data-name="Path 12050" d="M646.25,465.5c0-1.7-.08-144.19-.21-369.38l.21.21h-554l.26-.26V465.45l-.24-.24,554.08.24-554.08.24h-.24V95.81H646.55v.21C646.33,321.31,646.25,463.8,646.25,465.5Z" fill="#263238"/>
      <path id="Path_12051" data-name="Path 12051" d="M161.58,176.92c0,.37-2.72.68-6.09.68s-6.09-.31-6.09-.68,2.73-.67,6.09-.67S161.58,176.55,161.58,176.92Z" fill="#263238"/>
      <path id="Path_12052" data-name="Path 12052" d="M168.05,160.36c.37,0,.67,2.76.67,6.18s-.3,6.18-.67,6.18-.67-2.77-.67-6.18S167.68,160.36,168.05,160.36Z" fill="#263238"/>
      <path id="Path_12053" data-name="Path 12053" d="M174.94,176.53c0-.38,2.72-.68,6.08-.68s6.09.3,6.09.68-2.72.67-6.09.67S174.94,176.9,174.94,176.53Z" fill="#263238"/>
      <path id="Path_12054" data-name="Path 12054" d="M168.47,193.09c-.37,0-.67-2.77-.67-6.18s.3-6.18.67-6.18.67,2.77.67,6.18S168.84,193.09,168.47,193.09Z" fill="#263238"/>
      <path id="Path_12055" data-name="Path 12055" d="M178.31,186c-.28.23-1.48-.73-2.68-2.17s-1.93-2.78-1.65-3,1.49.73,2.68,2.16S178.6,185.75,178.31,186Z" fill="#263238"/>
      <path id="Path_12056" data-name="Path 12056" d="M177.74,167.2c.27.26-.53,1.49-1.77,2.74s-2.46,2.06-2.72,1.8.53-1.49,1.77-2.75S177.48,166.94,177.74,167.2Z" fill="#263238"/>
      <path id="Path_12057" data-name="Path 12057" d="M163.78,172c-.23.28-1.38-.28-2.57-1.27s-1.94-2-1.71-2.3,1.39.28,2.58,1.27S164,171.7,163.78,172Z" fill="#263238"/>
      <path id="Path_12058" data-name="Path 12058" d="M163.24,180.26c.27.26-.42,1.46-1.55,2.7s-2.26,2-2.53,1.78.41-1.45,1.54-2.69S163,180,163.24,180.26Z" fill="#263238"/>
      <path id="Path_12059" data-name="Path 12059" d="M505.18,144.87c0,.21-1.55.38-3.46.38s-3.46-.17-3.46-.38,1.55-.38,3.46-.38S505.18,144.66,505.18,144.87Z" fill="#263238"/>
      <path id="Path_12060" data-name="Path 12060" d="M508.85,135.47c.21,0,.38,1.57.38,3.5s-.17,3.51-.38,3.51-.38-1.57-.38-3.51S508.64,135.47,508.85,135.47Z" fill="#263238"/>
      <path id="Path_12061" data-name="Path 12061" d="M512.76,144.64c0-.21,1.55-.38,3.46-.38s3.45.17,3.45.38-1.54.39-3.45.39S512.76,144.86,512.76,144.64Z" fill="#263238"/>
      <path id="Path_12062" data-name="Path 12062" d="M509.09,154.05c-.21,0-.38-1.57-.38-3.51s.17-3.51.38-3.51.38,1.57.38,3.51S509.3,154.05,509.09,154.05Z" fill="#263238"/>
      <path id="Path_12063" data-name="Path 12063" d="M514.68,150c-.17.13-.85-.42-1.53-1.23s-1.09-1.58-.93-1.72.84.42,1.52,1.23S514.84,149.88,514.68,150Z" fill="#263238"/>
      <path id="Path_12064" data-name="Path 12064" d="M514.35,139.35c.15.15-.3.85-1,1.56s-1.4,1.16-1.55,1,.3-.84,1-1.55S514.2,139.2,514.35,139.35Z" fill="#263238"/>
      <path id="Path_12065" data-name="Path 12065" d="M506.43,142.07c-.14.16-.79-.16-1.46-.72s-1.11-1.14-1-1.3.79.15,1.46.71S506.56,141.91,506.43,142.07Z" fill="#263238"/>
      <path id="Path_12066" data-name="Path 12066" d="M506.12,146.77c.15.14-.24.82-.88,1.53s-1.28,1.15-1.44,1,.24-.83.88-1.53S506,146.63,506.12,146.77Z" fill="#263238"/>
      <path id="Path_12067" data-name="Path 12067" d="M348.13,223.53a12.25,12.25,0,0,1-5.3,0A11.85,11.85,0,0,1,348.13,223.53Z" fill="#263238"/>
      <path id="Path_12068" data-name="Path 12068" d="M351,216.32a12.569,12.569,0,0,1,0,5.37,12.17,12.17,0,0,1,0-5.37Z" fill="#263238"/>
      <path id="Path_12069" data-name="Path 12069" d="M353.94,223.35a12.249,12.249,0,0,1,5.3,0A11.85,11.85,0,0,1,353.94,223.35Z" fill="#263238"/>
      <path id="Path_12070" data-name="Path 12070" d="M351.13,230.56a12.62,12.62,0,0,1,0-5.38A12.62,12.62,0,0,1,351.13,230.56Z" fill="#263238"/>
      <path id="Path_12071" data-name="Path 12071" d="M355.41,227.47c-.12.1-.64-.32-1.16-.94s-.85-1.21-.72-1.32.65.32,1.17.94S355.54,227.37,355.41,227.47Z" fill="#263238"/>
      <path id="Path_12072" data-name="Path 12072" d="M355.17,219.29c.11.12-.23.65-.77,1.2s-1.08.89-1.19.78.23-.65.77-1.19S355.05,219.18,355.17,219.29Z" fill="#263238"/>
      <path id="Path_12073" data-name="Path 12073" d="M349.09,221.38c-.1.12-.6-.12-1.12-.55s-.85-.88-.74-1,.6.12,1.12.55S349.19,221.25,349.09,221.38Z" fill="#263238"/>
      <path id="Path_12074" data-name="Path 12074" d="M348.85,225c.12.11-.18.63-.67,1.17s-1,.89-1.1.78.18-.63.67-1.17S348.73,224.87,348.85,225Z" fill="#263238"/>
      <path id="Path_12075" data-name="Path 12075" d="M488.92,234.74c0,.21-1.55.38-3.46.38S482,235,482,234.74s1.54-.39,3.45-.39S488.92,234.53,488.92,234.74Z" fill="#e0e0e0"/>
      <path id="Path_12076" data-name="Path 12076" d="M492.59,225.33c.21,0,.38,1.57.38,3.51s-.17,3.51-.38,3.51-.38-1.57-.38-3.51S492.38,225.33,492.59,225.33Z" fill="#e0e0e0"/>
      <path id="Path_12077" data-name="Path 12077" d="M496.5,234.51c0-.21,1.55-.38,3.46-.38s3.45.17,3.45.38-1.54.38-3.45.38S496.5,234.72,496.5,234.51Z" fill="#e0e0e0"/>
      <path id="Path_12078" data-name="Path 12078" d="M492.83,243.92c-.21,0-.38-1.58-.38-3.51s.17-3.51.38-3.51.38,1.57.38,3.51A9.284,9.284,0,0,1,492.83,243.92Z" fill="#e0e0e0"/>
      <path id="Path_12079" data-name="Path 12079" d="M498.42,239.88c-.17.14-.85-.41-1.53-1.22s-1.09-1.59-.93-1.72.84.41,1.52,1.22S498.58,239.75,498.42,239.88Z" fill="#e0e0e0"/>
      <path id="Path_12080" data-name="Path 12080" d="M498.09,229.22c.15.15-.3.84-1,1.55s-1.4,1.17-1.55,1,.3-.84,1-1.56S497.94,229.07,498.09,229.22Z" fill="#e0e0e0"/>
      <path id="Path_12081" data-name="Path 12081" d="M490.17,231.93c-.14.17-.79-.15-1.46-.71s-1.11-1.15-1-1.31.79.16,1.46.72S490.3,231.77,490.17,231.93Z" fill="#e0e0e0"/>
      <path id="Path_12082" data-name="Path 12082" d="M489.86,236.63c.15.15-.24.83-.88,1.53s-1.28,1.16-1.44,1,.24-.83.88-1.53S489.7,236.49,489.86,236.63Z" fill="#e0e0e0"/>
      <path id="Path_12083" data-name="Path 12083" d="M306.68,145.48l.45,1.08a7.68,7.68,0,0,0,4.18,4.14l1.18.48-1.13.45a7.64,7.64,0,0,0-4.21,4.23l-.32.78-.48-1a7.59,7.59,0,0,0-4.27-3.87l-1-.38,1.34-.64a7.67,7.67,0,0,0,3.72-4Z" fill="#e0e0e0"/>
      <path id="Path_12084" data-name="Path 12084" d="M131.05,226.4l.3.72a5.07,5.07,0,0,0,2.78,2.75l.78.32-.75.3a5.11,5.11,0,0,0-2.8,2.81l-.21.52-.32-.65a5.08,5.08,0,0,0-2.83-2.58l-.68-.24.89-.43a5.17,5.17,0,0,0,2.47-2.62Z" fill="#e0e0e0"/>
      <path id="Path_12085" data-name="Path 12085" d="M573.6,156.64l.29.72a5.15,5.15,0,0,0,2.78,2.76l.78.31-.74.31a5.08,5.08,0,0,0-2.81,2.8l-.21.53-.31-.66a5.09,5.09,0,0,0-2.84-2.57l-.68-.25.89-.43a5,5,0,0,0,2.47-2.62Z" fill="#e0e0e0"/>
      <path id="Path_12086" data-name="Path 12086" d="M574.93,187l.45,1.08a7.66,7.66,0,0,0,4.18,4.15l1.18.47-1.13.46a7.67,7.67,0,0,0-4.22,4.22l-.31.79-.48-1a7.59,7.59,0,0,0-4.27-3.87l-1-.37,1.34-.65a7.65,7.65,0,0,0,3.72-3.94Z" fill="#263238"/>
      <path id="Path_12087" data-name="Path 12087" d="M390.16,138.93l.21.51a3.59,3.59,0,0,0,2,1.94l.55.23-.53.21a3.58,3.58,0,0,0-2,2l-.15.37-.23-.46a3.54,3.54,0,0,0-2-1.82l-.48-.17.63-.31a3.59,3.59,0,0,0,1.75-1.85Z" fill="#263238"/>
      <path id="Path_12088" data-name="Path 12088" d="M250.76,221.83l.27.65a4.58,4.58,0,0,0,2.52,2.5l.71.29-.68.27a4.58,4.58,0,0,0-2.54,2.55l-.19.48-.29-.6a4.62,4.62,0,0,0-2.58-2.33l-.62-.23.81-.39a4.66,4.66,0,0,0,2.25-2.38Z" fill="#263238"/>
    </g>
    <g id="freepik--speech-bubble--inject-19">
      <path id="Path_12089" data-name="Path 12089" d="M655.32,196.59A42.49,42.49,0,0,0,626.2,270l-5.74,20.1,20.3-11.1a42.51,42.51,0,1,0,14.56-82.45Z" fill="#f5f5f5"/>
      <path id="Path_12090" data-name="Path 12090" d="M655.32,196.59h.76l2.22.09a10.975,10.975,0,0,1,1.64.09l2,.29c.71.12,1.48.19,2.29.37l2.55.64a42,42,0,0,1,24.75,18.42l1.32,2.17c.38.76.76,1.54,1.14,2.33a40.949,40.949,0,0,1,4,16.11,44.418,44.418,0,0,1-.1,6c-.07,1-.28,2-.42,3-.08.51-.15,1-.23,1.53l-.39,1.52a40.241,40.241,0,0,1-4.87,11.89,42.69,42.69,0,0,1-20.71,17.69,43.52,43.52,0,0,1-29.17,1l-1.38-.48h.21c-6.92,3.79-13.71,7.51-20.3,11.1l-.53.3.16-.59c2-6.93,3.91-13.65,5.75-20.1l.07.25a44.729,44.729,0,0,1-6.92-8.42,44.072,44.072,0,0,1-4.44-9.48,42.781,42.781,0,0,1-1.93-9.82c-.08-.81-.11-1.62-.12-2.42a21.3,21.3,0,0,1,0-2.4,32.692,32.692,0,0,1,.41-4.67A42.381,42.381,0,0,1,619,216.82a43.619,43.619,0,0,1,9.81-11.08l2.64-2,2.67-1.62a20.767,20.767,0,0,1,2.59-1.36c.86-.39,1.66-.84,2.5-1.14a43.877,43.877,0,0,1,8.64-2.45l3.22-.47,2.36-.1h1.45l-1.44.1-2.36.14-3.2.5a44.432,44.432,0,0,0-8.58,2.51c-.83.3-1.62.76-2.47,1.15a22.17,22.17,0,0,0-2.58,1.37L631.57,204,629,206a43.089,43.089,0,0,0-9.68,11,42,42,0,0,0-5.77,16.06,33.615,33.615,0,0,0-.4,4.63,20.744,20.744,0,0,0,0,2.37,16.217,16.217,0,0,0,.12,2.4,41.987,41.987,0,0,0,13.19,27.39l.11.1-.05.15c-1.83,6.44-3.75,13.16-5.72,20.1l-.37-.3,20.29-11.1.1-.06h.12l1.37.47a42.89,42.89,0,0,0,28.81-1,42.26,42.26,0,0,0,20.49-17.47,39.91,39.91,0,0,0,4.84-11.75c.13-.5.26-1,.38-1.5l.24-1.52c.13-1,.34-2,.42-3a45.219,45.219,0,0,0,.11-5.92,40.489,40.489,0,0,0-3.91-16l-1.12-2.31-1.3-2.15a42,42,0,0,0-12.28-12.79,42.431,42.431,0,0,0-12.21-5.63l-2.54-.67c-.8-.18-1.57-.26-2.27-.39l-2-.31c-.6-.09-1.15-.08-1.63-.12l-2.22-.14A3.454,3.454,0,0,1,655.32,196.59Z" fill="#263238"/>
      <path id="Path_12091" data-name="Path 12091" d="M646,233.28h3l6.56-9.15v-6s4.65-.28,4.1,7.58,0,5.85,0,5.85,9.86,0,10.68.9c.6.62.87,10.42,1,15.74a5.75,5.75,0,0,1-4.07,5.79,4.429,4.429,0,0,1-1.07.14c-2.46,0-15-2-15-2H646Z" fill="#c53f3f"/>
      <path id="Path_12092" data-name="Path 12092" d="M637.43,231.63l1.85,20.56h5.15V232.04Z" fill="#263238"/>
    </g>
    <g id="freepik--character-1--inject-19">
      <path id="Path_12093" data-name="Path 12093" d="M224.16,240.07c-.17,3.21-4.35,7.49-3.06,10.43,2.38,5.42,1,11.91-2.08,17s-7.69,9-12.22,12.78a102.34,102.34,0,0,0-2.05-23.55c-.5-2.42-1.32-5.12-3.53-6.22-2.87-1.42-6.51.63-9.45-.63-3.13-1.36-3.76-5.64-6.4-7.8-2.39-1.95-5.9-1.74-8.83-.76s-5.62,2.63-8.63,3.3-6.64.07-8.31-2.53c-1-1.6-.29-.62-1.27-2.25,0,0-5.87.2-7.89-6.63,0,0-2.76-7.59,3.35-10.94,0,0,1.39-13.72,15.18-7.55,4,1.78,8.66-3.94,12.53-2,3.22,1.63,4.17,6.11,7.39,7.75,3.7,1.88,8-.92,12.14-1.09a10,10,0,0,1,10,10s.65-2.74,5.14-1.54S224.48,233.81,224.16,240.07Z" fill="#263238"/>
      <path id="Path_12094" data-name="Path 12094" d="M218.31,262.15a9.7,9.7,0,0,0-.84-4.52c-.58-1.17-2.75-3.83-5.13-4l.35-14.13a5.63,5.63,0,0,0-5-5.7L180,230.88a16.87,16.87,0,0,0-18.61,15.72c-.67,10.65-1.07,23.68.19,31.62,2.54,16,14.78,18,14.78,18l-.3,11.16c-.47,11.89,8.43,19.05,17.61,19.05s17.66-7.93,17.39-19.7l.9-36a6.3,6.3,0,0,0,4.05-2,10.11,10.11,0,0,0,2.3-6.58Z" fill="#ffbe9d"/>
      <path id="Path_12095" data-name="Path 12095" d="M167.53,255.27a2.06,2.06,0,0,0,2,2.07,1.963,1.963,0,1,0-2-2.07Z" fill="#263238"/>
      <path id="Path_12096" data-name="Path 12096" d="M164.17,253.38c.25.27,1.8-.88,4-.88s3.82,1.11,4.06.84c.11-.12-.15-.6-.85-1.11a5.6,5.6,0,0,0-3.25-1,5.32,5.32,0,0,0-3.19,1C164.27,252.78,164,253.26,164.17,253.38Z" fill="#263238"/>
      <path id="Path_12097" data-name="Path 12097" d="M188.81,255.68a2.05,2.05,0,0,0,2,2.07,2,2,0,0,0,2.11-1.85,2.05,2.05,0,0,0-2-2.07A2,2,0,0,0,188.81,255.68Z" fill="#263238"/>
      <path id="Path_12098" data-name="Path 12098" d="M185.84,253.79c.25.27,1.8-.88,4-.87s3.82,1.1,4.06.83c.11-.12-.14-.6-.85-1.11a5.6,5.6,0,0,0-3.25-1,5.39,5.39,0,0,0-3.19,1C185.94,253.19,185.71,253.67,185.84,253.79Z" fill="#263238"/>
      <path id="Path_12099" data-name="Path 12099" d="M177.83,270.14a15.152,15.152,0,0,0-3.58-.65c-.56-.05-1.09-.17-1.19-.55a2.93,2.93,0,0,1,.38-1.67L175.1,263c2.32-6.11,4-11.13,3.74-11.22s-2.32,4.78-4.63,10.89c-.56,1.5-1.09,2.94-1.59,4.31a3.27,3.27,0,0,0-.3,2.21,1.42,1.42,0,0,0,.93.82,4,4,0,0,0,1,.14,13.82,13.82,0,0,0,3.58-.01Z" fill="#263238"/>
      <path id="Path_12100" data-name="Path 12100" d="M176.31,296.23a40.68,40.68,0,0,0,21.4-5.71s-5.54,12-21.53,10.53Z" fill="#eb996e"/>
      <path id="Path_12101" data-name="Path 12101" d="M184.84,249.93c.22.6,2.42.32,5,.63s4.68,1,5,.48c.15-.26-.21-.82-1.05-1.4a8.748,8.748,0,0,0-7.64-.85C185.23,249.18,184.75,249.65,184.84,249.93Z" fill="#263238"/>
      <path id="Path_12102" data-name="Path 12102" d="M163.81,248.25c.39.5,1.9,0,3.73,0s3.37.33,3.73-.19c.16-.26-.09-.76-.76-1.23a5.41,5.41,0,0,0-6,.19C163.85,247.49,163.64,248,163.81,248.25Z" fill="#263238"/>
      <path id="Path_12103" data-name="Path 12103" d="M178.32,282.62c0-.05.15-.32.6-.6a3.87,3.87,0,0,1,2-.54,3.92,3.92,0,0,1,2,.52c.45.28.65.54.61.59a9.7,9.7,0,0,0-2.58-.58,8.859,8.859,0,0,0-2.63.61Z" fill="#eb996e"/>
      <path id="Path_12104" data-name="Path 12104" d="M210.87,266.4a12.84,12.84,0,0,0,1.52-.74,4.1,4.1,0,0,0,1.85-3.28,4.19,4.19,0,0,0-1.66-3.41,3.509,3.509,0,0,0-1.52-.59c-.05-.06.74-.33,1.73.28a4.33,4.33,0,0,1,2,3.72,4.11,4.11,0,0,1-.74,2.29,4.27,4.27,0,0,1-1.44,1.31A2.49,2.49,0,0,1,210.87,266.4Z" fill="#eb996e"/>
      <path id="Path_12105" data-name="Path 12105" d="M158.33,227.07c-2.58,6.9,3.55,11.9,8.33,13,6.68,1.56,13.78-2.66,18.35-.87,3.41,1.34,6.63,4,10.25,3.45,1.76-.26,3.5-1.27,5.21-.81,2.19.6,3.08,3.26,3,5.53-.06,2.8-1,5.58-.65,8.36s2.83,5.65,5.54,4.91a6.66,6.66,0,0,0,4.54-6c.32-3.85-.39-8.43-.2-12.29.17-3.4.18-7.14-2-9.77s-5.86-3.34-9.25-3.8a257.378,257.378,0,0,0-43.16-2.28" fill="#263238"/>
      <path id="Path_12106" data-name="Path 12106" d="M149.92,228.54a2.219,2.219,0,0,1-.14-.72,4.24,4.24,0,0,1,.42-2.07,4.66,4.66,0,0,1,2.41-2.29,4.19,4.19,0,0,1,2.1-.23c.75.07,1.5.27,2.29.31a4.49,4.49,0,0,0,2.36-.52,11.36,11.36,0,0,0,2.19-1.59c.72-.62,1.45-1.3,2.29-1.91a7.45,7.45,0,0,1,2.94-1.29,10.85,10.85,0,0,1,6.69,1.14,31.471,31.471,0,0,1,5.92,4.23,23.18,23.18,0,0,0,5.91,4,6.81,6.81,0,0,0,3.25.5,9.28,9.28,0,0,0,3-1,28.169,28.169,0,0,1,5.56-2.56,11,11,0,0,1,5.36-.17,8.27,8.27,0,0,1,3.89,2.09,7.86,7.86,0,0,1,1.85,2.78,6.12,6.12,0,0,1,.41,2.07,3.818,3.818,0,0,1,0,.55q0,.18,0,.18a7.65,7.65,0,0,0-.54-2.72,7.76,7.76,0,0,0-1.86-2.65,8,8,0,0,0-3.77-1.94,10.74,10.74,0,0,0-5.16.22,28.268,28.268,0,0,0-5.47,2.58,9.42,9.42,0,0,1-3.2,1,7.26,7.26,0,0,1-3.49-.51,23.779,23.779,0,0,1-6.05-4.06,31.25,31.25,0,0,0-5.82-4.17,10.43,10.43,0,0,0-6.37-1.13c-2.09.35-3.6,1.82-5,3.06a11.721,11.721,0,0,1-2.29,1.61,4.94,4.94,0,0,1-2.57.54c-.83-.06-1.58-.27-2.3-.36a4.09,4.09,0,0,0-2,.18,4.52,4.52,0,0,0-2.33,2.11,4.35,4.35,0,0,0-.5,2C149.88,228.29,150,228.53,149.92,228.54Z" fill="#455a64"/>
      <path id="Path_12107" data-name="Path 12107" d="M157.65,239.66a1.3,1.3,0,0,1-.7,0,2.41,2.41,0,0,1-1.62-1.16,4.74,4.74,0,0,1-.38-3.14,9.06,9.06,0,0,1,1.64-3.87,8.68,8.68,0,0,1,4.07-3.06,9,9,0,0,1,5.83-.15,20.429,20.429,0,0,1,5.61,3.18,19.6,19.6,0,0,0,5.89,3.3,11.07,11.07,0,0,0,6.6-.36,31.549,31.549,0,0,0,5.73-2.73,51.457,51.457,0,0,1,5.15-2.71,14.62,14.62,0,0,1,4.92-1.27,9.14,9.14,0,0,1,6.85,2.3,6.09,6.09,0,0,1,1.18,1.62,2.81,2.81,0,0,1,.24.66,7.46,7.46,0,0,0-1.55-2.13,9.12,9.12,0,0,0-6.69-2.09,14.3,14.3,0,0,0-4.78,1.31,50.164,50.164,0,0,0-5.08,2.73,31.9,31.9,0,0,1-5.81,2.79,11.57,11.57,0,0,1-6.91.38,20.2,20.2,0,0,1-6-3.38,20.16,20.16,0,0,0-5.45-3.14,8.68,8.68,0,0,0-5.55.09,8.47,8.47,0,0,0-3.92,2.88,8.73,8.73,0,0,0-1.64,3.7,4.52,4.52,0,0,0,.27,3A2.36,2.36,0,0,0,157,239.6a3.818,3.818,0,0,0,.65.06Z" fill="#455a64"/>
      <path id="Path_12108" data-name="Path 12108" d="M218.89,266.31a15.275,15.275,0,0,0,.89-1.4,9.57,9.57,0,0,0,1.19-4.28,8.9,8.9,0,0,0-.38-3,11.38,11.38,0,0,0-1.6-3.14c-.7-1-1.53-2.1-2.26-3.3a7.68,7.68,0,0,1-1.31-4.16,10.21,10.21,0,0,1,1.34-4.15,8.83,8.83,0,0,0,1.12-3.68,6.29,6.29,0,0,0-2.95-5.49,6.54,6.54,0,0,0-4.29-.84,13.365,13.365,0,0,0-1.6.39,1.57,1.57,0,0,1,.37-.22,5.779,5.779,0,0,1,1.2-.37,6.52,6.52,0,0,1,4.5.72,6.63,6.63,0,0,1,3.25,5.82,9.33,9.33,0,0,1-1.14,3.89,9.78,9.78,0,0,0-1.28,3.94,7.17,7.17,0,0,0,1.23,3.89c.7,1.16,1.52,2.22,2.22,3.29a11.83,11.83,0,0,1,1.62,3.29,9.15,9.15,0,0,1,.33,3.18A9.3,9.3,0,0,1,220,265a6.543,6.543,0,0,1-.75,1A3.09,3.09,0,0,1,218.89,266.31Z" fill="#455a64"/>
      <path id="Path_12109" data-name="Path 12109" d="M177,254.64a22.18,22.18,0,0,0-.42-2.49,10.1,10.1,0,0,0-17.94-3.49,10,10,0,0,0,0,11.85,9.17,9.17,0,0,0,2.12,2.14,9.3,9.3,0,0,0,2.53,1.37,10.08,10.08,0,0,0,9.54-1.4,10.3,10.3,0,0,0,3.75-5.55,22.71,22.71,0,0,0,.42-2.48,7.94,7.94,0,0,1-.22,2.53A10.25,10.25,0,0,1,173,263a10.43,10.43,0,0,1-9.92,1.56,9.689,9.689,0,0,1-2.67-1.42,10,10,0,0,1-2.23-2.23,10.45,10.45,0,0,1,0-12.46,10.474,10.474,0,0,1,10.42-4.09,10.41,10.41,0,0,1,8.13,7.78A8,8,0,0,1,177,254.64Z" fill="#263238"/>
      <path id="Path_12110" data-name="Path 12110" d="M200.44,254.64a19.57,19.57,0,0,0-.42-2.49,10.1,10.1,0,0,0-17.94-3.49,10,10,0,0,0,0,11.85,9.359,9.359,0,0,0,2.12,2.14,9.5,9.5,0,0,0,2.54,1.37,10.15,10.15,0,0,0,13.26-6.9,19.994,19.994,0,0,0,.42-2.48,7.59,7.59,0,0,1-.22,2.53,10.22,10.22,0,0,1-3.7,5.83,10.43,10.43,0,0,1-9.92,1.56,9.69,9.69,0,0,1-2.67-1.42,10.08,10.08,0,0,1-2.24-2.23,10.49,10.49,0,0,1,0-12.46,10.66,10.66,0,0,1,4.91-3.66,10.54,10.54,0,0,1,5.52-.43,10.42,10.42,0,0,1,8.12,7.78,7.65,7.65,0,0,1,.22,2.5Z" fill="#263238"/>
      <path id="Path_12111" data-name="Path 12111" d="M180.44,252.92h0v.1h0v-.18h0v.2a6.811,6.811,0,0,1-1.68.16c-1,0-1.83-.12-1.83-.26s.82-.26,1.83-.26a6.34,6.34,0,0,1,1.68.16v.2h0v-.18h0v.1h0Z" fill="#263238"/>
      <path id="Path_12112" data-name="Path 12112" d="M212.79,255.18a37.248,37.248,0,0,1-6.3-.19,37.548,37.548,0,0,1-6.26-.71,39.937,39.937,0,0,1,6.3.19,38.86,38.86,0,0,1,6.26.71Z" fill="#263238"/>
      <path id="Path_12113" data-name="Path 12113" d="M187,269.59a2.71,2.71,0,0,1,.07,1.61,5.51,5.51,0,0,1-5.66,4.63,2.7,2.7,0,0,1-1.57-.39c0-.08.62.08,1.57,0a5.65,5.65,0,0,0,5.3-4.33A11.457,11.457,0,0,0,187,269.59Z" fill="#263238"/>
      <path id="Path_12114" data-name="Path 12114" d="M147.39,341.38a1.339,1.339,0,0,1,0,.32v.94c0,.86,0,2.08.05,3.62,0,3.17,0,7.7.07,13.29,0,11.22-.34,26.72-1.21,43.82s-1.77,32.55-2.38,43.79c-.28,5.57-.51,10.1-.67,13.27q-.12,2.31-.18,3.6c0,.39-.05.7-.06.94a1.64,1.64,0,0,1,0,.32,1.14,1.14,0,0,1,0-.32v-.94c0-.86.05-2.07.09-3.61.09-3.14.25-7.68.5-13.28.47-11.21,1.38-26.69,2.23-43.79s1.31-32.59,1.37-43.81c0-5.58.07-10.11.09-13.28,0-1.54,0-2.76.05-3.62v-.94A1.34,1.34,0,0,1,147.39,341.38Z" fill="#263238"/>
      <path id="Path_12115" data-name="Path 12115" d="M244,324.16c-5.38-6.21-15.89-7.12-20.55-3.75s-7.25,9.09-7.72,14.82,1,11.48,3.18,16.79c3.51,8.52,8.7,15.42,16.45,24.2l20,26.22-38.55,37.64,16,25.21,32.77-26.4,27.1-28.72" fill="#ff725e"/>
      <path id="Path_12116" data-name="Path 12116" d="M104.61,405a6.28,6.28,0,0,1,2.08-1,14.72,14.72,0,0,1,5.51-.75,14.89,14.89,0,0,1,5.41,1.34,6.22,6.22,0,0,1,2,1.22c0,.07-.8-.37-2.1-.88a17.06,17.06,0,0,0-5.29-1.16,17.37,17.37,0,0,0-5.38.58C105.45,404.72,104.65,405.08,104.61,405Z" fill="#263238"/>
      <path id="Path_12117" data-name="Path 12117" d="M249.19,330.05h0c-13.45-17.84-27.93-16.37-35.31-16.58v-7.83c-5.45,0-12.9,4.91-16.75,8.42l-3.81,5.23h0a19.42,19.42,0,0,0-12.44-12.21,38.418,38.418,0,0,0-6.37-1.44v7c-18.08.51-27.75,5.45-39.83,19.43-.62.72-1.85,1.95-3.26,3.34h0l-35.74,42c-7.3,8.08-14,19.2-12.43,30h0c1.71,12.16,8.8,20.16,22.37,29.33l37.6,24.37-.18,4.19h89.73s60.85-44.89,62.34-61.52C296.27,390.64,275.31,362.79,249.19,330.05ZM144.73,425.36l-26.31-19.63,28.42-29.41Zm86.16,1.56-.71-14.53L234,374.22c7.5,8.6,21.38,25.67,21.38,28.22Z" fill="#c53f3f"/>
      <path id="Path_12118" data-name="Path 12118" d="M213.86,313.51a7.641,7.641,0,0,1-.68,1.19c-.48.74-1.17,1.81-2.08,3.1a70.809,70.809,0,0,1-7.87,9.48c-.85.86-1.71,1.67-2.55,2.44l-.42.39v-.57a12.71,12.71,0,0,0-3.68-8.76,5.45,5.45,0,0,0-2.29-1.62,1.43,1.43,0,0,0-1,.17,1,1,0,0,1,1-.35,5.2,5.2,0,0,1,2.49,1.56,12.75,12.75,0,0,1,2.64,3.58,12.88,12.88,0,0,1,1.32,5.41l-.42-.19c.82-.77,1.68-1.57,2.52-2.43a85.815,85.815,0,0,0,7.95-9.32l2.2-3a6.821,6.821,0,0,1,.87-1.08Z" fill="#263238"/>
      <path id="Path_12119" data-name="Path 12119" d="M174.49,312.68a5.69,5.69,0,0,1,.78.93l2,2.63c1.67,2.24,3.93,5.36,6.41,8.82l1.62,2.26-.45.07a21.621,21.621,0,0,1,2-4.63,7.9,7.9,0,0,1,2.89-2.85,5.36,5.36,0,0,1,2.59-.72,2.12,2.12,0,0,1,1,.14h-1a5.67,5.67,0,0,0-2.43.83,8,8,0,0,0-2.68,2.8,22.558,22.558,0,0,0-1.92,4.55l-.16.47-.29-.4-1.62-2.26c-2.48-3.46-4.7-6.61-6.29-8.9-.73-1.09-1.35-2-1.85-2.73A5.4,5.4,0,0,1,174.49,312.68Z" fill="#263238"/>
      <g id="Group_8249" data-name="Group 8249" opacity="0.1">
        <path id="Path_12120" data-name="Path 12120" d="M193.3,319.33a15.4,15.4,0,0,1,3.91,12.27c-.19,1.46-.36,3.41,1,3.95.95.37,2-.28,2.77-.92a54.41,54.41,0,0,0,14.1-17.2,3.28,3.28,0,0,0,.52-1.75,1.2,1.2,0,0,0-1.17-1.17,1.76,1.76,0,0,0-1,.73c-4.16,4.8-8.76,9.79-12.92,14.58a10.62,10.62,0,0,0-2.31-7.39c-1.65-2-3.45-4.07-4.87-3.1"/>
      </g>
      <path id="Path_12121" data-name="Path 12121" d="M231.67,463.62a2.531,2.531,0,0,1-.31-.42c-.22-.32-.49-.74-.84-1.26l-3.07-4.76c-2.61-4.14-6.26-9.91-10.51-16.62l-.1-.17.14-.13,9.38-9.36,20.41-20.2c2.6-2.54,4.72-4.6,6.22-6.08l1.72-1.63a5.463,5.463,0,0,1,.62-.55,4.571,4.571,0,0,1-.55.62c-.41.43-1,1-1.64,1.71L247,411l-20.31,20.31c-3.3,3.29-6.48,6.44-9.39,9.33v-.3c4.18,6.75,7.78,12.55,10.35,16.72,1.24,2,2.24,3.66,2.95,4.84.32.53.57,1,.77,1.3a2.309,2.309,0,0,1,.3.42Z" fill="#263238"/>
      <path id="Path_12122" data-name="Path 12122" d="M220.64,323.65l-.15.19-.46.54c-.43.46-1,1.18-1.72,2.12a21.22,21.22,0,0,0-3.83,9.13,26.23,26.23,0,0,0,2.23,14.43,34.07,34.07,0,0,0,4.4,7.53C223,360,225,362.41,227.05,365c8.07,10.17,15,19.64,20.1,26.44l6,8.07c.69.92,1.23,1.66,1.63,2.2l.41.58.13.2a1.045,1.045,0,0,1-.17-.17l-.45-.55-1.7-2.19c-1.47-1.87-3.57-4.59-6.15-8-5.16-6.74-12.15-16.18-20.2-26.33-2-2.55-4-5-5.94-7.37a34.56,34.56,0,0,1-4.44-7.66,26.35,26.35,0,0,1-2.15-14.68A21.28,21.28,0,0,1,220,324.31l.5-.5C220.57,323.7,220.63,323.64,220.64,323.65Z" fill="#263238"/>
      <path id="Path_12123" data-name="Path 12123" d="M254.37,336.56c0,.05-.55.24-1.49.74a14.851,14.851,0,0,0-3.55,2.73,29.41,29.41,0,0,0-4,5.34,81.771,81.771,0,0,1-4.47,7,17,17,0,0,1-13,6.92,15.88,15.88,0,0,1-4.55-.43,9.78,9.78,0,0,1-1.19-.35,2.585,2.585,0,0,1-.4-.17,21.8,21.8,0,0,0,6.12.58,17.22,17.22,0,0,0,6.39-1.71,17,17,0,0,0,6.18-5.16c1.77-2.3,3.11-4.76,4.47-6.9a28.16,28.16,0,0,1,4.15-5.35,13.94,13.94,0,0,1,3.72-2.66,9.262,9.262,0,0,1,1.16-.45,1.77,1.77,0,0,1,.46-.13Z" fill="#fafafa"/>
      <path id="Path_12124" data-name="Path 12124" d="M230.52,424.49h-.24l-.67-.16c-.3-.08-.67-.13-1.11-.2a14.332,14.332,0,0,0-1.52-.17,28.17,28.17,0,0,0-9.65,1.24,48.256,48.256,0,0,0-6.35,2.32c-2.22,1-4.52,2.22-7,3.39a45.734,45.734,0,0,1-8.08,3.06,24.158,24.158,0,0,1-4.54.72,19.89,19.89,0,0,1-4.73-.34,27.75,27.75,0,0,1-8.59-3.54c-2.58-1.54-4.89-3.29-7.1-4.91-4.37-3.28-8.55-6-12.52-7.18a20.159,20.159,0,0,0-5.47-.9,15.33,15.33,0,0,0-4.15.49,16.777,16.777,0,0,0-3.32,1.33l.19-.14.6-.36a11.848,11.848,0,0,1,2.48-1,15.308,15.308,0,0,1,4.21-.58,20.159,20.159,0,0,1,5.56.83c4.06,1.15,8.31,3.89,12.7,7.15,2.22,1.62,4.53,3.34,7.08,4.86a27.22,27.22,0,0,0,8.43,3.47,18.811,18.811,0,0,0,4.6.33,23.222,23.222,0,0,0,4.44-.69,45.779,45.779,0,0,0,8-3c2.48-1.16,4.79-2.38,7-3.35a47.12,47.12,0,0,1,6.42-2.28,27.329,27.329,0,0,1,9.76-1.09,13.091,13.091,0,0,1,3.57.7Z" fill="#fafafa"/>
      <path id="Path_12125" data-name="Path 12125" d="M131.67,415.61a1.5,1.5,0,0,1,.08.35,7.369,7.369,0,0,1,.12,1,15.069,15.069,0,0,1-.16,3.71,12.29,12.29,0,0,1-2.08,5.12,15.84,15.84,0,0,1-5.13,4.39c-2,1.23-4.07,2.26-5.72,3.46a15.691,15.691,0,0,0-3.86,3.73,6.21,6.21,0,0,0-1.15,3.36c0,.86.13,1.33.07,1.34a1,1,0,0,1-.12-.33,5.19,5.19,0,0,1-.16-1,6.17,6.17,0,0,1,1-3.57,15.31,15.31,0,0,1,3.89-3.92c1.68-1.25,3.71-2.3,5.73-3.51a16,16,0,0,0,5-4.23,12.39,12.39,0,0,0,2.11-4.9,18.15,18.15,0,0,0,.32-3.64A9.568,9.568,0,0,1,131.67,415.61Z" fill="#fafafa"/>
      <path id="Path_12126" data-name="Path 12126" d="M282.58,374.22a22.672,22.672,0,0,0-5.93,1.86,17.679,17.679,0,0,0-5.33,4,16.379,16.379,0,0,0-2.26,3.24c-.66,1.21-1.11,2.58-1.76,3.93a9.68,9.68,0,0,1-2.63,3.52,11.79,11.79,0,0,1-3.58,2,17.51,17.51,0,0,1-6.8.84,40.3,40.3,0,0,1-4.58-.54,10.761,10.761,0,0,1-1.65-.35,9.853,9.853,0,0,1,1.68.15c1.08.11,2.63.32,4.56.37a17.721,17.721,0,0,0,6.63-.93,9.79,9.79,0,0,0,5.9-5.27c.63-1.32,1.09-2.7,1.78-3.95A16.33,16.33,0,0,1,271,379.8a17.55,17.55,0,0,1,5.53-4.06,16.609,16.609,0,0,1,4.4-1.38,12.346,12.346,0,0,1,1.25-.14A1.23,1.23,0,0,1,282.58,374.22Z" fill="#fafafa"/>
      <path id="Path_12127" data-name="Path 12127" d="M232.88,382.66l-.23.07-.68.15c-.6.13-1.49.29-2.65.47a60.25,60.25,0,0,1-9.87.7A45.74,45.74,0,0,1,205,381.6a48,48,0,0,1-7.86-3.69,57,57,0,0,0-8.3-4.05,19,19,0,0,0-4.52-1,18.131,18.131,0,0,0-4.49.22,29.251,29.251,0,0,0-8,2.9c-4.85,2.57-8.93,5.43-12.62,7.42A30.46,30.46,0,0,1,150,387a13,13,0,0,1-2.67.29h-.7a.871.871,0,0,1-.24,0h.24l.69-.08a15.192,15.192,0,0,0,2.64-.39,31.7,31.7,0,0,0,9.07-3.71c3.63-2,7.69-4.91,12.57-7.53a29.4,29.4,0,0,1,8.17-3,18.69,18.69,0,0,1,4.62-.24,19.319,19.319,0,0,1,4.65,1.05,56.078,56.078,0,0,1,8.37,4.1,50.108,50.108,0,0,0,7.78,3.68,46.14,46.14,0,0,0,14.29,2.53,64.871,64.871,0,0,0,9.83-.53c1.16-.15,2.05-.28,2.66-.38l.69-.09A.87.87,0,0,1,232.88,382.66Z" fill="#fafafa"/>
      <path id="Path_12128" data-name="Path 12128" d="M135.13,388.44a3.42,3.42,0,0,0-.06-1.54,4.43,4.43,0,0,0-3.14-2.57c-.87-.26-1.86-.41-2.92-.65a7.229,7.229,0,0,1-3.21-1.47,8.52,8.52,0,0,1-2.22-3.2,25.419,25.419,0,0,1-1.15-4,21.9,21.9,0,0,0-1.14-3.88,14.439,14.439,0,0,0-1.87-3.24,14.21,14.21,0,0,0-4.83-4.07,15.059,15.059,0,0,0-4-1.42c-1-.2-1.57-.24-1.57-.29a1.07,1.07,0,0,1,.42,0,9.64,9.64,0,0,1,1.18.11,13.7,13.7,0,0,1,4.19,1.29,14.22,14.22,0,0,1,5,4.11,14.53,14.53,0,0,1,2,3.33,22.248,22.248,0,0,1,1.18,4,25.171,25.171,0,0,0,1.11,3.89,8.15,8.15,0,0,0,2.06,3,6.81,6.81,0,0,0,3,1.42c1,.26,2,.43,2.93.72a4.59,4.59,0,0,1,3.23,2.86,2.44,2.44,0,0,1,0,1.21A1,1,0,0,1,135.13,388.44Z" fill="#fafafa"/>
      <path id="Path_12129" data-name="Path 12129" d="M214.11,337.15a13.381,13.381,0,0,0-2.94-1.19,9.13,9.13,0,0,0-3.68,0,19,19,0,0,0-4.67,1.57c-1.67.75-3.43,1.73-5.35,2.74a30.49,30.49,0,0,1-6.43,2.67,18.68,18.68,0,0,1-7.69.25,29.94,29.94,0,0,1-7.84-2.59c-5.11-2.49-9.36-5.83-13.46-8.43a36,36,0,0,0-11.65-5.33,18.92,18.92,0,0,0-8.59-.1,30.428,30.428,0,0,0-3,1,11.94,11.94,0,0,1,3-1.19,18.51,18.51,0,0,1,8.72-.06,35.76,35.76,0,0,1,11.83,5.28c4.14,2.59,8.39,5.92,13.42,8.37a29.79,29.79,0,0,0,7.7,2.56,18.4,18.4,0,0,0,7.49-.22,29.908,29.908,0,0,0,6.35-2.58c1.92-1,3.7-2,5.4-2.7a19.652,19.652,0,0,1,4.77-1.52,9.271,9.271,0,0,1,3.78.14,9.509,9.509,0,0,1,2.2.92,7,7,0,0,1,.64.41Z" fill="#fafafa"/>
      <path id="Path_12130" data-name="Path 12130" d="M208.46,464.11l2.78,1.39h16l3.23-2.64L218.83,443.6c-1.43.63-7.71,1.61-9.74,2.32a16.29,16.29,0,0,1-5.45.92,29.653,29.653,0,0,1-6.17-.51l-.44-.14a2.21,2.21,0,0,0-.86-.18c-1.73-.15-3.1,1.66-2.13,3.09s5.7,3.34,11.74,3.17h.29c5.3,0,.44,4.44-2.71,7.08a4.18,4.18,0,0,0-1.52,3.79,1.78,1.78,0,0,0,.71,1.3C203.89,465.29,208.46,464.11,208.46,464.11Z" fill="#ffbe9d"/>
      <path id="Path_12131" data-name="Path 12131" d="M143.17,461.72a1.229,1.229,0,0,1,0-.28v-.83c0-.77.06-1.84.11-3.19.12-2.8.28-6.79.49-11.71.41-9.92,1-23.56,1.61-38.63s1-28.76,1.28-38.65c.11-4.92.19-8.91.25-11.72,0-1.35.05-2.42.07-3.19v-.82a1.11,1.11,0,0,1,0-.29.94.94,0,0,1,0,.29v4.01c0,2.77,0,6.77-.08,11.72-.14,9.9-.54,23.57-1.13,38.67s-1.24,28.75-1.76,38.63c-.28,4.91-.5,8.9-.66,11.7-.09,1.35-.16,2.42-.21,3.18l-.07.83A1.33,1.33,0,0,1,143.17,461.72Z" fill="#263238"/>
      <path id="Path_12132" data-name="Path 12132" d="M186.7,463.62a1.489,1.489,0,0,1,0-.37c0-.27-.05-.63-.09-1.09l-.29-4.21c-.12-1.82-.27-4.06-.35-6.66s-.27-5.55-.29-8.82-.14-6.86-.09-10.71v-6c0-2.09.09-4.16.14-6.32.25-8.65.7-18.15,1.4-28.11,1.4-19.93,3.18-37.92,4.32-50.95.56-6.5,1-11.76,1.34-15.44.15-1.79.28-3.2.36-4.19.05-.46.08-.82.11-1.09s.05-.37.05-.37a1.7,1.7,0,0,1,0,.37l-.05,1.1q-.105,1.5-.27,4.2c-.23,3.65-.64,8.93-1.17,15.45-1.05,13-2.77,31-4.17,50.95-.7,10-1.16,19.45-1.44,28.09,0,2.16-.11,4.27-.16,6.32s0,4-.07,6c-.06,3.84,0,7.42,0,10.69s.15,6.23.21,8.82.17,4.84.26,6.66.15,3.22.2,4.21v1.1a1.749,1.749,0,0,1,.05.37Z" fill="#263238"/>
      <path id="Path_12133" data-name="Path 12133" d="M194.06,365.1c-.05-.05.51-.28,1.13.25a1.442,1.442,0,1,1-2.19.37c.41-.71,1-.67,1-.6s-.43.17-.66.76a1.18,1.18,0,0,0,0,1,1.06,1.06,0,0,0,1.84-.31,1.2,1.2,0,0,0-.28-.93C194.52,365.13,194.06,365.19,194.06,365.1Z" fill="#263238"/>
      <path id="Path_12134" data-name="Path 12134" d="M191.25,410c-.05-.05.52-.29,1.14.25a1.47,1.47,0,0,1,.48,1.26,1.4,1.4,0,0,1-1.21,1.15,1.43,1.43,0,0,1-1.52-.69,1.51,1.51,0,0,1,.06-1.36c.41-.71,1-.66,1-.6a1.731,1.731,0,0,0-.66.76,1.14,1.14,0,0,0,0,1,1,1,0,0,0,1.83-.31,1.14,1.14,0,0,0-.28-.92C191.72,410,191.25,410.07,191.25,410Z" fill="#263238"/>
      <path id="Path_12135" data-name="Path 12135" d="M263,440.85a6.619,6.619,0,0,1-1.34-.17,18.312,18.312,0,0,1-3.52-1.13,19.68,19.68,0,0,1-9-8.05,31.108,31.108,0,0,1-2.49-6.23,18.5,18.5,0,0,0-2.21-4.9,9.13,9.13,0,0,0-2.54-2.54c-.73-.45-1.19-.6-1.17-.65a1.121,1.121,0,0,1,.34.08,5.442,5.442,0,0,1,.93.4,8.4,8.4,0,0,1,2.74,2.5,18.18,18.18,0,0,1,2.37,5,32,32,0,0,0,2.48,6.12,20.08,20.08,0,0,0,8.71,8,31.8,31.8,0,0,0,4.7,1.57Z" fill="#fafafa"/>
    </g>
    <g id="freepik--character-2--inject-19">
      <path id="Path_12136" data-name="Path 12136" d="M365.44,465.47l-17-49.34,7.86-47.34c2.29-12.77,3.57-24,.14-30.43-9.17-17.13-20.24-18.67-35.36-22.6-3.12-.81-26.85-1.61-29.46-1-20.59,2.31-33.77,13.23-41,31l-7.84,31.6-10.77,33a14.13,14.13,0,0,1-9.49,7.73L181,432.28l.35,8.13-.35,11L236.3,441c11.08-2.08,22.35-6.17,25.53-16.86l5.95-17.62c2.91,7.46,6.08,14.3,6.08,14.3l-4,44.43Z" fill="#455a64"/>
      <path id="Path_12137" data-name="Path 12137" d="M351.2,377.81l-15.8,52.83a25.5,25.5,0,0,1-17,17.08l-65.76,17.52-8.72-22.7,59.44-22.1,14.59-52.9s3.37-29.58,30.12-28.06" fill="#455a64"/>
      <path id="Path_12138" data-name="Path 12138" d="M348.06,339.48h-.8c-.53,0-1.31-.06-2.34,0a26.13,26.13,0,0,0-8.79,1.79,23.631,23.631,0,0,0-5.67,3.18,27.45,27.45,0,0,0-5.41,5.54,40.22,40.22,0,0,0-6.93,17.53h0c-4,14.72-9,32.74-14.53,52.93v.12h-.11L244,442.78l.15-.33,1.55,4c2.45,6.4,4.87,12.7,7.16,18.67l-.31-.16,56.5-15,6.37-1.7c1-.28,2.09-.54,3.11-.84a26.609,26.609,0,0,0,2.94-1.12A25.14,25.14,0,0,0,333.9,434a35.355,35.355,0,0,0,1.86-5.22q1.58-5.24,3-10c3.85-12.74,6.94-23,9.07-30l2.47-8.1.65-2.09c.15-.47.24-.71.24-.71s-.06.25-.19.72-.34,1.19-.61,2.11c-.55,1.87-1.35,4.6-2.38,8.13l-8.92,30.07q-1.41,4.79-3,10a35.371,35.371,0,0,1-1.86,5.28,25.553,25.553,0,0,1-3,5,25.82,25.82,0,0,1-9.58,7.58,28.9,28.9,0,0,1-3,1.15c-1,.3-2.07.56-3.12.85l-6.37,1.7-56.49,15.08-.22.06-.08-.21c-2.29-6-4.72-12.28-7.17-18.67l-1.55-4-.09-.24.24-.09,59.45-22.08-.15.16c5.59-20.17,10.58-38.19,14.65-52.89h0a40.2,40.2,0,0,1,7.06-17.65,27.15,27.15,0,0,1,5.49-5.57,23.77,23.77,0,0,1,5.74-3.17,25.331,25.331,0,0,1,8.86-1.71,21.09,21.09,0,0,1,2.34,0Z" fill="#263238"/>
      <path id="Path_12139" data-name="Path 12139" d="M306.63,408.57a2.769,2.769,0,0,1-.79.06,9.771,9.771,0,0,1-2.13-.25,13.9,13.9,0,0,1-6.24-3.29,15.22,15.22,0,0,1-4.06-5.77,8,8,0,0,1-.39-1.17,5.768,5.768,0,0,1-.2-.9c-.08-.5-.11-.78-.07-.78a25.886,25.886,0,0,0,1,2.7,16.54,16.54,0,0,0,4.06,5.53,14.9,14.9,0,0,0,6,3.32C305.51,408.48,306.63,408.46,306.63,408.57Z" fill="#263238"/>
      <path id="Path_12140" data-name="Path 12140" d="M267.58,368.39a8.9,8.9,0,0,1-.55,1.55c-.39,1-1,2.41-1.63,4.19-1.3,3.53-3.13,8.54-3.32,14.3a23.81,23.81,0,0,0,1.09,8,28.64,28.64,0,0,0,2.71,6,40.645,40.645,0,0,0,2.49,3.71,12.509,12.509,0,0,1,1,1.34,2.963,2.963,0,0,1-.32-.3c-.2-.21-.47-.5-.81-.91a30.563,30.563,0,0,1-2.66-3.65,28.461,28.461,0,0,1-2.85-6.07,24,24,0,0,1-1.15-8.13A43.05,43.05,0,0,1,265.05,374c.71-1.76,1.35-3.16,1.79-4.13a10.559,10.559,0,0,1,.74-1.48Z" fill="#263238"/>
      <path id="Path_12141" data-name="Path 12141" d="M309.14,427.49a19.631,19.631,0,0,0-2.42-4.1,19.36,19.36,0,0,0-3.69-3,2.91,2.91,0,0,1,1.36.47,9.55,9.55,0,0,1,4.48,5.2,3,3,0,0,1,.27,1.43Z" fill="#263238"/>
      <path id="Path_12142" data-name="Path 12142" d="M245.13,445.7s-18.81,1.68-18.55,13.9L250,458.41Z" fill="#b78876"/>
      <path id="Path_12143" data-name="Path 12143" d="M275.45,240.93q-2.58,12.48-4.92,25c-2,10.58-3.8,21.64-.81,32,1.64,5.68,4.66,10.84,7.65,15.94,1.68,2.86,3.52,5.88,6.5,7.36,4.05,2,9.17.42,12.4-2.75s4.86-7.59,6-12c2.17-8.54,2.65-17.41,3-26.22s.53-17.95-2-26.49-8.07-16.62-16.32-20" fill="#263238"/>
      <path id="Path_12144" data-name="Path 12144" d="M276.81,234.25A14.58,14.58,0,0,1,285,231.2c2.4-4.86,8.09-7.09,13.41-8.12,7.84-1.53,7-1.74,14.29,1.48s17.67,12.32,19,20.2a71.911,71.911,0,0,0,6.57,19.88c2,4.15,5.9,7,8.21,11a16.4,16.4,0,0,1,.95,14.4c-1.88,4.51-5.87,8.49-5.49,13.35.21,2.83.11,4.85,1.23,7.46,3.79,8.84,2,20.62-6.14,25.72s-19.92,3.32-26.21-4c-5.46-6.32-6.51-15.34-6-23.68s2.43-16.63,1.89-25" fill="#263238"/>
      <path id="Path_12145" data-name="Path 12145" d="M286.15,465.24l-.12-2.88-42.4-4.47-18.58-53.41-79.57-1.8,24.07,62.56Q228.56,465.69,286.15,465.24Z" fill="#263238"/>
      <path id="Path_12146" data-name="Path 12146" d="M189.63,434.82a4.16,4.16,0,1,0,1.53-5.68A4.16,4.16,0,0,0,189.63,434.82Z" fill="#fff"/>
      <path id="Path_12147" data-name="Path 12147" d="M305.46,336.42c9.54,0,18.12-8.13,17.84-20.21l1.72-69h0a5.76,5.76,0,0,0-5.16-5.85l-28.43-3a17.32,17.32,0,0,0-19.1,16.14c-.68,10.92-1.09,24.29.2,32.44,2.6,16.39,15.17,18.48,15.17,18.48l-.31,11.45c-.48,12.2,8.65,19.54,18.07,19.54Z" fill="#b78876"/>
      <path id="Path_12148" data-name="Path 12148" d="M278.69,263.4a2.1,2.1,0,0,0,2,2.12,2,2,0,0,0,2.16-1.89,2.09,2.09,0,0,0-2-2.12,2,2,0,0,0-2.16,1.89Z" fill="#263238"/>
      <path id="Path_12149" data-name="Path 12149" d="M275.23,261.46c.26.27,1.86-.9,4.12-.9s3.92,1.14,4.16.86c.12-.12-.14-.61-.86-1.14a5.81,5.81,0,0,0-3.34-1,5.54,5.54,0,0,0-3.27,1.06C275.34,260.84,275.11,261.34,275.23,261.46Z" fill="#263238"/>
      <path id="Path_12150" data-name="Path 12150" d="M300.53,263.82a2.09,2.09,0,0,0,2,2.12,2,2,0,0,0,2.17-1.89,2.1,2.1,0,0,0-2-2.12,2,2,0,0,0-2.17,1.89Z" fill="#263238"/>
      <path id="Path_12151" data-name="Path 12151" d="M297.47,261.88c.26.28,1.85-.9,4.11-.9s3.92,1.14,4.17.86c.12-.12-.14-.61-.87-1.14a5.82,5.82,0,0,0-3.33-1,5.57,5.57,0,0,0-3.28,1.06C297.58,261.26,297.34,261.76,297.47,261.88Z" fill="#263238"/>
      <path id="Path_12152" data-name="Path 12152" d="M289.26,278.66a15,15,0,0,0-3.67-.66c-.58-.06-1.13-.18-1.23-.57a3,3,0,0,1,.39-1.72c.54-1.39,1.11-2.86,1.71-4.39,2.37-6.27,4.09-11.42,3.83-11.51s-2.38,4.91-4.75,11.17c-.57,1.55-1.12,3-1.64,4.43a3.4,3.4,0,0,0-.3,2.26,1.47,1.47,0,0,0,.95.85,3.741,3.741,0,0,0,1,.13,14.4,14.4,0,0,0,3.71.01Z" fill="#263238"/>
      <path id="Path_12153" data-name="Path 12153" d="M287.7,305.43a41.7,41.7,0,0,0,21.95-5.86s-5.33,11.26-21.73,9.73Z" fill="#aa6550"/>
      <path id="Path_12154" data-name="Path 12154" d="M290.22,284.11a4,4,0,0,1,3.65-1.51,3.74,3.74,0,0,1,2.57,1.37,2.36,2.36,0,0,1,.18,2.7,2.73,2.73,0,0,1-3,.75,8.7,8.7,0,0,1-2.89-1.72,2.54,2.54,0,0,1-.64-.67.75.75,0,0,1,0-.85" fill="#aa6550"/>
      <path id="Path_12155" data-name="Path 12155" d="M295.92,280.22c-.37,0-.38,2.44-2.48,4.18s-4.71,1.47-4.73,1.82c0,.15.58.47,1.69.5a6.13,6.13,0,0,0,4-1.37,5.32,5.32,0,0,0,1.91-3.51C296.36,280.82,296.08,280.21,295.92,280.22Z" fill="#263238"/>
      <path id="Path_12156" data-name="Path 12156" d="M296.45,257.92c.22.62,2.48.33,5.14.65s4.8,1,5.15.49c.16-.27-.22-.84-1.08-1.44a8.6,8.6,0,0,0-3.82-1.34,8.72,8.72,0,0,0-4,.47C296.85,257.15,296.36,257.63,296.45,257.92Z" fill="#263238"/>
      <path id="Path_12157" data-name="Path 12157" d="M276.06,254.91c.4.52,2,0,3.84,0s3.46.34,3.82-.19c.16-.26-.09-.78-.78-1.26a5.51,5.51,0,0,0-6.17.19C276.11,254.13,275.89,254.66,276.06,254.91Z" fill="#263238"/>
      <path id="Path_12158" data-name="Path 12158" d="M272.67,251.78c6.17-3.58,12.18-6.89,16-12.89,2.13,6,6.29,9,11.81,12.19s11.69,5.06,17.8,6.89c-3.09,3-3.5,7.85-2.79,12.1s2.34,8.34,2.61,12.64c.35,5.74-1.75,11.37-1.88,17.12-.18,7.89,3.3,15.34,6.71,22.45l14.81-8.63-2.13-38.45.18-27.21L312.7,226.53l-29.24,3.2Z" fill="#263238"/>
      <path id="Path_12159" data-name="Path 12159" d="M269.38,332.63c7.51,7.59,6.71,21.12,15,27.91,5.06,4.16,12.45,4.55,18.66,2.45s11.43-6.35,16.22-10.83,9.32-9.29,14.77-12.92c5.29-3.53,14.35-5.7,15.63-11.94.94-4.56-3.86-10.05-4.76-14.62-1.43-7.26,6.42-12.87,7.73-20.15,2.62-14.55-5.06-31.63-13.06-44s-12.52-26.38-32.8-27.53c-18.15-.81-30.51,7.9-36.55,20.5-3,6.31-3.73,13.45-4.32,20.43-1.37,16.3-2.13,33.58,5.4,48.1,1.56,3,3.42,6.82,1.32,9.48-1.92,2.43-6.27,2.33-7.49,5.18S267.12,330.34,269.38,332.63ZM292,236c2.43-.1,9.64,0,17.68,10.71,4.81,6.41,4.8,16.79,4.7,25.84-.09,6.73,0,23.76,0,23.76s1.06,21.51-6.25,23.41c-9,2.34-16.83.73-23.54-5.66s-10.55-15.36-12.08-24.5-2.39-18.46-1.19-27.65A38.72,38.72,0,0,1,276.78,246,22.25,22.25,0,0,1,292,236Z" fill="#c53f3f"/>
      <g id="Group_8250" data-name="Group 8250" opacity="0.3">
        <path id="Path_12160" data-name="Path 12160" d="M348.06,320.27c-6,3.26-10.15,8.11-15,12.89s-10.34,9.41-17,11.13-14.67-.33-18-6.32c18.77,3.2,40.56-11.79,47-29.72A10.44,10.44,0,0,0,345,313,63.544,63.544,0,0,0,348.06,320.27Z"/>
      </g>
      <g id="Group_8251" data-name="Group 8251" opacity="0.3">
        <path id="Path_12161" data-name="Path 12161" d="M273.43,315.32a18.45,18.45,0,0,0,9.07,11.46,12,12,0,0,1,2.86,1.69,2.78,2.78,0,0,1,.87,3,2.7,2.7,0,0,1-3.22,1.18,8,8,0,0,1-3-2.12c-3.27-3.16-6.64-6.36-7.56-10.8a5.27,5.27,0,0,0,1.08-2.23,10.071,10.071,0,0,0-.1-2.18Z"/>
      </g>
      <path id="Path_12162" data-name="Path 12162" d="M343.57,311.8a2.541,2.541,0,0,1-.28.58c-.21.37-.48.94-.91,1.62a55.248,55.248,0,0,1-3.88,5.62,60.5,60.5,0,0,1-6.85,7.47,42,42,0,0,1-10.2,7.07,47.474,47.474,0,0,1-6.06,2.17,46.348,46.348,0,0,1-5.86,1.3,40.941,40.941,0,0,1-10.13.38,35.081,35.081,0,0,1-6.71-1.28c-.78-.21-1.36-.45-1.76-.59a2.53,2.53,0,0,1-.6-.25s.86.24,2.42.64a37.482,37.482,0,0,0,6.69,1.11,42.061,42.061,0,0,0,10-.48,46.759,46.759,0,0,0,5.78-1.32,48,48,0,0,0,6-2.15,42.649,42.649,0,0,0,10.09-7,63.263,63.263,0,0,0,6.88-7.34,64.51,64.51,0,0,0,4-5.5c.45-.66.75-1.21,1-1.56A4.141,4.141,0,0,1,343.57,311.8Z" fill="#263238"/>
      <path id="Path_12163" data-name="Path 12163" d="M297.54,330.35a4.67,4.67,0,0,1-1.19.31,18.721,18.721,0,0,1-3.34.3,20.52,20.52,0,0,1-18.2-10.91,18.412,18.412,0,0,1-1.31-3.1,4.729,4.729,0,0,1-.28-1.2,43.2,43.2,0,0,0,1.92,4.12A21,21,0,0,0,293,330.59C295.81,330.67,297.53,330.24,297.54,330.35Z" fill="#263238"/>
      <path id="Path_12164" data-name="Path 12164" d="M293.65,355.13a2.141,2.141,0,0,1,.58-.15c.38-.09,1-.17,1.68-.35a52.9,52.9,0,0,0,6.07-1.69,69.241,69.241,0,0,0,18.27-9.77A151.47,151.47,0,0,0,336,329.56l4.54-4.4c.5-.49.92-.88,1.24-1.19a2.839,2.839,0,0,1,.46-.39,3,3,0,0,1-.38.46l-1.18,1.26c-1,1.08-2.53,2.63-4.42,4.52a136.518,136.518,0,0,1-15.7,13.78,66.31,66.31,0,0,1-18.46,9.69,45.255,45.255,0,0,1-6.15,1.54c-.73.15-1.32.2-1.71.25A2.39,2.39,0,0,1,293.65,355.13Z" fill="#263238"/>
    </g>
    <g id="freepik--character-3--inject-19">
      <path id="Path_12165" data-name="Path 12165" d="M645.81,376.11l-35.28-41.6-.08.08c-1.39-1.37-2.61-2.59-3.23-3.3-12.22-14.16-21.93-19-40.64-19.26h0l-36.36.78c-6.76.56-22.1-2.33-36.29,16.48h0c-25.85,32.39-46.58,59.94-45.41,72.94,1.47,16.45,64.21,63.35,64.21,63.35l86.24-.07-.18-6.57L636,434.79c13.42-9.07,20.43-17,22.13-29C659.62,395.11,653,384.11,645.81,376.11Zm-158,24.76c0-2.53,13.6-18.48,21-27l3.85,36.83L512,425.09Zm109.41,22.67L595.17,375h0l28.12,29.09Z" fill="#455a64"/>
      <rect id="Rectangle_17555" data-name="Rectangle 17555" width="77.95" height="53.35" rx="3.42" transform="matrix(0.896, -0.443, 0.443, 0.896, 476.515, 429.461)" fill="#e0e0e0"/>
      <path id="Path_12166" data-name="Path 12166" d="M523,432.19a3.95,3.95,0,1,1-1.31,5.43A3.95,3.95,0,0,1,523,432.19Z" fill="#fff"/>
      <path id="Path_12167" data-name="Path 12167" d="M594.63,340.46a1.343,1.343,0,0,1,0,.32v4.5c0,3.14.06,7.62.1,13.15.06,11.1.49,26.42,1.35,43.34s1.74,32.23,2.21,43.32c.24,5.54.4,10,.49,13.14,0,1.52.06,2.72.08,3.57v.93a1.566,1.566,0,0,1,0,.32,1.648,1.648,0,0,1,0-.32,5.687,5.687,0,0,0-.06-.93c0-.85-.11-2-.18-3.57-.16-3.13-.39-7.61-.66-13.12-.61-11.12-1.44-26.42-2.36-43.32s-1.24-32.26-1.2-43.36c0-5.52,0-10,.07-13.15,0-1.52,0-2.72.05-3.57v-.93A2.007,2.007,0,0,1,594.63,340.46Z" fill="#263238"/>
      <path id="Path_12168" data-name="Path 12168" d="M504.84,318.71c4.6-3.35,9.95-2.34,14.56,1s7.17,9,7.63,14.67-1,11.35-3.15,16.61c-3.47,8.43-8.6,15.25-16.27,23.93l-19.76,25.95L526,438.11l-15.81,24.94-31.94-25.71c-10.91-9.21-20.19-18.63-27-28.37" fill="#455a64"/>
      <path id="Path_12169" data-name="Path 12169" d="M451.24,409l.23.3.67.9c.59.79,1.47,2,2.66,3.46a139,139,0,0,0,11,12.19q3.75,3.735,8.53,8c3.18,2.84,6.76,5.65,10.56,8.7l25.4,20.38-.35.06c4.91-7.75,10.24-16.17,15.79-24.95v.32l-19.68-19.2-18.46-18-.16-.15.13-.18c7-9.15,13.62-17.85,19.78-25.94h0a129.291,129.291,0,0,0,10.45-13.12,59.693,59.693,0,0,0,6.87-13.49A34.16,34.16,0,0,0,526.9,335a21.859,21.859,0,0,0-3.37-10.74,17.38,17.38,0,0,0-6.78-6.08,12.59,12.59,0,0,0-6.59-1.46,10.16,10.16,0,0,0-4.05,1.2c-.86.46-1.26.77-1.27.75l.3-.23a7.485,7.485,0,0,1,.93-.59,10.159,10.159,0,0,1,4.08-1.28,12.64,12.64,0,0,1,6.7,1.42,17.38,17.38,0,0,1,6.91,6.11,22.12,22.12,0,0,1,3.48,10.9,34.59,34.59,0,0,1-2.12,13.27,59.88,59.88,0,0,1-6.88,13.61,130.111,130.111,0,0,1-10.45,13.18h0c-6.16,8.09-12.79,16.8-19.75,26v-.34l18.47,18,19.67,19.21.15.15-.11.17c-5.56,8.78-10.9,17.19-15.82,24.93l-.14.23-.21-.17L484.7,442.79c-3.79-3.06-7.39-5.9-10.54-8.74s-6-5.51-8.51-8a134.756,134.756,0,0,1-10.95-12.31c-1.17-1.5-2-2.7-2.6-3.51-.28-.39-.49-.7-.64-.92S451.24,409,451.24,409Z" fill="#263238"/>
      <path id="Path_12170" data-name="Path 12170" d="M637,403.4a14.819,14.819,0,0,1-2-.62,13.83,13.83,0,0,0-9.73.51,16,16,0,0,1-1.93.83,5.88,5.88,0,0,1,1.77-1.17,12.36,12.36,0,0,1,10-.52A6.069,6.069,0,0,1,637,403.4Z" fill="#263238"/>
      <path id="Path_12171" data-name="Path 12171" d="M533.81,461.88l-6.94,3.45a9.78,9.78,0,0,1-10.54-1.18L512,460.62l12-18.87c1.41.61,7.21,1.43,9.21,2.14a16,16,0,0,0,5.39.9,29.829,29.829,0,0,0,6.11-.5c.13-.05.31-.09.43-.14A2,2,0,0,1,546,444c1.71-.16,3.07,1.64,2.11,3s-5.64,3.3-11.62,3.13h-.28c-5.25,0-.43,4.39,2.68,7a4.12,4.12,0,0,1,1.5,3.75,1.74,1.74,0,0,1-.7,1.29C538.33,463.05,533.81,461.88,533.81,461.88Z" fill="#a36853"/>
      <path id="Path_12172" data-name="Path 12172" d="M549.87,329.4c-9.2,0-17.47-7.84-17.39-19.52l-1.66-66.51h.19a5.56,5.56,0,0,1,5-5.64l27.42-2.9a16.69,16.69,0,0,1,18.41,15.56c.66,10.53,1.06,23.42-.19,31.28C579.11,297.5,567,299.52,567,299.52l.29,11c.47,11.76-8.34,18.84-17.42,18.84Z" fill="#a36853"/>
      <path id="Path_12173" data-name="Path 12173" d="M575.68,259a2,2,0,0,1-1.95,2,1.93,1.93,0,0,1-2.09-1.83,2.025,2.025,0,0,1,4.04-.17Z" fill="#263238"/>
      <path id="Path_12174" data-name="Path 12174" d="M579,257.12c-.25.27-1.78-.87-4-.86s-3.77,1.09-4,.83.14-.6.84-1.11a5.61,5.61,0,0,1,3.21-1,5.38,5.38,0,0,1,3.16,1C578.91,256.53,579.14,257,579,257.12Z" fill="#263238"/>
      <path id="Path_12175" data-name="Path 12175" d="M554.63,259.4a2.074,2.074,0,1,1-2.09-1.83A2,2,0,0,1,554.63,259.4Z" fill="#263238"/>
      <path id="Path_12176" data-name="Path 12176" d="M557.57,257.53c-.25.27-1.79-.87-4-.87s-3.78,1.1-4,.83c-.12-.11.14-.59.84-1.1a5.53,5.53,0,0,1,3.21-1,5.38,5.38,0,0,1,3.16,1C557.47,256.93,557.7,257.41,557.57,257.53Z" fill="#263238"/>
      <path id="Path_12177" data-name="Path 12177" d="M565.49,273.71a13.94,13.94,0,0,1,3.54-.64c.56-.06,1.09-.17,1.18-.55a2.84,2.84,0,0,0-.37-1.65c-.53-1.35-1.07-2.76-1.65-4.24-2.29-6-3.94-11-3.7-11.1s2.3,4.73,4.58,10.77c.56,1.49,1.08,2.91,1.58,4.27a3.2,3.2,0,0,1,.29,2.19,1.42,1.42,0,0,1-.91.81,3.909,3.909,0,0,1-.95.13,14.55,14.55,0,0,1-3.59.01Z" fill="#263238"/>
      <path id="Path_12178" data-name="Path 12178" d="M567,299.52a40.26,40.26,0,0,1-21.17-5.65s5.48,11.89,21.29,10.41Z" fill="#8f5039"/>
      <path id="Path_12179" data-name="Path 12179" d="M558.55,253.71c-.21.6-2.39.31-4.95.62s-4.63,1-5,.48c-.16-.26.2-.82,1-1.39a8.65,8.65,0,0,1,7.56-.83C558.17,253,558.65,253.43,558.55,253.71Z" fill="#263238"/>
      <path id="Path_12180" data-name="Path 12180" d="M578.21,250.81c-.38.5-1.89,0-3.69,0s-3.34.33-3.69-.19c-.16-.25.09-.74.75-1.21a5.08,5.08,0,0,1,3-.81,5,5,0,0,1,2.94,1C578.17,250.06,578.38,250.57,578.21,250.81Z" fill="#263238"/>
      <path id="Path_12181" data-name="Path 12181" d="M531,258.48c2.69-.48,4.84.35,5.6,3,1.13,3.95.36,5.9.55,8.62l4-1.2c-1-9.11,1.27-15.85.28-25,5.56,1.8,13.2-1.64,15.57-7.4a15.48,15.48,0,0,0,16.5,1.16,6.36,6.36,0,0,0,6.79,3.18c3-.85,6.18-5.12,7.05-8.15,1.56-5.45.8-13.27-3.62-16.82s-13.28-2.7-16.72,1.81c-1.36,1.78-1.52,5.07-3.71,5.52-1.95.4-3.72-1-5.5-1.92-5.55-2.75-13.22.9-14.59,6.94-4.64-2.77-10.26-4.58-15.45-3.09s-9.33,7.25-7.56,12.35c.73,2.14,2.38,4,2.56,6.23.35,4.35-4.87,8.29-3.2,12.32.93,2.26,3.66,3.26,4.89,5.37,1.38,2.36.52,5.34.64,8.07.18,4.56,2.52,11.31,6.89,12.61" fill="#263238"/>
      <path id="Path_12182" data-name="Path 12182" d="M531.41,258.43a3.77,3.77,0,0,0-3,2.41,8.28,8.28,0,0,0-.81,3.89,8.69,8.69,0,0,0,1.9,5.8,5,5,0,0,0,5.64,1.43" fill="#a36853"/>
      <path id="Path_12183" data-name="Path 12183" d="M534.14,268.53a1.86,1.86,0,0,1-1.52-.06,3.25,3.25,0,0,1-1.37-1,3.72,3.72,0,0,1-.73-2,3.77,3.77,0,0,1,.41-2,3.631,3.631,0,0,1,1.12-1.27c.82-.54,1.46-.51,1.45-.45a9,9,0,0,0-1.22.75,3.49,3.49,0,0,0-1.24,3,3.14,3.14,0,0,0,1.73,2.65A9.219,9.219,0,0,0,534.14,268.53Z" fill="#8f5039"/>
      <path id="Path_12184" data-name="Path 12184" d="M558.55,281.43c2,1.37,5.78.65,7.2-1.38a38.539,38.539,0,0,1-8.36-6.15S554.55,278.62,558.55,281.43Z" fill="#fafafa"/>
      <path id="Path_12185" data-name="Path 12185" d="M565,286.05a8.9,8.9,0,0,0-2.54-.6,9.5,9.5,0,0,0-2.54.57,1.577,1.577,0,0,1,.6-.58,3.9,3.9,0,0,1,3.89,0C564.86,285.73,565.06,286,565,286.05Z" fill="#aa6550"/>
    </g>
    <g id="freepik--character-4--inject-19">
      <path id="Path_12186" data-name="Path 12186" d="M540.67,350.08a184.916,184.916,0,0,0,11.49-19.4c4.13-7.88,3.43-8.28,2.44-8.63-2.66-.95-7.79,13.57-8.47,9.77s8.3-17,5.48-17.84c-3.68-1.14-8.77,14.17-9.29,15.43s-2.35.49-1.81-.62c.77-1.59,8.43-18.58,4.82-19.73-2-.63-2.72,3.11-2.72,3.11s-6,16.45-7.69,15.85,1.5-10.39,2.81-13.61.33-5.13-1.54-4.57c-1.28.38-5.53,10.14-6.75,13.35s-4.42,12.1-6.36,6.35c0-.09-.07-.17-.11-.26-1.75-5.72-5-9.54-6.69-10s-2.92,1.4-2.22,3a2,2,0,0,0,.44.75c.09.1.18.25.27.36a30,30,0,0,1,2.44,5.62,16.29,16.29,0,0,1,.87,5.4c0,2.13,1,8.33.92,9.86" fill="#ffad9d"/>
      <path id="Path_12187" data-name="Path 12187" d="M518,342l-24.19,48s-13.68-39.57-21.06-55.31c-2.81-6-8.45-10.16-13.86-12.92v-.11l-1.13-.45A57.277,57.277,0,0,0,445.6,317c-25.52-7.31-49.56-4.76-77.39,5,0,0-14.45,3.88-21.46,22.73-6.3,17-13.37,43-14.58,47.6-8.67,29.18,3.71,45.43,20.94,43.43,7.1-1.12,13.14-7,15.81-9.28l9.11-8.56.2,6.63L368,465.5l104.74-.22-18.9-48.49,4.2-22.23,7.19,17.08a29.93,29.93,0,0,0,54.87.71l24.49-61.66Z" fill="#c53f3f"/>
      <path id="Path_12188" data-name="Path 12188" d="M391.87,401.84a10.293,10.293,0,0,1-.94,1.35c-.63.84-1.58,2.05-2.79,3.5-2.41,2.91-5.88,6.82-9.91,10.95s-7.87,7.68-10.75,10.13c-1.43,1.24-2.62,2.2-3.46,2.84a8.629,8.629,0,0,1-1.34,1,10.2,10.2,0,0,1,1.21-1.11c.8-.69,1.95-1.7,3.35-3,2.8-2.53,6.59-6.11,10.61-10.23s7.54-8,10-10.82c1.25-1.42,2.23-2.59,2.91-3.39A9.5,9.5,0,0,1,391.87,401.84Z" fill="#263238"/>
      <path id="Path_12189" data-name="Path 12189" d="M454.18,415.23a2.161,2.161,0,0,1,.05-.56c.08-.42.16-.94.27-1.58l1.09-5.82c.92-4.91,2.18-11.69,3.18-19.24q.38-2.83.68-5.51a29.322,29.322,0,0,0,.29-5.13,51.491,51.491,0,0,0-1.29-8.63c-.54-2.44-1-4.4-1.31-5.77-.14-.69-.22-1.23-.26-1.59a2.241,2.241,0,0,1,0-.57,2.169,2.169,0,0,1,.12.55c.07.36.19.89.36,1.57.33,1.35.88,3.29,1.47,5.73a48.529,48.529,0,0,1,1.41,8.69,30.823,30.823,0,0,1-.26,5.2c-.19,1.79-.42,3.64-.67,5.53-1,7.57-2.33,14.35-3.34,19.24-.52,2.39-.94,4.35-1.25,5.79-.15.63-.27,1.15-.36,1.57A2.808,2.808,0,0,1,454.18,415.23Z" fill="#263238"/>
      <path id="Path_12190" data-name="Path 12190" d="M491.68,401.74a67.8,67.8,0,0,1,2.17-11.66A34.172,34.172,0,0,1,493,396,34.712,34.712,0,0,1,491.68,401.74Z" fill="#263238"/>
      <path id="Path_12191" data-name="Path 12191" d="M495.37,403.16a45.466,45.466,0,0,1-1-6.75,44.642,44.642,0,0,1-.53-6.81,45.478,45.478,0,0,1,1,6.75,44.642,44.642,0,0,1,.53,6.81Z" fill="#263238"/>
      <path id="Path_12192" data-name="Path 12192" d="M418.11,465.28c-.14,0-.26-16.08-.26-35.9s.12-35.91.26-35.91.26,16.07.26,35.91S418.25,465.28,418.11,465.28Z" fill="#263238"/>
      <g id="Group_8252" data-name="Group 8252" opacity="0.2">
        <path id="Path_12193" data-name="Path 12193" d="M457.41,363.73c4.91,9.41,9.18,18.77,9.57,29.38.3,8.25-3,15.13.41,22.65-.17.13-3.08-6.35-4.37-9.39-2.65-6.26-5-11.85-5-11.85s1.82-14.13,2-16.54S457.41,363.73,457.41,363.73Z"/>
      </g>
      <g id="Group_8253" data-name="Group 8253" opacity="0.2">
        <path id="Path_12194" data-name="Path 12194" d="M335.88,411.54c0,4.72-2.93-10.86-.19-14.69,1.93-2.69,5.23-4,8.43-4.79s6.55-1.32,9.39-3c3.67-2.17,6-6,8.57-9.36s6-17.75,10.24-18.06v21a285.829,285.829,0,0,1-31.62,17.73,14.73,14.73,0,0,0-4.82,11.17Z"/>
      </g>
      <g id="Group_8254" data-name="Group 8254" opacity="0.2">
        <path id="Path_12195" data-name="Path 12195" d="M378,417.93c6.85-3.85,11.85-9,19.59-10.33,7.45-1.32,15.12,0,22.66-.52q-.61-5.71-1.25-11.44l-21.57-.24Z"/>
      </g>
      <path id="Path_12196" data-name="Path 12196" d="M372.32,361.4c.14,0,.26,4.67.26,10.43s-.12,10.44-.26,10.44a102.666,102.666,0,0,1-.26-10.44,102.549,102.549,0,0,1,.26-10.43Z" fill="#263238"/>
      <path id="Path_12197" data-name="Path 12197" d="M335.86,411.43a4.77,4.77,0,0,1-.12-1.86,13.2,13.2,0,0,1,1.06-4.37,13,13,0,0,1,2.45-3.76,5,5,0,0,1,1.42-1.2,24.1,24.1,0,0,0-3.39,5.17,22.678,22.678,0,0,0-1.42,6.02Z" fill="#263238"/>
      <path id="Path_12198" data-name="Path 12198" d="M340.17,400.56a9.407,9.407,0,0,0,1.57-.57c1-.4,2.44-1,4.19-1.83a145.544,145.544,0,0,0,13.33-7c5.06-3,9.47-5.95,12.56-8.21,1.55-1.14,2.79-2.08,3.62-2.75a9.932,9.932,0,0,0,1.26-1.09,10.151,10.151,0,0,0-1.4.92l-3.71,2.6c-3.15,2.18-7.57,5.09-12.62,8.06s-9.77,5.39-13.22,7.08l-4.1,2A9.438,9.438,0,0,0,340.17,400.56Z" fill="#263238"/>
      <path id="Path_12199" data-name="Path 12199" d="M471.57,271.82c-1.72-2.25-4.45-4-5-6.75-.69-3.69,3-7.15,2.33-10.85-.44-2.53-2.77-4.31-5.15-5.29s-5-1.45-7.18-2.76a14.51,14.51,0,0,1-5.73-7.06,24.147,24.147,0,0,1-.85-2.43,25.787,25.787,0,0,0-1.21-5.19c-.09-.44-.17-.88-.25-1.32l.11,1a10.51,10.51,0,0,0-1.3-2.34c-1.83-2.44-5.49-3.8-8-2.09l1.2-.8a23.09,23.09,0,0,0-17.83-14,21.35,21.35,0,0,0-4.52-.15c-5.39-.28-13.18,1.29-16.47,3.38-4.2,2.66-8.5,6.31-10.61,10.82-1.13,2.43-1.9,5.24-4,6.86-2.86,2.16-6.87,1.32-10.44,1.72-5.88.67-11,5.18-13,10.75a21.43,21.43,0,0,0,1.64,17.17c.62,1.15,1.35,2.48.86,3.69a4.64,4.64,0,0,1-2.25,2,12.09,12.09,0,0,0-5.44,5.69c-1,2.49-.62,5.64,1.4,7.4a6.08,6.08,0,0,0,6.1.87,13.27,13.27,0,0,0-.93,4.73,9.9,9.9,0,0,0,4.91,8.79c3.13,1.63,7.51.77,9.35-2.24a12.3,12.3,0,0,0,19,10.38c1.48-1,3-2.32,4.75-2s2.74,2,3.94,3.22c3.2,3.33,8.66,3.71,12.87,1.82s7.31-5.67,9.54-9.71a7.44,7.44,0,0,0,13.27-1.86,12.44,12.44,0,0,0,22.27-7.06,10.22,10.22,0,0,0,6.63-16.31ZM371,274.91v-.06l.1-.05Z" fill="#263238"/>
      <path id="Path_12200" data-name="Path 12200" d="M434.44,300s12.81-2.12,15.46-18.83c1.32-8.31.9-21.93.2-33.06a17.65,17.65,0,0,0-19.46-16.45l-29,3.07a5.88,5.88,0,0,0-5.26,6l3.05,72.58c-2.11.45-6.9,1.49-9.25,2.17,0,0,22.42,50.11,27.91,49.53s27.43-48,27.43-48a114.623,114.623,0,0,0-11.62-2.85,138.218,138.218,0,0,1,.54-14.16Z" fill="#ffad9d"/>
      <path id="Path_12201" data-name="Path 12201" d="M443.62,257.21a2.14,2.14,0,0,1-2.06,2.16,2,2,0,0,1-2.21-1.93,2.14,2.14,0,0,1,2.06-2.16,2.05,2.05,0,0,1,2.21,1.93Z" fill="#263238"/>
      <path id="Path_12202" data-name="Path 12202" d="M447.15,255.23c-.27.28-1.89-.92-4.2-.91s-4,1.16-4.24.88c-.13-.13.14-.63.88-1.17A6,6,0,0,1,443,253a5.68,5.68,0,0,1,3.34,1.08C447,254.6,447.28,255.11,447.15,255.23Z" fill="#263238"/>
      <path id="Path_12203" data-name="Path 12203" d="M421.37,257.64a2.14,2.14,0,0,1-2.07,2.16,2,2,0,0,1-2.21-1.93,2.14,2.14,0,0,1,2.07-2.16,2.05,2.05,0,0,1,2.21,1.93Z" fill="#263238"/>
      <path id="Path_12204" data-name="Path 12204" d="M424.48,255.66c-.26.28-1.89-.92-4.19-.91s-4,1.16-4.25.88c-.12-.13.15-.63.89-1.17a5.94,5.94,0,0,1,3.4-1.05,5.7,5.7,0,0,1,3.34,1.08C424.37,255,424.61,255.54,424.48,255.66Z" fill="#263238"/>
      <path id="Path_12205" data-name="Path 12205" d="M432.85,272.76a15.1,15.1,0,0,1,3.75-.67c.58-.06,1.14-.18,1.24-.58a3,3,0,0,0-.39-1.75c-.56-1.42-1.13-2.92-1.74-4.48-2.42-6.38-4.17-11.63-3.91-11.73s2.42,5,4.84,11.39l1.67,4.51a3.36,3.36,0,0,1,.3,2.31,1.46,1.46,0,0,1-1,.86,4.422,4.422,0,0,1-1,.14,15.25,15.25,0,0,1-3.76,0Z" fill="#263238"/>
      <path id="Path_12206" data-name="Path 12206" d="M434.44,300a42.481,42.481,0,0,1-22.37-6s5.43,11.47,22.15,9.91Z" fill="#ed9482"/>
      <path id="Path_12207" data-name="Path 12207" d="M426.36,276.37a4.53,4.53,0,0,1,1.69-.73,1.49,1.49,0,0,1,1.57.74,3.719,3.719,0,0,0,.24.58c.34.46,1.05.29,1.59.45a1.68,1.68,0,0,1,.89,2.21,3.38,3.38,0,0,1-2,1.72,7.17,7.17,0,0,1-3.58.49,3,3,0,0,1-2.21-1.1,2.62,2.62,0,0,1,.17-2.86,7.63,7.63,0,0,1,2.29-2" fill="#ed9482"/>
      <path id="Path_12208" data-name="Path 12208" d="M426.07,274.36c.37,0,.38,2.48,2.52,4.25s4.8,1.5,4.82,1.85c0,.16-.59.49-1.72.52a6.24,6.24,0,0,1-4-1.4,5.46,5.46,0,0,1-2-3.57C425.62,275,425.9,274.34,426.07,274.36Z" fill="#263238"/>
      <path id="Path_12209" data-name="Path 12209" d="M425.52,251.63c-.23.62-2.53.33-5.23.65s-4.9,1.07-5.25.5c-.16-.26.22-.85,1.1-1.46a9.19,9.19,0,0,1,8-.88C425.12,250.84,425.62,251.33,425.52,251.63Z" fill="#263238"/>
      <path id="Path_12210" data-name="Path 12210" d="M446.3,250c-.41.53-2,0-3.91,0s-3.52.35-3.89-.2c-.17-.26.09-.79.79-1.28a5.66,5.66,0,0,1,6.29.19C446.26,249.23,446.48,249.77,446.3,250Z" fill="#263238"/>
      <path id="Path_12211" data-name="Path 12211" d="M440.33,229.22a22.66,22.66,0,0,1-27.42,17.37,21.53,21.53,0,0,1-12.69,16.9A45.86,45.86,0,0,1,405.61,291c-.49,4-1.66,8.27-4.7,11-4.64,4.16-12.46,3.15-16.92-1.19-4.28-4.17-5.79-10.69-4.58-16.54s4.88-11,9.49-14.76a10.59,10.59,0,0,1-5.46-18.16c1.31-1.24,3-2.16,4-3.67s1.16-3.19,1.73-4.8c1.49-4.21,5.25-7.12,8.83-9.8,3-2.26,6.36-4.62,10.14-4.61,2,0,4,.7,6,.43,2.75-.37,4.9-2.46,7.17-4a15.62,15.62,0,0,1,11-3c3.87.61,7.48,3.5,8.21,7.34" fill="#263238"/>
      <path id="Path_12212" data-name="Path 12212" d="M438.84,230.87c-.59,3.23,1,6.54,3.42,8.8a29.64,29.64,0,0,0,8.4,5,38.082,38.082,0,0,0-4.33-9,12.72,12.72,0,0,0-8.12-5.48" fill="#263238"/>
      <path id="Path_12213" data-name="Path 12213" d="M365.36,269.39a2.21,2.21,0,0,1-.09-1.05,4,4,0,0,1,1.5-2.58,6.64,6.64,0,0,1,4.56-1.24c1.87,0,3.94.62,6.23.48a7.88,7.88,0,0,0,6.08-3.77,8,8,0,0,0,1.14-3.93c.1-1.43,0-2.93.05-4.49a8.12,8.12,0,0,1,1.46-4.57,9.49,9.49,0,0,1,4-3c3.15-1.43,6.74-1.45,10.18-2.09a14.791,14.791,0,0,0,4.86-1.7,13,13,0,0,0,3.61-3.43c1.95-2.68,3.26-5.67,5.05-8.22a17.21,17.21,0,0,1,20.24-6.55,17,17,0,0,1,4.21,2.23,13.271,13.271,0,0,1,2.95,2.78,1.24,1.24,0,0,1-.2-.18l-.55-.55a19.062,19.062,0,0,0-2.31-1.88A17.51,17.51,0,0,0,428,222.56a17.18,17.18,0,0,0-13.63,7.52c-1.75,2.5-3.05,5.49-5,8.25a13.33,13.33,0,0,1-3.76,3.56,15,15,0,0,1-5,1.77c-3.52.65-7,.67-10.08,2a9.13,9.13,0,0,0-3.8,2.84,7.58,7.58,0,0,0-1.38,4.3c-.09,1.51,0,3-.07,4.49a8.53,8.53,0,0,1-1.23,4.13,8.22,8.22,0,0,1-6.42,3.9c-2.39.12-4.45-.5-6.28-.55a6.42,6.42,0,0,0-4.42,1.11,4,4,0,0,0-1.52,2.44,4.259,4.259,0,0,0-.05,1.07Z" fill="#fafafa"/>
      <path id="Path_12214" data-name="Path 12214" d="M390.2,346.58l1.06,26.64,2.68,25.5,28.33-1.21-2.04-50.35Z" fill="#263238"/>
      <path id="Path_12215" data-name="Path 12215" d="M386.04,346.49l1.06,26.73,2.68,25.5,28.33-1.21-2.04-50.43Z" fill="#455a64"/>
      <path id="Path_12216" data-name="Path 12216" d="M383.38,401.84a184.81,184.81,0,0,0,22.43-2.4c8.78-1.41,8.69-2.2,8.38-3.21-.84-2.7-15.54,1.88-12.9-.94s18.57-3.5,17.57-6.28c-1.29-3.63-16.6,1.45-17.92,1.78s-1.8-1.58-.59-1.82c1.74-.34,19.93-4.36,18.69-7.94-.68-2-4.11-.32-4.11-.32s-16.78,5-17.31,3.33,9.23-5,12.59-5.9,4.31-2.81,2.74-4c-1.07-.79-11.43,1.64-14.73,2.59s-12.34,3.69-8.9-1.31c.06-.08.1-.16.15-.24,3.53-4.82,4.64-9.71,4-11.35s-2.87-1.49-3.72,0a2.13,2.13,0,0,0-.34.8,1.979,1.979,0,0,1-.13.44,30,30,0,0,1-3,5.31,16,16,0,0,1-3.81,3.93c-1.71,1.25-6,5.83-7.35,6.64" fill="#ffad9d"/>
      <path id="Path_12217" data-name="Path 12217" d="M376.89,379.48l14.98,22.36-24.69,25.18.84-40.84Z" fill="#ff725e"/>
    </g>
  </g>
</svg>
