<svg xmlns="http://www.w3.org/2000/svg" xmlns:xlink="http://www.w3.org/1999/xlink" width="453.1" height="452.67" viewBox="0 0 453.1 452.67">
  <defs>
    <clipPath id="clip-path">
      <rect width="453.1" height="452.67" fill="none"/>
    </clipPath>
  </defs>
  <g id="Repeat_Grid_1" data-name="Repeat Grid 1" clip-path="url(#clip-path)">
    <g id="Group_8236" data-name="Group 8236" transform="translate(-26.3 -29.43)">
      <g id="freepik--background-complete--inject-13">
        <path id="Path_11797" data-name="Path 11797" d="M81.52,188.8a1.35,1.35,0,0,1,0-.24v-3.19c0-2.22,0-5.42-.08-9.44l.15.15-48.65.09.24-.24h0V188.8l-.24-.25,34.67.11,10.23.07h.11l-10.17.07-34.91.2h-.25V176h0l.25-.25,48.65.09h.15V176c0,4.06-.07,7.29-.08,9.53v3.13Q81.558,188.732,81.52,188.8Z" fill="#e0e0e0"/>
        <path id="Path_11798" data-name="Path 11798" d="M88.11,175.93v-3.51c0-2.26,0-5.45-.09-9.37l.17.18-29.23.07c-.22.22.3-.3.25-.24h0V175.9l-.24-.23,20.91.11,6.09.07h1.7L86,176l-6,.07-21.07.11H58.7V163.1h0l.25-.25,29.23.07h.18v.17c0,4-.07,7.19-.09,9.48v2.54a5,5,0,0,1-.16.82Z" fill="#e0e0e0"/>
        <path id="Path_11799" data-name="Path 11799" d="M228.85,72.58a1,1,0,0,1,0-.23v-3.2c0-2.22-.05-5.41-.09-9.44l.16.15L180.2,60c.11-.11-.25.25.24-.25h0V72.58l-.25-.24,34.67.11,10.24.07h3.75a1,1,0,0,1-.23,0h-3.41L215,72.71l-34.84.11H180V59.73h0l.26-.25,48.65.1H229v.15c0,4.07-.07,7.29-.09,9.53V72.4a1.231,1.231,0,0,1-.06.18Z" fill="#e0e0e0"/>
        <path id="Path_11800" data-name="Path 11800" d="M235.44,59.71V56.2c0-2.25-.06-5.44-.1-9.36l.18.18-29.23.07.25-.25h0V59.69l-.24-.24,20.91.12,6.09.06h2.23a3.28,3.28,0,0,1-.53,0h-1.59l-6,.06-21.2.31H206V46.86h0l.25-.25,29.23.07h.18v.18c0,4-.07,7.19-.1,9.47v2.54a6.655,6.655,0,0,1-.12.84Z" fill="#e0e0e0"/>
        <path id="Path_11801" data-name="Path 11801" d="M183.43,49.05v83.82H63.05L58.71,49.64Z" fill="#e0e0e0"/>
        <rect id="Rectangle_17515" data-name="Rectangle 17515" width="83.05" height="120.38" transform="translate(58.71 132.69) rotate(-90)" fill="#fff"/>
        <path id="Path_11802" data-name="Path 11802" d="M179.67,133.26H58.14V49.06H179.67ZM59.28,132.12H178.53V50.21H59.28Z" fill="#e0e0e0"/>
        <rect id="Rectangle_17516" data-name="Rectangle 17516" width="94.31" height="62.42" transform="translate(71.75 59.95)" fill="#fff"/>
        <path id="Path_11803" data-name="Path 11803" d="M166.06,60a4.24,4.24,0,0,1-.47,0h-6.52l-19.43.07-67.89.14L72,60v62.41h0l-.3-.3,94.31.06-.24.24c.05-19,.1-34.57.13-45.41,0-5.42,0-9.66.06-12.56v-.09c0,2.89,0,7.1.06,12.5,0,10.88.07,26.5.12,45.56v.24h-.24l-94.31.06h-.3v-.3h0V59.73h.27l68.07.14,19.37.07h6.43Z" fill="#e0e0e0"/>
        <path id="Path_11804" data-name="Path 11804" d="M58.71,49.4a10.29,10.29,0,0,1,2.07,1.34c1.23.89,2.91,2.15,4.72,3.6s3.4,2.82,4.53,3.85A10.06,10.06,0,0,1,71.75,60c-.11.13-3-2.26-6.62-5.14S58.61,49.54,58.71,49.4Z" fill="#e0e0e0"/>
        <path id="Path_11805" data-name="Path 11805" d="M179.1,49.64A60.52,60.52,0,0,1,172.76,55a57.881,57.881,0,0,1-6.7,4.92,59.721,59.721,0,0,1,6.33-5.39A60.227,60.227,0,0,1,179.1,49.64Z" fill="#e0e0e0"/>
        <path id="Path_11806" data-name="Path 11806" d="M179,132.7l-13.42-10.88" fill="#fff"/>
        <path id="Path_11807" data-name="Path 11807" d="M165.58,121.82a65.781,65.781,0,0,1,6.9,5.21A64.512,64.512,0,0,1,179,132.7a62.55,62.55,0,0,1-6.9-5.21C168.4,124.49,165.47,122,165.58,121.82Z" fill="#e0e0e0"/>
        <path id="Path_11808" data-name="Path 11808" d="M58.71,132.69A57.778,57.778,0,0,1,65,127.35a56.471,56.471,0,0,1,6.64-4.87,57.782,57.782,0,0,1-6.27,5.34A56.469,56.469,0,0,1,58.71,132.69Z" fill="#e0e0e0"/>
        <rect id="Rectangle_17517" data-name="Rectangle 17517" width="20.9" height="59.34" transform="translate(90.9 100.3) rotate(-90)" fill="#e0e0e0"/>
        <path id="Path_11809" data-name="Path 11809" d="M302.04,442.18v38.27H419.72V442.18Z" fill="#f5f5f5"/>
        <path id="Path_11810" data-name="Path 11810" d="M297.1,431.48v10.7H423.83v-10.7H297.1Z" fill="#e0e0e0"/>
        <path id="Path_11811" data-name="Path 11811" d="M360.47,480.45h59.25V442.18h4.11v-10.7H358v9.71Z" fill="#e0e0e0"/>
        <rect id="Rectangle_17518" data-name="Rectangle 17518" width="23.87" height="5.76" transform="translate(318.5 448.35)" fill="#e0e0e0"/>
        <rect id="Rectangle_17519" data-name="Rectangle 17519" width="30.64" height="12.16" transform="translate(315.43 461.31)" fill="#fff"/>
        <rect id="Rectangle_17520" data-name="Rectangle 17520" width="48.65" height="12.87" transform="translate(195.01 222.46)" fill="#ebebeb"/>
        <path id="Path_11812" data-name="Path 11812" d="M223.09,248.89a1.351,1.351,0,0,1,0-.24v-3.18c0-2.22-.05-5.42-.08-9.44l.15.15-48.65.09.24-.24h0v12.85l-.24-.24,34.67.11,10.23.06h.11l-10.17.07-34.84.11h-.25V236h0l.25-.25,48.65.1h.15V236c0,4.06-.06,7.29-.08,9.53v3.13a1.659,1.659,0,0,1-.14.23Z" fill="#e0e0e0"/>
        <rect id="Rectangle_17521" data-name="Rectangle 17521" width="48.65" height="12.87" transform="translate(430.75 145.7)" fill="#ebebeb"/>
        <path id="Path_11813" data-name="Path 11813" d="M458.83,172.13V168.7c0-2.22-.05-5.42-.08-9.44l.15.15-48.65.09.25-.24h0v12.87l-.24-.25,34.67.11,10.23.07h.12l-10.18.07-34.84.11h-.24V159.13h0l.25-.25,48.65.09H459v.16c0,4.06-.06,7.29-.08,9.53v3.13a.85.85,0,0,1-.09.34Z" fill="#e0e0e0"/>
      </g>
      <g id="freepik--Floor--inject-13">
        <path id="Path_11814" data-name="Path 11814" d="M473.7,481.69c0,.14-100.16.26-223.69.26s-223.71-.12-223.71-.26,100.14-.26,223.71-.26S473.7,481.54,473.7,481.69Z" fill="#263238"/>
      </g>
      <g id="freepik--Device--inject-13">
        <rect id="Rectangle_17522" data-name="Rectangle 17522" width="195.56" height="387.26" rx="25.34" transform="translate(256.59 29.43)" fill="#455a64"/>
        <rect id="Rectangle_17523" data-name="Rectangle 17523" width="381.1" height="189.4" rx="22.23" transform="translate(449.07 32.52) rotate(90)" fill="#263238"/>
        <path id="Path_11815" data-name="Path 11815" d="M340.33,44.72a2.18,2.18,0,1,1,0-4.35h28a2.18,2.18,0,0,1,0,4.35Z" fill="#455a64"/>
        <path id="Path_11816" data-name="Path 11816" d="M325.33,44.72a2.18,2.18,0,1,1,2.18-2.18A2.18,2.18,0,0,1,325.33,44.72Z" fill="#455a64"/>
        <path id="Path_11817" data-name="Path 11817" d="M333.34,44.72a2.18,2.18,0,1,1,2.17-2.18A2.18,2.18,0,0,1,333.34,44.72Z" fill="#455a64"/>
        <path id="Path_11818" data-name="Path 11818" d="M383.42,44.72a2.18,2.18,0,1,1,2.17-2.18A2.18,2.18,0,0,1,383.42,44.72Z" fill="#455a64"/>
        <path id="Path_11819" data-name="Path 11819" d="M375.41,44.72a2.18,2.18,0,1,1,2.18-2.18A2.18,2.18,0,0,1,375.41,44.72Z" fill="#455a64"/>
        <path id="Path_11820" data-name="Path 11820" d="M427.86,34.71H400.4a9.78,9.78,0,0,0-9.38,7l-.47,1.6a10.46,10.46,0,0,1-10,7.55H328.24a10.47,10.47,0,0,1-10.05-7.55l-.46-1.6a9.78,9.78,0,0,0-9.39-7H283.43a19.35,19.35,0,0,0-19.35,19.35v335.8a18.2,18.2,0,0,0,18.2,18.2H428.19a16.47,16.47,0,0,0,16.48-16.47V51.52a16.82,16.82,0,0,0-16.81-16.81Z" fill="#fff"/>
        <path id="Path_11821" data-name="Path 11821" d="M453.22,113.6h.22v44.51h-.22a1.07,1.07,0,0,1-1.07-1.07V114.67a1.07,1.07,0,0,1,1.07-1.07Z" transform="translate(905.58 271.71) rotate(180)" fill="#455a64"/>
        <path id="Path_11822" data-name="Path 11822" d="M256.33,141h.26v28.18h-.26a1.07,1.07,0,0,1-1.07-1.07v-26a1.07,1.07,0,0,1,1.07-1.11Z" fill="#455a64"/>
        <path id="Path_11823" data-name="Path 11823" d="M256.33,104.21h.26v28.18h-.26a1.07,1.07,0,0,1-1.07-1.07v-26a1.07,1.07,0,0,1,1.07-1.11Z" fill="#455a64"/>
        <path id="Path_11824" data-name="Path 11824" d="M256.4,76.58h.2v13.1h-.2a.95.95,0,0,1-.95-.95V77.53a.95.95,0,0,1,.95-.95Z" fill="#455a64"/>
        <rect id="Rectangle_17524" data-name="Rectangle 17524" width="1.34" height="1.88" transform="translate(400.83 47.72)" fill="#263238"/>
        <rect id="Rectangle_17525" data-name="Rectangle 17525" width="1.34" height="2.72" transform="translate(403.01 46.88)" fill="#263238"/>
        <rect id="Rectangle_17526" data-name="Rectangle 17526" width="1.34" height="3.35" transform="translate(405.2 46.26)" fill="#263238"/>
        <rect id="Rectangle_17527" data-name="Rectangle 17527" width="1.34" height="4.57" transform="translate(407.39 45.04)" fill="#263238"/>
        <path id="Path_11825" data-name="Path 11825" d="M428.56,49.7h-6.74a.49.49,0,0,1-.49-.48V45.87a.49.49,0,0,1,.48-.49h6.75a.18.18,0,0,1,.09,0,.12.12,0,0,1,0,.09v1.1h.72a.13.13,0,0,1,.13.12v1.62a.12.12,0,0,1-.13.12h-.72v1.11a.12.12,0,0,1-.09.16Zm-.12-4.07h-6.63a.23.23,0,0,0-.23.24v3.35a.23.23,0,0,0,.24.23h6.62v-1.1a.12.12,0,0,1,.12-.12h.72V46.86h-.72a.12.12,0,0,1-.12-.13Z" fill="#263238"/>
        <path id="Path_11826" data-name="Path 11826" d="M422.13,48.9V46.18h5.76V48.9Z" fill="#263238"/>
        <path id="Path_11827" data-name="Path 11827" d="M415.16,49.44a.5.5,0,1,0-.49.5.49.49,0,0,0,.49-.5Z" fill="#263238"/>
        <path id="Path_11828" data-name="Path 11828" d="M413,48.26l.63.62a1.54,1.54,0,0,1,1.06-.43,1.52,1.52,0,0,1,1.05.43l.63-.62a2.38,2.38,0,0,0-3.37,0Z" fill="#263238"/>
        <path id="Path_11829" data-name="Path 11829" d="M414.67,46.16A3.76,3.76,0,0,0,412,47.27l.63.62a2.91,2.91,0,0,1,4.09,0l.63-.62a3.76,3.76,0,0,0-2.68-1.11Z" fill="#263238"/>
        <path id="Path_11830" data-name="Path 11830" d="M411,46.24l.63.63a4.33,4.33,0,0,1,6.13,0l.63-.63a5.23,5.23,0,0,0-7.39,0Z" fill="#263238"/>
        <path id="Path_11831" data-name="Path 11831" d="M338.42,73.08v2.19h3.84v1.55h-3.84v3H336.5v-8.3h6.27v1.54Z" fill="#263238"/>
        <path id="Path_11832" data-name="Path 11832" d="M345,79.51a3.21,3.21,0,0,1-1.26-1.16,3.44,3.44,0,0,1,0-3.4A3.21,3.21,0,0,1,345,73.79a4.09,4.09,0,0,1,3.61,0A3.15,3.15,0,0,1,349.86,75a3.44,3.44,0,0,1,0,3.4,3.15,3.15,0,0,1-1.24,1.16,4,4,0,0,1-3.61,0Zm3-1.57a2,2,0,0,0,0-2.58,1.52,1.52,0,0,0-1.16-.48,1.57,1.57,0,0,0-1.18.48,2,2,0,0,0,0,2.58,1.57,1.57,0,0,0,1.18.48,1.52,1.52,0,0,0,1.16-.48Z" fill="#263238"/>
        <path id="Path_11833" data-name="Path 11833" d="M352.77,79.51a3.18,3.18,0,0,1-1.25-1.16,3.44,3.44,0,0,1,0-3.4,3.18,3.18,0,0,1,1.25-1.16,3.86,3.86,0,0,1,1.81-.42,3.81,3.81,0,0,1,1.81.42A3.15,3.15,0,0,1,357.63,75a3.44,3.44,0,0,1,0,3.4,3.15,3.15,0,0,1-1.24,1.16,3.7,3.7,0,0,1-1.81.43,3.75,3.75,0,0,1-1.81-.48Zm3-1.57a2,2,0,0,0,0-2.58,1.53,1.53,0,0,0-1.17-.48,1.56,1.56,0,0,0-1.17.48,2,2,0,0,0,0,2.58,1.56,1.56,0,0,0,1.17.48,1.53,1.53,0,0,0,1.15-.48Z" fill="#263238"/>
        <path id="Path_11834" data-name="Path 11834" d="M365.81,71v8.8h-1.76v-.73a2.47,2.47,0,0,1-2,.83,3.32,3.32,0,0,1-1.63-.41,2.93,2.93,0,0,1-1.14-1.15,3.77,3.77,0,0,1,0-3.46,2.93,2.93,0,0,1,1.14-1.15,3.31,3.31,0,0,1,1.63-.4,2.39,2.39,0,0,1,1.91.77V71Zm-2.27,6.9a2,2,0,0,0,0-2.58,1.67,1.67,0,0,0-2.34,0,2,2,0,0,0,0,2.58,1.67,1.67,0,0,0,2.34,0Z" fill="#263238"/>
        <rect id="Rectangle_17528" data-name="Rectangle 17528" width="161.46" height="41.68" transform="translate(272.95 289.2)" fill="#e0e0e0"/>
        <path id="Path_11835" data-name="Path 11835" d="M285.51,308.15h-2.66v-1.56h7.24v1.56h-2.66v6.74h-1.92Z" fill="#263238"/>
        <path id="Path_11836" data-name="Path 11836" d="M292.69,314.47a4.12,4.12,0,0,1-1.62-1.53,4.24,4.24,0,0,1-.59-2.2,4.19,4.19,0,0,1,.59-2.2,4.07,4.07,0,0,1,1.62-1.54,5.13,5.13,0,0,1,4.66,0,4.28,4.28,0,0,1,1.62,5.94,4.19,4.19,0,0,1-1.62,1.53A5.13,5.13,0,0,1,292.69,314.47Zm3.66-1.41a2.361,2.361,0,0,0,.93-.95,3,3,0,0,0,0-2.75,2.34,2.34,0,0,0-.93-.94,2.77,2.77,0,0,0-2.66,0,2.47,2.47,0,0,0-.93.94,3,3,0,0,0,0,2.75,2.5,2.5,0,0,0,.93.95A2.85,2.85,0,0,0,296.35,313.06Z" fill="#263238"/>
        <path id="Path_11837" data-name="Path 11837" d="M302.61,308.15H300v-1.56h7.23v1.56h-2.66v6.74h-1.92Z" fill="#263238"/>
        <path id="Path_11838" data-name="Path 11838" d="M313.28,313.11h-3.86l-.73,1.78h-2l3.7-8.3h1.9l3.71,8.3h-2Zm-.61-1.46-1.32-3.18L310,311.65Z" fill="#263238"/>
        <path id="Path_11839" data-name="Path 11839" d="M316.89,306.59h1.93v6.73H323v1.57h-6.09Z" fill="#263238"/>
        <path id="Path_11840" data-name="Path 11840" d="M324,310.39a1.13,1.13,0,0,1-.33-.83,1.08,1.08,0,0,1,.33-.82,1.17,1.17,0,0,1,.82-.32,1.14,1.14,0,0,1,.82.32,1.08,1.08,0,0,1,.33.82,1.13,1.13,0,0,1-.33.83,1.11,1.11,0,0,1-.82.33A1.14,1.14,0,0,1,324,310.39Zm0,4.26a1.13,1.13,0,0,1-.33-.83A1.08,1.08,0,0,1,324,313a1.17,1.17,0,0,1,.82-.32,1.14,1.14,0,0,1,.82.32,1.08,1.08,0,0,1,.33.82,1.13,1.13,0,0,1-.33.83,1.11,1.11,0,0,1-.82.33,1.14,1.14,0,0,1-.82-.33Z" fill="#263238"/>
        <path id="Path_11841" data-name="Path 11841" d="M404.84,313.49a3.43,3.43,0,0,1-2,.86v1.33H401.6v-1.29a6.581,6.581,0,0,1-1.67-.31,4.13,4.13,0,0,1-1.28-.64l.65-1.45a4.239,4.239,0,0,0,1.06.56,4.77,4.77,0,0,0,1.24.29v-2a8.239,8.239,0,0,1-1.42-.45,2.42,2.42,0,0,1-1-.73,1.9,1.9,0,0,1-.4-1.27,2.28,2.28,0,0,1,.72-1.69,3.4,3.4,0,0,1,2.07-.86v-1.32h1.19v1.3a5.11,5.11,0,0,1,2.4.72L404.6,308a4.7,4.7,0,0,0-1.81-.62v2a8.078,8.078,0,0,1,1.4.43,2.4,2.4,0,0,1,1,.72,2,2,0,0,1,.39,1.27,2.25,2.25,0,0,1-.74,1.69Zm-3.89-4.7a1.87,1.87,0,0,0,.65.32v-1.68a1.28,1.28,0,0,0-.66.33.76.76,0,0,0-.22.54.62.62,0,0,0,.28.49Zm2.48,3.69a.69.69,0,0,0,.21-.51.61.61,0,0,0-.22-.49,2.15,2.15,0,0,0-.63-.33v1.64a1.37,1.37,0,0,0,.64-.31Z" fill="#263238"/>
        <path id="Path_11842" data-name="Path 11842" d="M412.41,313.49a3.43,3.43,0,0,1-2.06.86v1.33h-1.18v-1.29a6.5,6.5,0,0,1-1.67-.31,4.311,4.311,0,0,1-1.29-.64l.66-1.45a4.35,4.35,0,0,0,1.05.56,4.941,4.941,0,0,0,1.25.29v-2a8.37,8.37,0,0,1-1.43-.45,2.49,2.49,0,0,1-1-.73,2,2,0,0,1-.39-1.27,2.28,2.28,0,0,1,.72-1.69,3.4,3.4,0,0,1,2.07-.86v-1.32h1.18v1.3a5.12,5.12,0,0,1,2.41.72l-.59,1.46a4.691,4.691,0,0,0-1.82-.62v2a7.941,7.941,0,0,1,1.41.43,2.539,2.539,0,0,1,1,.72,2,2,0,0,1,.39,1.27,2.25,2.25,0,0,1-.71,1.69Zm-3.89-4.7a1.79,1.79,0,0,0,.65.32v-1.68a1.36,1.36,0,0,0-.67.33.8.8,0,0,0-.21.54.59.59,0,0,0,.23.49Zm2.47,3.69a.67.67,0,0,0,.22-.51.64.64,0,0,0-.22-.49,2.22,2.22,0,0,0-.64-.33v1.64a1.32,1.32,0,0,0,.65-.31Z" fill="#263238"/>
        <path id="Path_11843" data-name="Path 11843" d="M420,313.49a3.4,3.4,0,0,1-2.05.86v1.33h-1.19v-1.29a6.579,6.579,0,0,1-1.67-.31,4.25,4.25,0,0,1-1.28-.64l.65-1.45a4.432,4.432,0,0,0,1.06.56,4.861,4.861,0,0,0,1.24.29v-2a8.242,8.242,0,0,1-1.42-.45,2.42,2.42,0,0,1-1-.73,2,2,0,0,1-.39-1.27,2.28,2.28,0,0,1,.72-1.69,3.35,3.35,0,0,1,2.06-.86v-1.32h1.19v1.3a5.15,5.15,0,0,1,2.41.72l-.59,1.46a4.75,4.75,0,0,0-1.82-.62v2a8.5,8.5,0,0,1,1.41.43,2.44,2.44,0,0,1,1,.72,2,2,0,0,1,.39,1.27,2.22,2.22,0,0,1-.72,1.69Zm-3.89-4.7a1.87,1.87,0,0,0,.65.32v-1.68a1.28,1.28,0,0,0-.66.33.8.8,0,0,0-.21.54.61.61,0,0,0,.19.49Zm2.48,3.69a.7.7,0,0,0,.22-.51.64.64,0,0,0-.22-.49,2.219,2.219,0,0,0-.64-.33v1.64a1.32,1.32,0,0,0,.61-.31Z" fill="#263238"/>
        <path id="Path_11844" data-name="Path 11844" d="M435.23,91.16c0,.14-37.12.26-82.9.26s-82.9-.12-82.9-.26,37.11-.27,82.9-.27S435.23,91,435.23,91.16Z" fill="#263238"/>
        <path id="Path_11845" data-name="Path 11845" d="M401.38,384.18H307.24a19.66,19.66,0,0,1-19.66-19.66h0a19.67,19.67,0,0,1,19.66-19.67h94.14a19.67,19.67,0,0,1,19.67,19.67h0A19.67,19.67,0,0,1,401.38,384.18Z" fill="#c53f3f"/>
        <path id="Path_11846" data-name="Path 11846" d="M332.54,369.87a4.23,4.23,0,0,1,0-7.47,4.86,4.86,0,0,1,2.33-.55,4.789,4.789,0,0,1,2.32.55,4.226,4.226,0,0,1,0,7.47,4.69,4.69,0,0,1-2.32.56A4.75,4.75,0,0,1,332.54,369.87Zm3.66-1.41a2.5,2.5,0,0,0,.93-.95,2.7,2.7,0,0,0,.34-1.37,2.74,2.74,0,0,0-.34-1.38,2.54,2.54,0,0,0-.93-.94,2.77,2.77,0,0,0-2.66,0,2.54,2.54,0,0,0-.93.94,2.85,2.85,0,0,0-.34,1.38,2.81,2.81,0,0,0,.34,1.37,2.5,2.5,0,0,0,.93.95,2.77,2.77,0,0,0,2.66,0Z" fill="#fff"/>
        <path id="Path_11847" data-name="Path 11847" d="M346.15,370.29l-1.6-2.31h-1.77v2.31h-1.92V362h3.59a4.7,4.7,0,0,1,1.92.36,2.77,2.77,0,0,1,1.69,2.65,2.71,2.71,0,0,1-1.71,2.62l1.86,2.67Zm-.49-6.36a2,2,0,0,0-1.31-.38h-1.57v2.9h1.57a2,2,0,0,0,1.31-.38,1.33,1.33,0,0,0,.45-1.07,1.31,1.31,0,0,0-.45-1.07Z" fill="#fff"/>
        <path id="Path_11848" data-name="Path 11848" d="M349.58,362h3.77a5.35,5.35,0,0,1,2.39.51,3.87,3.87,0,0,1,1.61,1.46,4.39,4.39,0,0,1,0,4.36,3.78,3.78,0,0,1-1.61,1.45,5.22,5.22,0,0,1-2.39.52h-3.77Zm3.67,6.72a2.8,2.8,0,0,0,2-.69,2.76,2.76,0,0,0,0-3.76,2.81,2.81,0,0,0-2-.7H351.5v5.15Z" fill="#fff"/>
        <path id="Path_11849" data-name="Path 11849" d="M365.8,368.75v1.54h-6.43V362h6.28v1.54h-4.37v1.8h3.86v1.5h-3.86v1.92Z" fill="#fff"/>
        <path id="Path_11850" data-name="Path 11850" d="M372.62,370.29,371,368h-1.77v2.31h-1.92V362h3.59a4.7,4.7,0,0,1,1.92.36,2.85,2.85,0,0,1,0,5.27l1.86,2.67Zm-.49-6.36a2,2,0,0,0-1.31-.38h-1.57v2.9h1.57a2,2,0,0,0,1.31-.38,1.33,1.33,0,0,0,.45-1.07,1.31,1.31,0,0,0-.45-1.07Z" fill="#fff"/>
        <rect id="Rectangle_17529" data-name="Rectangle 17529" width="56.05" height="54.91" transform="translate(271.91 98.12)" fill="#ebebeb"/>
        <path id="Path_11851" data-name="Path 11851" d="M271.91,98.12h12.21l34.1-.08,117.2-.11h.25v55.15h0v.26h-.26l-163.55-.09h-.17V153c0-17.24.07-31,.1-40.42v.14c0,9.42.06,23.12.1,40.32l-.18-.18,163.55-.08-.26.26h0V98.12l.26.25-117-.11-34.17-.08H272.55Z" fill="#263238"/>
        <path id="Path_11852" data-name="Path 11852" d="M312.24,124.62l-1.82,8.93,5.93-.13Z" fill="#ff725e"/>
        <g id="Group_8227" data-name="Group 8227" opacity="0.3">
          <path id="Path_11853" data-name="Path 11853" d="M312.24,124.62l-1.82,8.93,5.93-.13Z"/>
        </g>
        <path id="Path_11854" data-name="Path 11854" d="M286.82,124.91l1.82,8.93-5.93-.14Z" fill="#ff725e"/>
        <g id="Group_8228" data-name="Group 8228" opacity="0.3">
          <path id="Path_11855" data-name="Path 11855" d="M286.82,124.91l1.82,8.93-5.93-.14Z"/>
        </g>
        <path id="Path_11856" data-name="Path 11856" d="M302,126.56h0a.75.75,0,0,1-.75-.71l-.86-20.92a.74.74,0,0,1,.75-.78h1a.75.75,0,0,1,.75.75l-.18,20.92a.75.75,0,0,1-.71.74Z" fill="#844031"/>
        <rect id="Rectangle_17530" data-name="Rectangle 17530" width="2.47" height="1.82" transform="translate(300.48 106.82)" fill="#ff725e"/>
        <path id="Path_11857" data-name="Path 11857" d="M303.7,126.64h0a.74.74,0,0,1-.45-.93l6.37-19.94a.74.74,0,0,1,1-.48l1,.36a.75.75,0,0,1,.44,1l-7.35,19.58a.74.74,0,0,1-1.01.41Z" fill="#844031"/>
        <rect id="Rectangle_17531" data-name="Rectangle 17531" width="1.82" height="2.47" transform="translate(308.4 109.269) rotate(-69.92)" fill="#ff725e"/>
        <path id="Path_11858" data-name="Path 11858" d="M310.82,121.33a4.93,4.93,0,0,0-3.44-2.18,7,7,0,0,0-4,.71c-1,.46-2,1.09-3,.88a5.82,5.82,0,0,1-2-1.12,7,7,0,0,0-5.33-1.08,7.66,7.66,0,0,0-4.62,3.19,5.11,5.11,0,0,0-.9,4.21l23.62-.09a5.08,5.08,0,0,0-.33-4.52Z" fill="#fff"/>
        <path id="Path_11859" data-name="Path 11859" d="M310.19,125.32a5,5,0,0,0,0-1.16,4.3,4.3,0,0,0-1.33-2.79,3.37,3.37,0,0,0-1.95-.85,5.46,5.46,0,0,0-2.45.34c-.83.28-1.61.82-2.53,1.19a3.57,3.57,0,0,1-1.5.27,4,4,0,0,1-1.5-.41c-.95-.45-1.75-1.08-2.61-1.52a5,5,0,0,0-2.65-.59,5.36,5.36,0,0,0-4,2.18,7,7,0,0,0-1.25,2.89c-.07.37-.09.66-.11.86a1.161,1.161,0,0,1,0,.3,4.929,4.929,0,0,1,.06-1.17,6.829,6.829,0,0,1,1.21-3,5.49,5.49,0,0,1,4.08-2.28,5.26,5.26,0,0,1,2.76.6c.88.45,1.68,1.07,2.6,1.51a3.28,3.28,0,0,0,2.83.14c.89-.36,1.68-.89,2.55-1.18a5.64,5.64,0,0,1,2.53-.34,3.64,3.64,0,0,1,2,.92,4.27,4.27,0,0,1,1.31,2.89,3.17,3.17,0,0,1-.05,1.2Z" fill="#263238"/>
        <path id="Path_11860" data-name="Path 11860" d="M309.07,125.6a6.743,6.743,0,0,0,0-1,3.17,3.17,0,0,0-1.3-2.33,2.54,2.54,0,0,0-1.78-.43,5.42,5.42,0,0,0-2,.85,8.651,8.651,0,0,1-2.21,1.12,4.2,4.2,0,0,1-2.65-.26c-1.7-.67-3.07-1.81-4.6-2.11a4,4,0,0,0-3.72,1.18,5.18,5.18,0,0,0-1.27,2.43c-.14.64-.12,1-.15,1a4.209,4.209,0,0,1,.07-1,5,5,0,0,1,1.25-2.51,4.11,4.11,0,0,1,3.86-1.27c1.59.31,3,1.46,4.64,2.11a4.08,4.08,0,0,0,2.52.25,8.57,8.57,0,0,0,2.16-1.08,5.54,5.54,0,0,1,2.07-.86,2.6,2.6,0,0,1,1.89.48,3.23,3.23,0,0,1,1.3,2.45,2.669,2.669,0,0,1-.08.98Z" fill="#263238"/>
        <path id="Path_11861" data-name="Path 11861" d="M307.61,125.61a1.7,1.7,0,0,0-.13-.79,1.67,1.67,0,0,0-.6-.69,1.73,1.73,0,0,0-1.19-.18c-.94.14-1.77,1-3,1.41a5.6,5.6,0,0,1-4-.54,21.738,21.738,0,0,0-3.72-1.59,3.82,3.82,0,0,0-3.12.41,3.22,3.22,0,0,0-1.25,1.75,4.9,4.9,0,0,0-.12.8,2.061,2.061,0,0,1,0-.82,3.2,3.2,0,0,1,1.25-1.85,3.89,3.89,0,0,1,3.25-.47,20.069,20.069,0,0,1,3.75,1.58,5.48,5.48,0,0,0,3.86.55c1.15-.39,2-1.25,3-1.37a1.79,1.79,0,0,1,1.27.22,1.72,1.72,0,0,1,.62.76,1.23,1.23,0,0,1,.09.61A.709.709,0,0,1,307.61,125.61Z" fill="#263238"/>
        <path id="Path_11862" data-name="Path 11862" d="M286.78,124.83c0,.61,4.34,22.9,4.34,22.9l17-.28,4.1-22.83Z" fill="#c53f3f"/>
        <path id="Path_11863" data-name="Path 11863" d="M286.78,124.83h1.91l5.34-.07,18.21-.2h.16l-.07.15-2.63,5.23q-1.14,2.25-2.21,4.39v.05H291.56l-4.68-9.45,4.82,9.38-.07-.05h15.86l-.09.05,2.21-4.38c.9-1.79,1.78-3.55,2.63-5.23l.1.15Z" fill="#263238"/>
        <g id="Group_8229" data-name="Group 8229" opacity="0.3">
          <path id="Path_11864" data-name="Path 11864" d="M291.99,134.24l.43.93h15.43l3.98-9.75-4.44,8.82Z"/>
        </g>
        <path id="Path_11865" data-name="Path 11865" d="M303,143.62a41.511,41.511,0,0,1-6,0,45.653,45.653,0,0,1,6,0Z" fill="#fff"/>
        <path id="Path_11866" data-name="Path 11866" d="M301.91,140.07a1.663,1.663,0,0,0-.1-.47,1.9,1.9,0,1,0-2.51,2.23,1.87,1.87,0,0,0,1.79-.25,1.93,1.93,0,0,0,.72-1c.08-.29.08-.47.1-.47a1.32,1.32,0,0,1,0,.49,2,2,0,0,1-2.65,1.45,2.05,2.05,0,0,1,0-3.88,2,2,0,0,1,1.94.32,1.92,1.92,0,0,1,.71,1.13,1.31,1.31,0,0,1,0,.45Z" fill="#fff"/>
        <path id="Path_11867" data-name="Path 11867" d="M292,116.94a.69.69,0,0,0,.44-.44,1,1,0,0,0,0-.73,3.4,3.4,0,0,0-.56-.84,2.9,2.9,0,0,1,.39-4c.4-.37.89-.74.95-1.29a1.93,1.93,0,0,0-.68-1.43,5.45,5.45,0,0,1-1-1.28,3.37,3.37,0,0,1-.11-2.7,3.27,3.27,0,0,1,1.13-1.44,2,2,0,0,1,.6-.32,3.949,3.949,0,0,0-.55.38,3.32,3.32,0,0,0-1,1.43,3.25,3.25,0,0,0,.14,2.56,5.749,5.749,0,0,0,1,1.24,2.07,2.07,0,0,1,.74,1.58,2.52,2.52,0,0,1-1,1.42,2.74,2.74,0,0,0-.42,3.76,3.36,3.36,0,0,1,.56.89,1.09,1.09,0,0,1,0,.8C292.36,117,292,117,292,116.94Z" fill="#263238"/>
        <path id="Path_11868" data-name="Path 11868" d="M294.67,116.94a.69.69,0,0,0,.44-.44,1,1,0,0,0,0-.73,3.4,3.4,0,0,0-.56-.84,2.9,2.9,0,0,1,.39-4c.4-.37.89-.74.95-1.29a1.93,1.93,0,0,0-.68-1.43,5.45,5.45,0,0,1-1-1.28,3.37,3.37,0,0,1-.11-2.7,3.27,3.27,0,0,1,1.13-1.44,2,2,0,0,1,.6-.32,3.419,3.419,0,0,0-1.55,1.81,3.21,3.21,0,0,0,.14,2.56,5.751,5.751,0,0,0,1,1.24,2.07,2.07,0,0,1,.74,1.58,2.52,2.52,0,0,1-1,1.42,2.78,2.78,0,0,0-.85,1.27,2.73,2.73,0,0,0,.43,2.49,3.359,3.359,0,0,1,.56.89,1.09,1.09,0,0,1,0,.8C295,117,294.64,117,294.67,116.94Z" fill="#263238"/>
        <rect id="Rectangle_17532" data-name="Rectangle 17532" width="32.45" height="4.42" transform="translate(338.83 107.97)" fill="#c53f3f"/>
        <rect id="Rectangle_17533" data-name="Rectangle 17533" width="85.59" height="2.83" transform="translate(338.83 118.87)" fill="#e0e0e0"/>
        <rect id="Rectangle_17534" data-name="Rectangle 17534" width="85.59" height="2.83" transform="translate(338.83 124.54)" fill="#e0e0e0"/>
        <path id="Path_11869" data-name="Path 11869" d="M401.67,141.25h-1.62v1.59h-1.2v-1.59h-1.62v-1.13h1.62v-1.58h1.2v1.58h1.62Z" fill="#ff725e"/>
        <path id="Path_11870" data-name="Path 11870" d="M412.73,142.72v1.22h-4.92v-1l2.51-2.38a2.5,2.5,0,0,0,.54-.65,1.28,1.28,0,0,0,.14-.55.72.72,0,0,0-.27-.6,1.2,1.2,0,0,0-.77-.21,1.71,1.71,0,0,0-.77.17,1.42,1.42,0,0,0-.58.48l-1.1-.7a2.49,2.49,0,0,1,1.05-.89,3.45,3.45,0,0,1,1.54-.32,3.34,3.34,0,0,1,1.27.23,2,2,0,0,1,.84.67,1.69,1.69,0,0,1,.31,1,2.26,2.26,0,0,1-.23,1,3.649,3.649,0,0,1-.86,1.06l-1.5,1.42Z" fill="#ff725e"/>
        <path id="Path_11871" data-name="Path 11871" d="M418.74,140.74h2.64v1.17h-2.64Z" fill="#ff725e"/>
        <path id="Path_11872" data-name="Path 11872" d="M424.42,148.22v-1.1c0-.75,0-1.77-.05-3.07,0-2.68-.06-6.47-.1-11.14l.19.19-32.33.07.26-.26h0v15.3l-.25-.25,23.15.12,6.73.06h2.45a4,4,0,0,1-.58,0h-1.76l-6.67.06-23.32.12h-.25V132.78h0l.26-.26,32.33.07h.19v.19c0,4.72-.07,8.55-.1,11.25,0,1.28,0,2.3-.05,3v.78a.67.67,0,0,1-.1.41Z" fill="#263238"/>
        <path id="Path_11873" data-name="Path 11873" d="M345.36,143.33a3.43,3.43,0,0,1-2.05.86v1.33h-1.19v-1.29a6.5,6.5,0,0,1-1.67-.31,4.131,4.131,0,0,1-1.28-.64l.65-1.45a4.35,4.35,0,0,0,1.05.56,4.92,4.92,0,0,0,1.25.28v-2a8,8,0,0,1-1.42-.45,2.46,2.46,0,0,1-1-.73,2,2,0,0,1-.39-1.27,2.28,2.28,0,0,1,.72-1.69,3.4,3.4,0,0,1,2.07-.86v-1.32h1.19v1.29a5.23,5.23,0,0,1,2.4.73l-.59,1.46a4.7,4.7,0,0,0-1.81-.62v2a8.08,8.08,0,0,1,1.4.43,2.47,2.47,0,0,1,1,.72,2,2,0,0,1,.39,1.27,2.25,2.25,0,0,1-.72,1.7Zm-3.89-4.7a1.79,1.79,0,0,0,.65.32v-1.68a1.36,1.36,0,0,0-.67.33.8.8,0,0,0-.21.54.62.62,0,0,0,.23.49Zm2.47,3.69a.67.67,0,0,0,.22-.51.61.61,0,0,0-.22-.49,2,2,0,0,0-.63-.33v1.64a1.33,1.33,0,0,0,.63-.31Z" fill="#e0e0e0"/>
        <path id="Path_11874" data-name="Path 11874" d="M354.33,143.33a3.43,3.43,0,0,1-2.06.86v1.33h-1.18v-1.29a6.421,6.421,0,0,1-1.67-.31,4.311,4.311,0,0,1-1.29-.64l.66-1.45a4.35,4.35,0,0,0,1,.56,4.919,4.919,0,0,0,1.25.28v-2a8.37,8.37,0,0,1-1.43-.45,2.49,2.49,0,0,1-1-.73,2,2,0,0,1-.39-1.27,2.28,2.28,0,0,1,.72-1.69,3.4,3.4,0,0,1,2.07-.86v-1.32h1.18v1.29a5.23,5.23,0,0,1,2.41.73l-.59,1.46a4.69,4.69,0,0,0-1.82-.62v2a7.942,7.942,0,0,1,1.41.43,2.54,2.54,0,0,1,1,.72,2,2,0,0,1,.39,1.27A2.25,2.25,0,0,1,354.33,143.33Zm-3.89-4.7a1.791,1.791,0,0,0,.65.32v-1.68a1.36,1.36,0,0,0-.67.33.8.8,0,0,0-.21.54.59.59,0,0,0,.23.49Zm2.47,3.69a.67.67,0,0,0,.22-.51.64.64,0,0,0-.22-.49,2,2,0,0,0-.64-.33v1.64a1.32,1.32,0,0,0,.64-.31Z" fill="#e0e0e0"/>
        <path id="Path_11875" data-name="Path 11875" d="M328,153.54c-.15,0-.26-12.33-.26-27.54s.11-27.55.26-27.55.26,12.33.26,27.55S328.16,153.54,328,153.54Z" fill="#263238"/>
        <rect id="Rectangle_17535" data-name="Rectangle 17535" width="56.05" height="54.91" transform="translate(271.91 158.7)" fill="#ebebeb"/>
        <path id="Path_11876" data-name="Path 11876" d="M271.91,158.7h12.25l34.1-.07,117.2-.12h.25v55.15h0v.26h-.26l-163.55-.09h-.17v-.17c0-17.24.07-31,.1-40.42v.13c0,9.42.06,23.13.1,40.32l-.18-.17,163.55-.09-.26.26h0V158.7l.26.25-117-.11-34.17-.07H272.59Z" fill="#263238"/>
        <rect id="Rectangle_17536" data-name="Rectangle 17536" width="32.45" height="4.42" transform="translate(338.83 168.55)" fill="#c53f3f"/>
        <rect id="Rectangle_17537" data-name="Rectangle 17537" width="85.59" height="2.83" transform="translate(338.83 179.46)" fill="#e0e0e0"/>
        <rect id="Rectangle_17538" data-name="Rectangle 17538" width="85.59" height="2.83" transform="translate(338.83 185.12)" fill="#e0e0e0"/>
        <path id="Path_11877" data-name="Path 11877" d="M401.67,201.84h-1.62v1.58h-1.2v-1.58h-1.62V200.7h1.62v-1.58h1.2v1.58h1.62Z" fill="#ff725e"/>
        <path id="Path_11878" data-name="Path 11878" d="M410.38,198v6.52h-1.51v-5.31h-1.3V198Z" fill="#ff725e"/>
        <path id="Path_11879" data-name="Path 11879" d="M416.9,201.32h2.64v1.17H416.9Z" fill="#ff725e"/>
        <path id="Path_11880" data-name="Path 11880" d="M424.42,208.8v-1.1c0-.75,0-1.77-.05-3.07,0-2.68-.06-6.47-.1-11.14l.19.19-32.33.07.26-.26h0v15.3l-.25-.25,23.15.12,6.73.07h2.45a4,4,0,0,1-.58,0h-1.76l-6.67.07-23.32.11h-.25V193.5h0l.26-.26,32.33.07h.19v.19c0,4.72-.07,8.55-.1,11.26,0,1.28,0,2.29-.05,3v.78a.67.67,0,0,1-.1.26Z" fill="#263238"/>
        <path id="Path_11881" data-name="Path 11881" d="M345.36,203.91a3.43,3.43,0,0,1-2.05.86v1.33h-1.19v-1.29a6.1,6.1,0,0,1-1.67-.31,4.13,4.13,0,0,1-1.28-.64l.65-1.45a4,4,0,0,0,1.05.56,4.939,4.939,0,0,0,1.25.29v-2a10,10,0,0,1-1.42-.45,2.55,2.55,0,0,1-1-.73,2,2,0,0,1-.39-1.28,2.28,2.28,0,0,1,.72-1.69,3.4,3.4,0,0,1,2.07-.86V195h1.19v1.3a5.23,5.23,0,0,1,2.4.72l-.59,1.46a4.7,4.7,0,0,0-1.81-.62v2a9.057,9.057,0,0,1,1.4.43,2.49,2.49,0,0,1,1,.73,1.94,1.94,0,0,1,.39,1.26,2.24,2.24,0,0,1-.72,1.63Zm-3.89-4.7a1.64,1.64,0,0,0,.65.32v-1.68a1.29,1.29,0,0,0-.67.34.76.76,0,0,0-.21.54.6.6,0,0,0,.23.48Zm2.47,3.69a.67.67,0,0,0,.22-.51.61.61,0,0,0-.22-.49,2.29,2.29,0,0,0-.63-.33v1.64a1.24,1.24,0,0,0,.63-.31Z" fill="#e0e0e0"/>
        <path id="Path_11882" data-name="Path 11882" d="M328,214.12c-.15,0-.26-12.33-.26-27.54S327.87,159,328,159s.26,12.33.26,27.55S328.16,214.12,328,214.12Z" fill="#263238"/>
        <rect id="Rectangle_17539" data-name="Rectangle 17539" width="56.05" height="54.91" transform="translate(271.91 219.14)" fill="#ebebeb"/>
        <path id="Path_11883" data-name="Path 11883" d="M271.91,219.14h12.25l34.1-.07,117.2-.12h.25V274.1h0v.26h-.26l-163.55-.09h-.17V274c0-17.23.07-31,.1-40.42v.15c0,9.42.06,23.12.1,40.31l-.18-.17,163.55-.09-.26.26h0v-54.9l.26.25-117-.12-34.17-.07H272.59Z" fill="#263238"/>
        <rect id="Rectangle_17540" data-name="Rectangle 17540" width="32.45" height="4.42" transform="translate(338.83 228.99)" fill="#c53f3f"/>
        <rect id="Rectangle_17541" data-name="Rectangle 17541" width="85.59" height="2.83" transform="translate(338.83 239.89)" fill="#e0e0e0"/>
        <rect id="Rectangle_17542" data-name="Rectangle 17542" width="85.59" height="2.83" transform="translate(338.83 245.55)" fill="#e0e0e0"/>
        <path id="Path_11884" data-name="Path 11884" d="M401.67,262.27h-1.62v1.58h-1.2v-1.58h-1.62v-1.13h1.62v-1.59h1.2v1.59h1.62Z" fill="#ff725e"/>
        <path id="Path_11885" data-name="Path 11885" d="M410.38,258.44V265h-1.51v-5.31h-1.3v-1.21Z" fill="#ff725e"/>
        <path id="Path_11886" data-name="Path 11886" d="M416.9,261.76h2.64v1.16H416.9Z" fill="#ff725e"/>
        <path id="Path_11887" data-name="Path 11887" d="M424.42,269.23v-1.1c0-.74,0-1.77-.05-3.07,0-2.67-.06-6.47-.1-11.13l.19.19-32.33.07.26-.26h0v15.28l-.25-.24,23.15.11,6.73.07h2.45a4,4,0,0,1-.58,0h-1.76l-6.67.07-23.32.12h-.25V254h0c-.06,0,.49-.5.26-.27l32.33.07h.19v.2c0,4.71-.07,8.55-.1,11.25,0,1.28,0,2.29-.05,3v.77C424.44,269.15,424.43,269.24,424.42,269.23Z" fill="#263238"/>
        <path id="Path_11888" data-name="Path 11888" d="M345.36,264.35a3.49,3.49,0,0,1-2.05.86v1.33h-1.19v-1.3a6.1,6.1,0,0,1-1.67-.31,3.92,3.92,0,0,1-1.28-.64l.65-1.44a4.329,4.329,0,0,0,1.05.55,4.541,4.541,0,0,0,1.25.29v-2a10,10,0,0,1-1.42-.45,2.55,2.55,0,0,1-1-.73,2,2,0,0,1-.39-1.28,2.29,2.29,0,0,1,.72-1.69,3.46,3.46,0,0,1,2.07-.86v-1.31h1.19v1.29a5.23,5.23,0,0,1,2.4.72l-.59,1.46a4.68,4.68,0,0,0-1.81-.61v2a9.059,9.059,0,0,1,1.4.43,2.59,2.59,0,0,1,1,.73,1.94,1.94,0,0,1,.39,1.26A2.26,2.26,0,0,1,345.36,264.35Zm-3.89-4.71a1.79,1.79,0,0,0,.65.33v-1.69a1.37,1.37,0,0,0-.67.34.76.76,0,0,0-.21.54.59.59,0,0,0,.23.48Zm2.47,3.69a.67.67,0,0,0,.22-.51.59.59,0,0,0-.22-.48,1.85,1.85,0,0,0-.63-.33v1.63a1.17,1.17,0,0,0,.63-.31Z" fill="#e0e0e0"/>
        <path id="Path_11889" data-name="Path 11889" d="M353.51,264.35a3.46,3.46,0,0,1-2.05.86v1.33h-1.19v-1.3a6.171,6.171,0,0,1-1.67-.31,3.92,3.92,0,0,1-1.28-.64l.65-1.44a4.23,4.23,0,0,0,1.06.55,4.481,4.481,0,0,0,1.24.29v-2a10.455,10.455,0,0,1-1.42-.45,2.52,2.52,0,0,1-1-.73,2,2,0,0,1-.4-1.28,2.29,2.29,0,0,1,.72-1.69,3.46,3.46,0,0,1,2.07-.86v-1.31h1.19v1.29a5.31,5.31,0,0,1,2.41.72l-.6,1.46a4.68,4.68,0,0,0-1.81-.61v2a9.059,9.059,0,0,1,1.4.43,2.52,2.52,0,0,1,1,.73,1.94,1.94,0,0,1,.39,1.26,2.26,2.26,0,0,1-.71,1.7Zm-3.89-4.71a1.87,1.87,0,0,0,.65.33v-1.69a1.29,1.29,0,0,0-.66.34.77.77,0,0,0-.22.54A.59.59,0,0,0,349.62,259.64Zm2.48,3.69a.69.69,0,0,0,.21-.51.59.59,0,0,0-.22-.48,1.76,1.76,0,0,0-.63-.33v1.63a1.2,1.2,0,0,0,.64-.31Z" fill="#e0e0e0"/>
        <path id="Path_11890" data-name="Path 11890" d="M328,274.56c-.15,0-.26-12.34-.26-27.55s.11-27.54.26-27.54.26,12.33.26,27.54S328.16,274.56,328,274.56Z" fill="#263238"/>
        <path id="Path_11891" data-name="Path 11891" d="M288.92,178.35,291,206a1.67,1.67,0,0,0,1.64,1.54l11.24.09a1.67,1.67,0,0,0,1.67-1.52l2.28-27.45Z" fill="#c53f3f"/>
        <g id="Group_8230" data-name="Group 8230" opacity="0.3">
          <path id="Path_11892" data-name="Path 11892" d="M306.85,190.45a159.217,159.217,0,0,1-17.15-.23l.54,8.32s10,1.71,16-.38Z"/>
        </g>
        <g id="Group_8231" data-name="Group 8231" opacity="0.3">
          <path id="Path_11893" data-name="Path 11893" d="M307.7,180.17A26.77,26.77,0,0,1,295.45,182c-5.44-.34-6.4-1.66-6.4-1.66l-.07-1.24h18.81Z"/>
        </g>
        <path id="Path_11894" data-name="Path 11894" d="M308.62,177.17l.44,1.91s-2.15,1.78-10.94,1.66c-7.87-.1-9.78-1.56-9.78-1.56l-.61-.52.54-1.8Z" fill="#e0e0e0"/>
        <path id="Path_11895" data-name="Path 11895" d="M308.62,177.17h-5.89l-14.47-.2h.06l-.53,1.8v-.07l.64.54a4.29,4.29,0,0,0,.78.37l.41.14.42.13c.55.15,1.11.27,1.67.37a29.26,29.26,0,0,0,3.28.39,55.648,55.648,0,0,0,6,.11,30.851,30.851,0,0,0,4.84-.5,15,15,0,0,0,1.87-.47,5.38,5.38,0,0,0,1.38-.63h0l-.3-1.41-.08-.37v-.13a.643.643,0,0,1,0,.12l.08.37c.08.32.2.8.34,1.41h0a5.46,5.46,0,0,1-1.39.65,14.84,14.84,0,0,1-1.87.49,30.943,30.943,0,0,1-4.85.52,55.727,55.727,0,0,1-6-.09,29.71,29.71,0,0,1-3.29-.39,17.1,17.1,0,0,1-1.69-.38,1.661,1.661,0,0,1-.42-.12,2.863,2.863,0,0,1-.41-.15,3.729,3.729,0,0,1-.81-.38l-.65-.54h0c.19-.62.37-1.23.54-1.8h0l14.5.25,4.3.08h1.55Z" fill="#263238"/>
        <path id="Path_11896" data-name="Path 11896" d="M288.25,177c0,.92,4.52,1.58,10.18,1.73,3.86.1,9.5-.64,10.19-1.61.54-.74-4.55-1.69-10.17-1.73S288.26,176.1,288.25,177Z" fill="#fff"/>
        <path id="Path_11897" data-name="Path 11897" d="M288.25,177a.451.451,0,0,1,0-.11.59.59,0,0,1,.2-.25,3.71,3.71,0,0,1,1.13-.49,24.87,24.87,0,0,1,4.47-.67,57.914,57.914,0,0,1,6.7-.08c1.27.07,2.59.17,4,.36.68.09,1.37.2,2.07.36a8.467,8.467,0,0,1,1,.28,3.659,3.659,0,0,1,.51.21l.12.07.12.08a.52.52,0,0,1,.1.11.25.25,0,0,1,0,.17.3.3,0,0,1-.07.15l-.11.11a1.877,1.877,0,0,1-.23.16,3.161,3.161,0,0,1-.5.22,8.062,8.062,0,0,1-1,.31c-.7.17-1.39.29-2.07.4-1.36.19-2.68.31-3.94.36a35.656,35.656,0,0,1-3.59,0c-1.12,0-2.17-.12-3.12-.21a26.51,26.51,0,0,1-4.46-.69,3.38,3.38,0,0,1-1.13-.49.53.53,0,0,1-.2-.25.42.42,0,0,1,0-.1v.1a.5.5,0,0,0,.2.23,3.659,3.659,0,0,0,1.13.46,27,27,0,0,0,4.46.66c.95.08,2,.14,3.11.18a35.5,35.5,0,0,0,3.58,0c1.26-.06,2.58-.17,3.94-.37.67-.1,1.36-.23,2.05-.39a8.994,8.994,0,0,0,1-.31,4.312,4.312,0,0,0,.49-.22,1.593,1.593,0,0,0,.21-.15.35.35,0,0,0,.14-.17.22.22,0,0,0-.1-.18l-.22-.14a4.191,4.191,0,0,0-.49-.2,9.17,9.17,0,0,0-1-.27c-.69-.16-1.38-.27-2.06-.36-1.35-.19-2.67-.3-3.93-.36a58.56,58.56,0,0,0-6.7.05,24.588,24.588,0,0,0-4.46.63,3.72,3.72,0,0,0-1.12.46.7.7,0,0,0-.21.23C288.26,177,288.26,177,288.25,177Z" fill="#263238"/>
        <path id="Path_11898" data-name="Path 11898" d="M304.24,175.39l.24,1.07s-1.21,1.1-6.15.94-5.49-.88-5.49-.88l-.14-.17.1-1.14Z" fill="#e0e0e0"/>
        <path id="Path_11899" data-name="Path 11899" d="M304.24,175.39h-3.32l-8.13-.11.07-.05c0,.36-.07.74-.1,1.13h0l.11.12a.24.24,0,0,0,.1.1,3.14,3.14,0,0,0,.9.33c.31.08.63.14.94.19.62.09,1.24.15,1.84.2a32.269,32.269,0,0,0,3.33.1,16.078,16.078,0,0,0,2.71-.26,6.8,6.8,0,0,0,1-.28,2.56,2.56,0,0,0,.76-.37h0l-.17-.8v-.2a.449.449,0,0,1,0-.08.309.309,0,0,1,0,.07l.05.2c.05.19.11.45.2.8h0a3.081,3.081,0,0,1-.77.4,8.137,8.137,0,0,1-1,.29,16.091,16.091,0,0,1-2.72.29c-1,0-2.15,0-3.35-.09-.6-.05-1.22-.11-1.85-.2a4.1,4.1,0,0,1-.95-.19,3.17,3.17,0,0,1-.94-.35.49.49,0,0,1-.13-.12l-.1-.12h0l.1-1.13v-.06h.06l8.16.15,2.41.06h.87Z" fill="#263238"/>
        <path id="Path_11900" data-name="Path 11900" d="M292.79,175.3c0,.52,2.56,1,5.72,1s5.73-.39,5.73-.91-2.56-1-5.72-1S292.79,174.78,292.79,175.3Z" fill="#fff"/>
        <path id="Path_11901" data-name="Path 11901" d="M292.79,175.3a.288.288,0,0,1,.12-.2,1.79,1.79,0,0,1,.63-.28,13.83,13.83,0,0,1,2.52-.39,32.769,32.769,0,0,1,3.78-.05,17.449,17.449,0,0,1,2.22.18c.38.06.77.12,1.17.21a4.3,4.3,0,0,1,.58.18,1.469,1.469,0,0,1,.28.14.37.37,0,0,1,.21.28.38.38,0,0,1-.21.29,1.17,1.17,0,0,1-.28.13,3.528,3.528,0,0,1-.59.17c-.39.09-.78.15-1.17.2-.77.09-1.52.13-2.23.15a29.659,29.659,0,0,1-3.77-.1,13.268,13.268,0,0,1-2.51-.41,2.151,2.151,0,0,1-.64-.29c-.13-.1-.12-.21-.11-.21a.26.26,0,0,0,.13.19,2.161,2.161,0,0,0,.63.26,14.8,14.8,0,0,0,2.51.38,34.337,34.337,0,0,0,3.76.07,19.331,19.331,0,0,0,2.22-.16,11.531,11.531,0,0,0,1.15-.2,3.7,3.7,0,0,0,.57-.16l.27-.13c.08,0,.15-.11.15-.18s-.07-.13-.15-.18a2.1,2.1,0,0,0-.26-.13c-.19-.07-.38-.12-.57-.17-.39-.09-.77-.15-1.16-.21-.76-.1-1.5-.15-2.21-.19a35.341,35.341,0,0,0-3.76,0,14.339,14.339,0,0,0-2.51.34,2.249,2.249,0,0,0-.64.26.27.27,0,0,0-.13.21Z" fill="#263238"/>
        <path id="Path_11902" data-name="Path 11902" d="M297.58,175.07l-.27-12.36,1.56-.07.26,12.44C298.52,175.06,298.14,175.27,297.58,175.07Z" fill="#fff"/>
        <path id="Path_11903" data-name="Path 11903" d="M297.58,175.07a1.671,1.671,0,0,0,.39.07,3,3,0,0,0,.49,0,3.43,3.43,0,0,1,.68-.05h0c-.07-2.25-.19-7-.3-12.39h0l.06.06-1.56.06.06-.06c.07,3.47.13,6.56.17,8.78v3.62a.28.28,0,0,0,0-.06v-.88c0-.62,0-1.51-.07-2.61-.06-2.23-.14-5.32-.22-8.81v-.06h.06l1.55-.07h.07v.1c.12,5.44.2,10.15.23,12.4h0a4.546,4.546,0,0,0-.67,0,2.89,2.89,0,0,1-.49,0,1.19,1.19,0,0,1-.29-.06Z" fill="#263238"/>
        <path id="Path_11904" data-name="Path 11904" d="M298.39,162.72l.26,12.39-.58-.02-.35-12.36Z" fill="#455a64"/>
        <path id="Path_11905" data-name="Path 11905" d="M297,174.94a14.559,14.559,0,0,0,1.53.1c.84.01,1.54-.11,1.54-.07a1.68,1.68,0,0,1-.44.11,6.622,6.622,0,0,1-1.1.08,6.14,6.14,0,0,1-1.09-.1,1.15,1.15,0,0,1-.44-.12Z" fill="#263238"/>
        <path id="Path_11906" data-name="Path 11906" d="M308.1,179.57a3,3,0,0,1-.3-.92,4.8,4.8,0,0,1-.18-.94,3,3,0,0,1,.3.92,4.8,4.8,0,0,1,.18.94Z" fill="#263238"/>
        <path id="Path_11907" data-name="Path 11907" d="M306.47,180.07a4.2,4.2,0,0,1-.31-.94,4,4,0,0,1-.19-1,4.2,4.2,0,0,1,.31.94A3.48,3.48,0,0,1,306.47,180.07Z" fill="#263238"/>
        <path id="Path_11908" data-name="Path 11908" d="M304.71,180.46a5.078,5.078,0,0,1-.27-1,4.922,4.922,0,0,1-.15-1,3.84,3.84,0,0,1,.27,1,3.679,3.679,0,0,1,.15,1Z" fill="#263238"/>
        <path id="Path_11909" data-name="Path 11909" d="M302.64,180.68a8.582,8.582,0,0,1-.3-2,5.139,5.139,0,0,1,.21,1A4.81,4.81,0,0,1,302.64,180.68Z" fill="#263238"/>
        <path id="Path_11910" data-name="Path 11910" d="M300.46,180.78a4.75,4.75,0,0,1,0-1,4.439,4.439,0,0,1,.1-1,4.752,4.752,0,0,1,0,1,4.54,4.54,0,0,1-.1,1Z" fill="#263238"/>
        <path id="Path_11911" data-name="Path 11911" d="M298.68,180.73a3.36,3.36,0,0,1,0-1,4,4,0,0,1,.12-1,3.341,3.341,0,0,1,0,1,4.11,4.11,0,0,1-.12,1Z" fill="#263238"/>
        <path id="Path_11912" data-name="Path 11912" d="M296.8,180.66a3,3,0,0,1,.06-1,3.271,3.271,0,0,1,.23-.95,4.389,4.389,0,0,1-.11,1A5,5,0,0,1,296.8,180.66Z" fill="#263238"/>
        <path id="Path_11913" data-name="Path 11913" d="M294.57,180.51a4.313,4.313,0,0,1,.21-1,4.379,4.379,0,0,1,.33-1,3.749,3.749,0,0,1-.21,1,4.38,4.38,0,0,1-.33,1Z" fill="#263238"/>
        <path id="Path_11914" data-name="Path 11914" d="M292.54,180.36a4.77,4.77,0,0,1,.2-1,3.769,3.769,0,0,1,.32-1,4.629,4.629,0,0,1-.2,1,3.76,3.76,0,0,1-.32,1Z" fill="#263238"/>
        <path id="Path_11915" data-name="Path 11915" d="M290.15,179.9a4.061,4.061,0,0,1,.25-.94,4.14,4.14,0,0,1,.38-.9A8.109,8.109,0,0,1,290.15,179.9Z" fill="#263238"/>
        <path id="Path_11916" data-name="Path 11916" d="M288.36,179.23a3.26,3.26,0,0,1,.23-.84,2.7,2.7,0,0,1,.34-.8,3.161,3.161,0,0,1-.23.84A2.7,2.7,0,0,1,288.36,179.23Z" fill="#263238"/>
        <path id="Path_11917" data-name="Path 11917" d="M302.66,243.68a8.9,8.9,0,0,0,1.72-4.43,7.23,7.23,0,0,0-.68-4.2c-.05-.09-.1-.19-.2-.22a.4.4,0,0,0-.3,0,5.08,5.08,0,0,0-.54,8.8" fill="#455a64"/>
        <path id="Path_11918" data-name="Path 11918" d="M305.77,240a6.73,6.73,0,0,0,2.9-2.13,5.38,5.38,0,0,0,1.27-3,.29.29,0,0,0,0-.22.31.31,0,0,0-.21-.09,3.84,3.84,0,0,0-3.92,5.39" fill="#455a64"/>
        <path id="Path_11919" data-name="Path 11919" d="M305.24,243.57a2.08,2.08,0,0,0-.69-2,3.11,3.11,0,0,0-2-.71,3.3,3.3,0,0,0-1.84.49,2.46,2.46,0,0,0-1.1,1.54,2.42,2.42,0,0,0,.77,2.2,3.29,3.29,0,0,0,2.23.82,2.71,2.71,0,0,0,1.87-.69,2.35,2.35,0,0,0,.8-1.66" fill="#ff725e"/>
        <path id="Path_11920" data-name="Path 11920" d="M312.29,245.58c2.77.49,5.52-2.58,6.18-4.57a.69.69,0,0,0,0-.64.66.66,0,0,0-.66-.15,6.43,6.43,0,0,0-3.63,1.77,6.59,6.59,0,0,0-1.87,3.59" fill="#455a64"/>
        <path id="Path_11921" data-name="Path 11921" d="M315.41,244.06a2.09,2.09,0,0,0-.69-2,3.06,3.06,0,0,0-2-.71,3.34,3.34,0,0,0-1.85.49,2.31,2.31,0,0,0-.33,3.74,3.23,3.23,0,0,0,2.23.81,2.68,2.68,0,0,0,1.87-.68,2.33,2.33,0,0,0,.81-1.67" fill="#ff725e"/>
        <path id="Path_11922" data-name="Path 11922" d="M295.16,239.74a2.08,2.08,0,0,0-.69-2,3.17,3.17,0,0,0-2-.71,3.4,3.4,0,0,0-1.84.5,2.29,2.29,0,0,0-.34,3.73,3.27,3.27,0,0,0,2.24.82,2.71,2.71,0,0,0,1.87-.69,2.35,2.35,0,0,0,.8-1.66" fill="#ff725e"/>
        <path id="Path_11923" data-name="Path 11923" d="M301.12,244.66a8.92,8.92,0,0,0-1.87-4.37,7.14,7.14,0,0,0-3.42-2.53.42.42,0,0,0-.29,0,.36.36,0,0,0-.18.25,5.08,5.08,0,0,0,5.76,6.67" fill="#455a64"/>
        <path id="Path_11924" data-name="Path 11924" d="M291,242.19a13.719,13.719,0,0,1-1.46-2,4.65,4.65,0,0,1-.62-2.4.47.47,0,0,1,.13-.34.45.45,0,0,1,.36,0,7.67,7.67,0,0,1,5.94,6.67l.08.42a5.92,5.92,0,0,1-4.38.65,9.34,9.34,0,0,1-3.38-1.33,4.84,4.84,0,0,1-2.05-2.92,6.55,6.55,0,0,1,5.38,1.25Z" fill="#455a64"/>
        <path id="Path_11925" data-name="Path 11925" d="M308.27,239.75a9.9,9.9,0,0,1,4.9-2.49,7,7,0,0,1-6.16,7.79l-.11-.2a5.1,5.1,0,0,1,1.37-5.1Z" fill="#455a64"/>
        <path id="Path_11926" data-name="Path 11926" d="M317.84,243.6a30.4,30.4,0,0,1-5.55,11.22c-6.13,7.55-20,5.45-23.73-.46-1.45-2.26-5.27-10.68-5.27-10.68Z" fill="#fff"/>
        <path id="Path_11927" data-name="Path 11927" d="M317.84,243.6h-9.97l-24.62.11.09-.15c1.12,2.45,2.31,5,3.58,7.55.33.66.67,1.31,1,2a10,10,0,0,0,1.16,1.81,10.22,10.22,0,0,0,3.28,2.61,17.77,17.77,0,0,0,7.68,2,17.25,17.25,0,0,0,7.1-1.17,12.89,12.89,0,0,0,5.06-3.65,30,30,0,0,0,4.52-7.94c.39-1,.65-1.82.82-2.36l.24-.84a21.621,21.621,0,0,1-1,3.23,30,30,0,0,1-4.48,8,13,13,0,0,1-5.12,3.72,17.24,17.24,0,0,1-7.17,1.2,17.78,17.78,0,0,1-7.77-2,10.43,10.43,0,0,1-3.34-2.66,11.129,11.129,0,0,1-1.19-1.84c-.34-.65-.68-1.31-1-2-1.28-2.56-2.46-5.1-3.59-7.55l-.06-.15h34.71Z" fill="#263238"/>
        <path id="Path_11928" data-name="Path 11928" d="M315.57,249.24c0,.06-6.63.1-14.81.1s-14.82,0-14.82-.1,6.63-.1,14.82-.1S315.57,249.18,315.57,249.24Z" fill="#ff725e"/>
        <path id="Path_11929" data-name="Path 11929" d="M316.17,248.39c0,.06-6.87.1-15.34.1s-15.34,0-15.34-.1,6.86-.11,15.34-.11S316.17,248.33,316.17,248.39Z" fill="#ff725e"/>
      </g>
      <g id="freepik--speech-bubble--inject-13">
        <path id="Path_11930" data-name="Path 11930" d="M159.94,109.25h73.4a5.25,5.25,0,0,1,5.25,5.25v73.4a5.25,5.25,0,0,1-5.25,5.25H178.67c-5,4.24-14.55,12.78-14.55,12.78l-.71-12.78h-3.47a5.25,5.25,0,0,1-5.24-5.25V114.5a5.25,5.25,0,0,1,5.24-5.25Z" fill="#fff"/>
        <path id="Path_11931" data-name="Path 11931" d="M159.94,109.25a7.35,7.35,0,0,0-1.68.32,5.3,5.3,0,0,0-3.28,3.49,14.429,14.429,0,0,0-.19,3.63c0,1.36,0,2.83,0,4.42v10.94c0,8.19,0,18.12.06,29.48v25.36a8.339,8.339,0,0,0,.2,2.41,5,5,0,0,0,3.23,3.36,6.88,6.88,0,0,0,2.46.26h2.82v.21c.23,4,.47,8.35.72,12.79l-.4-.17L178.51,193l.07-.06H233.7a5,5,0,0,0,4.47-3.74,8,8,0,0,0,.16-2.09V115.57a16.335,16.335,0,0,0-.05-1.73,4.921,4.921,0,0,0-.5-1.59,5,5,0,0,0-2.33-2.26,5.07,5.07,0,0,0-1.57-.46H210.2l-36.8-.08h0l36.8-.08h23.73a5.52,5.52,0,0,1,4.24,2.94,5.28,5.28,0,0,1,.54,1.73,12.081,12.081,0,0,1,.06,1.79q0,3.54,0,7.19v64.24a8.43,8.43,0,0,1-.18,2.22,5.361,5.361,0,0,1-1,2,5.45,5.45,0,0,1-3.93,2.1H178.67l.17-.06c-5,4.41-10,8.72-14.56,12.77l-.37.33v-.5c-.24-4.44-.48-8.78-.7-12.78l.23.22h-2.6a7.52,7.52,0,0,1-2.61-.29,5.52,5.52,0,0,1-3.51-3.67,8.749,8.749,0,0,1-.21-2.53V161.71c0-11.36,0-21.29.05-29.48V116.87a14.3,14.3,0,0,1,.23-3.67,5.27,5.27,0,0,1,3.4-3.52,5.4,5.4,0,0,1,1.27-.24Z" fill="#263238"/>
        <path id="Path_11932" data-name="Path 11932" d="M214.51,149.94l-2.66,13.05,8.66-.2Z" fill="#ff725e"/>
        <g id="Group_8232" data-name="Group 8232" opacity="0.3">
          <path id="Path_11933" data-name="Path 11933" d="M214.51,149.94l-2.66,13.05,8.66-.2Z"/>
        </g>
        <path id="Path_11934" data-name="Path 11934" d="M177.37,150.36l2.66,13.05-8.67-.2Z" fill="#ff725e"/>
        <g id="Group_8233" data-name="Group 8233" opacity="0.3">
          <path id="Path_11935" data-name="Path 11935" d="M177.37,150.36l2.66,13.05-8.67-.2Z"/>
        </g>
        <path id="Path_11936" data-name="Path 11936" d="M199.56,152.78h0a1.09,1.09,0,0,1-1.09-1.05l-1.27-30.57a1.11,1.11,0,0,1,1.1-1.14h1.53a1.09,1.09,0,0,1,1.09,1.1l-.26,30.57A1.1,1.1,0,0,1,199.56,152.78Z" fill="#844031"/>
        <rect id="Rectangle_17543" data-name="Rectangle 17543" width="3.61" height="2.65" transform="translate(197.32 123.92)" fill="#ff725e"/>
        <path id="Path_11937" data-name="Path 11937" d="M202,152.9h0a1.1,1.1,0,0,1-.67-1.37l9.31-29.14a1.09,1.09,0,0,1,1.42-.7l1.43.52a1.11,1.11,0,0,1,.65,1.42L203.4,152.25a1.11,1.11,0,0,1-1.4.65Z" fill="#844031"/>
        <rect id="Rectangle_17544" data-name="Rectangle 17544" width="2.65" height="3.61" transform="translate(208.91 127.504) rotate(-69.92)" fill="#ff725e"/>
        <path id="Path_11938" data-name="Path 11938" d="M212.44,145.13a7.26,7.26,0,0,0-5-3.19,10.21,10.21,0,0,0-5.8,1c-1.41.67-2.87,1.6-4.38,1.29a8.71,8.71,0,0,1-2.87-1.63,10.18,10.18,0,0,0-7.79-1.58,11.1,11.1,0,0,0-6.75,4.66,7.47,7.47,0,0,0-1.32,6.14l34.52-.12a7.46,7.46,0,0,0-.61-6.57Z" fill="#e0e0e0"/>
        <path id="Path_11939" data-name="Path 11939" d="M211.52,151a12.36,12.36,0,0,0,0-1.7,6.29,6.29,0,0,0-2-4,5,5,0,0,0-2.81-1.21,8,8,0,0,0-3.54.5c-1.2.42-2.34,1.2-3.7,1.75a5.48,5.48,0,0,1-2.22.41,5.86,5.86,0,0,1-2.24-.62c-1.4-.67-2.57-1.58-3.81-2.22a7.32,7.32,0,0,0-3.83-.85,7.62,7.62,0,0,0-3.41,1,8.08,8.08,0,0,0-2.33,2.1,10.19,10.19,0,0,0-1.85,4.18c-.2,1.08-.19,1.7-.24,1.69a1.38,1.38,0,0,1,0-.44,8.42,8.42,0,0,1,.08-1.28,9.89,9.89,0,0,1,1.75-4.37,8.45,8.45,0,0,1,2.41-2.25,8,8,0,0,1,3.61-1.14,7.75,7.75,0,0,1,4.08.88c1.3.66,2.48,1.57,3.8,2.2a5.49,5.49,0,0,0,2,.57,4.86,4.86,0,0,0,2-.37c1.28-.5,2.45-1.29,3.72-1.72a8.37,8.37,0,0,1,3.75-.48,5.33,5.33,0,0,1,3,1.37,6.34,6.34,0,0,1,1.91,4.28,6.19,6.19,0,0,1-.08,1.28A.915.915,0,0,1,211.52,151Z" fill="#263238"/>
        <path id="Path_11940" data-name="Path 11940" d="M209.88,151.37a13.992,13.992,0,0,0,0-1.48,4.64,4.64,0,0,0-1.9-3.35,3.55,3.55,0,0,0-2.55-.6,7.89,7.89,0,0,0-2.88,1.24,12.45,12.45,0,0,1-3.26,1.64,6.28,6.28,0,0,1-3.93-.37c-2.51-1-4.5-2.66-6.71-3.1A5.79,5.79,0,0,0,183.3,147a7.49,7.49,0,0,0-1.87,3.5c-.22.93-.21,1.48-.26,1.47s0-.13,0-.39a7,7,0,0,1,.1-1.12,7.38,7.38,0,0,1,1.8-3.72,6.39,6.39,0,0,1,2.4-1.62,5.87,5.87,0,0,1,3.32-.28c2.37.46,4.4,2.15,6.8,3.09a5.9,5.9,0,0,0,3.61.36,12.45,12.45,0,0,0,3.14-1.56,8,8,0,0,1,3.07-1.26,3.91,3.91,0,0,1,2.82.73,4.4,4.4,0,0,1,1.49,1.88,4.93,4.93,0,0,1,.4,1.75A4.781,4.781,0,0,1,210,151a1.16,1.16,0,0,1-.12.37Z" fill="#263238"/>
        <path id="Path_11941" data-name="Path 11941" d="M207.74,151.38a2.79,2.79,0,0,0-.22-1.13A2.19,2.19,0,0,0,205,149a6.07,6.07,0,0,0-2,.86,12.51,12.51,0,0,1-2.34,1.22,8.28,8.28,0,0,1-5.93-.79,31.8,31.8,0,0,0-5.4-2.32,5.49,5.49,0,0,0-4.5.56,4.64,4.64,0,0,0-1.83,2.5c-.21.73-.16,1.17-.22,1.17a1.16,1.16,0,0,1-.05-.31,3.591,3.591,0,0,1,.07-.91,4.66,4.66,0,0,1,1.82-2.75,5.8,5.8,0,0,1,4.82-.73,30.111,30.111,0,0,1,5.5,2.32,8,8,0,0,0,5.57.8,12.65,12.65,0,0,0,2.27-1.13,6.15,6.15,0,0,1,2.15-.85,2.63,2.63,0,0,1,1.91.35,2.54,2.54,0,0,1,.91,1.14,1.9,1.9,0,0,1,.12.91A.55.55,0,0,1,207.74,151.38Z" fill="#263238"/>
        <path id="Path_11942" data-name="Path 11942" d="M177.31,150.25c0,.89,6.34,33.46,6.34,33.46l24.87-.41,6-33.36Z" fill="#c53f3f"/>
        <path id="Path_11943" data-name="Path 11943" d="M177.31,150.25a5.366,5.366,0,0,1,.69,0l2.07-.05,7.78-.13,26.66-.35h.42l-.19.38-3.85,7.65c-1.1,2.18-2.18,4.33-3.23,6.4l-.07.15h-.16l-23.18-.07h-.12v-.1c-2.1-4.26-3.81-7.73-5-10.18l-1.33-2.73-.34-.71a1,1,0,0,1-.09-.22l.14.25.39.73,1.44,2.74c1.23,2.4,3,5.78,5.14,9.94l-.17-.11,23.18-.06-.23.14,3.23-6.41,3.85-7.64.23.37-26.44.08h-10Z" fill="#263238"/>
        <g id="Group_8234" data-name="Group 8234" opacity="0.3">
          <path id="Path_11944" data-name="Path 11944" d="M184.91,164l.63,1.35h22.55l5.83-14.23L207.43,164Z"/>
        </g>
        <path id="Path_11945" data-name="Path 11945" d="M201,177.71a19.2,19.2,0,0,1-4.41.26,19.13,19.13,0,0,1-4.41-.26,19.129,19.129,0,0,1,4.41-.26,19.2,19.2,0,0,1,4.41.26Z" fill="#fff"/>
        <path id="Path_11946" data-name="Path 11946" d="M199.42,172.52s-.06-.25-.19-.68a2.87,2.87,0,0,0-1.06-1.46,2.71,2.71,0,0,0-2.53-.34,2.66,2.66,0,1,0,2.53,4.62,2.83,2.83,0,0,0,1.06-1.46c.13-.42.14-.68.19-.68a1.39,1.39,0,0,1,0,.73,2.85,2.85,0,0,1-1,1.71,3.05,3.05,0,0,1-2.92.49,3.11,3.11,0,0,1,0-5.86,3,3,0,0,1,2.92.5,2.8,2.8,0,0,1,1,1.7,1.39,1.39,0,0,1,0,.73Z" fill="#fff"/>
        <path id="Path_11947" data-name="Path 11947" d="M185,138.71a1.09,1.09,0,0,0,.61-.65,1.48,1.48,0,0,0,0-1,5.32,5.32,0,0,0-.84-1.21,4.3,4.3,0,0,1,.57-6c.59-.55,1.27-1.09,1.35-1.83a2.74,2.74,0,0,0-1-2,7.71,7.71,0,0,1-1.45-1.91,5,5,0,0,1-.14-4,4.65,4.65,0,0,1,1.7-2.11,1.94,1.94,0,0,1,.89-.43,9.425,9.425,0,0,0-.77.59,5,5,0,0,0-1.48,2.08,4.67,4.67,0,0,0,.23,3.67,8,8,0,0,0,1.4,1.78,5.92,5.92,0,0,1,.78,1,2.2,2.2,0,0,1,.32,1.37,2.41,2.41,0,0,1-.61,1.27,12.261,12.261,0,0,1-.92.87,4,4,0,0,0-.62,5.37,5.271,5.271,0,0,1,.82,1.33,1.65,1.65,0,0,1,0,1.21,1,1,0,0,1-.54.54C185.08,138.74,185,138.72,185,138.71Z" fill="#263238"/>
        <path id="Path_11948" data-name="Path 11948" d="M188.83,138.71a1.09,1.09,0,0,0,.61-.65,1.48,1.48,0,0,0,0-1,5.32,5.32,0,0,0-.84-1.21,4.3,4.3,0,0,1,.57-6c.59-.55,1.27-1.09,1.35-1.83a2.74,2.74,0,0,0-1-2,7.44,7.44,0,0,1-1.44-1.91,4.91,4.91,0,0,1-.15-4,4.78,4.78,0,0,1,1.7-2.11,1.94,1.94,0,0,1,.9-.43,8.362,8.362,0,0,0-.78.59,4.94,4.94,0,0,0-1.47,2.08,4.63,4.63,0,0,0,.23,3.67,7.639,7.639,0,0,0,1.39,1.78,5.921,5.921,0,0,1,.78,1,2.2,2.2,0,0,1,.32,1.37,2.33,2.33,0,0,1-.61,1.27c-.3.33-.62.6-.91.87a3.85,3.85,0,0,0-1.22,1.81,3.92,3.92,0,0,0,.6,3.56,5.22,5.22,0,0,1,.81,1.33,1.6,1.6,0,0,1,0,1.21,1,1,0,0,1-.54.54C188.92,138.74,188.83,138.72,188.83,138.71Z" fill="#263238"/>
      </g>
      <g id="freepik--Character--inject-13">
        <path id="Path_11949" data-name="Path 11949" d="M74.04,436.84,67.08,482.1h7.95l13.43-45.26Z" fill="#263238"/>
        <path id="Path_11950" data-name="Path 11950" d="M246.82,436.84l6.96,45.26h-7.96L232.4,436.84Z" fill="#263238"/>
        <path id="Path_11951" data-name="Path 11951" d="M37.87,316.79c-.56,20.42-5.86,110.5,12.61,127.65H73.42c6,0,5.66-2.83,5.43-8.8L74.49,318.76a10.41,10.41,0,0,0-2.27-6.17c-3-3.72-9.07-9.47-17.38-8.91a24.61,24.61,0,0,0-12.55,4.16,11,11,0,0,0-4.42,8.95Z" fill="#455a64"/>
        <path id="Path_11952" data-name="Path 11952" d="M245.78,445.75,73.42,444.44V391.19H245.78Z" fill="#455a64"/>
        <path id="Path_11953" data-name="Path 11953" d="M245.1,391.19,72.43,392.61V360.67l173.35-3.25Z" fill="#455a64"/>
        <path id="Path_11954" data-name="Path 11954" d="M41.13,310.8s1.28-44.34,50.08-46.63,121.21,0,121.21,0,61.3-2.3,62.72,36.31l-12.18,74H73.69Z" fill="#455a64"/>
        <path id="Path_11955" data-name="Path 11955" d="M282.39,321.5c-1.29,30.56-4.11,120.2-25.37,124.25H241.21l4.89-130.94s7.33-12.78,19.54-12h.37a17.87,17.87,0,0,1,16.38,18.69Z" fill="#455a64"/>
        <path id="Path_11956" data-name="Path 11956" d="M273.68,304.71l-.58-.14-1.65-.45-1.2-.33-1.5-.23c-.54-.07-1.12-.18-1.74-.25h-2a21.53,21.53,0,0,0-9.8,2.45l-.67.33-.65.4-1.32.83a29.459,29.459,0,0,0-2.54,2,26.659,26.659,0,0,0-4.6,5.33v-.09c-.64,13.53-1.44,30.62-2.31,49.16-1,22.57-1.73,43-2.14,57.81-.19,7.39-.33,13.37-.44,17.53,0,2.05-.09,3.66-.11,4.77a8.514,8.514,0,0,1-.05,1.24.855.855,0,0,0,0,.42v-6.43c0-4.14.13-10.13.28-17.53.33-14.81,1-35.26,2-57.83.83-18.55,1.7-35.65,2.4-49.16h0a.13.13,0,0,1,0-.08,26.551,26.551,0,0,1,4.69-5.38,28.335,28.335,0,0,1,2.59-2.05l1.34-.84.66-.4.68-.33a21.64,21.64,0,0,1,9.94-2.4l2,.07c.62.07,1.2.19,1.75.27l1.5.25,1.2.36,1.64.51Z" fill="#263238"/>
        <path id="Path_11957" data-name="Path 11957" d="M73.69,392.47H86.78l35.71.09c30.15.11,71.8.44,117.79-.22h1.91l-.25.23c.17-5.46.33-10.86.49-16.17q.12-4,.24-7.92l.12-3.91c0-.64.06-1.31,0-1.92a4.05,4.05,0,0,0-.5-1.76,4.43,4.43,0,0,0-2.92-2.15,8.16,8.16,0,0,0-1.93-.11h-9.82l-15.14.1-52.35.54c-14.89.15-26.93.21-35.25.22h-9.57l9.57-.07,35.25-.37,52.34-.65,15.15-.11h9.82a8.351,8.351,0,0,1,2,.12,4.9,4.9,0,0,1,3.23,2.39,4.44,4.44,0,0,1,.56,1.94c0,.69,0,1.31,0,2,0,1.29-.07,2.6-.11,3.91q-.12,3.91-.24,7.91-.24,8-.48,16.18a.27.27,0,0,1-.25.23h-1.9c-46,.66-87.65.28-117.8.08l-35.71-.23-9.71-.07H74.51Z" fill="#263238"/>
        <g id="Group_8235" data-name="Group 8235" opacity="0.2">
          <path id="Path_11958" data-name="Path 11958" d="M72.43,392.61c39.56,8.58,58.4,7.93,95.18,8.56,33,.57,69.33-5.38,74.58-8.92Z"/>
        </g>
        <path id="Path_11959" data-name="Path 11959" d="M73.42,444.44a3.719,3.719,0,0,1,0-.44v-6.3c0-4.36.09-10.61.16-18.33.19-15.5.44-36.87.72-60.47.17-11.81.32-23.06.46-33.29a22.32,22.32,0,0,0-1-7.31,22,22,0,0,0-3.18-6.17,22.329,22.329,0,0,0-4.68-4.5A21.119,21.119,0,0,0,60.56,305a20,20,0,0,0-10.23-.41,19.64,19.64,0,0,0-7.14,3.1,16.259,16.259,0,0,0-3.53,3.45c-.68.91-.95,1.45-1,1.43a2.06,2.06,0,0,1,.2-.39,11.619,11.619,0,0,1,.7-1.1,15.46,15.46,0,0,1,3.49-3.56,19.5,19.5,0,0,1,7.2-3.21,20.16,20.16,0,0,1,10.4.34,21.571,21.571,0,0,1,5.5,2.66,23,23,0,0,1,4.8,4.57,21.13,21.13,0,0,1,4.26,13.74c-.13,10.24-.27,21.49-.42,33.3-.34,23.6-.65,45-.87,60.46-.14,7.72-.25,14-.33,18.33,0,2.15-.08,3.82-.11,5v1.3a3,3,0,0,1-.06.43Z" fill="#263238"/>
        <path id="Path_11960" data-name="Path 11960" d="M170.39,350.71a394.065,394.065,0,0,1,6.1-62.55c.56-3.15,1.3-6.54,3.74-8.6,2.1-1.78,5-2.17,7.74-2.39,19.65-1.6,39.68,7.17,57.52,16.67a10.5,10.5,0,0,1,5.43,11.07c-3,17.1-9,30-17.83,46.33a108.54,108.54,0,0,1-63.25,5.6" fill="#c53f3f"/>
        <path id="Path_11961" data-name="Path 11961" d="M135.18,196.19c-1.24-8.81-1.16-8.52-2.26-16.95-2.12-16.36-7.28-34.91-30.63-33.57,0,0-17.59,1-23,13.56-2.88,6.78-3.64,30.24-4.61,51.34a3.55,3.55,0,0,1-.2,1l-1.09,3.19a47.32,47.32,0,0,0-2.51,13L69.4,257.05a3.65,3.65,0,0,0,3.45,3.83c7.87.38,25.85-.62,29.31-1.87a52.74,52.74,0,0,0,31.16-30.8c.36-1,5.45-1.43,6.41-1.8C141.31,225.8,135.42,197.87,135.18,196.19Z" fill="#263238"/>
        <path id="Path_11962" data-name="Path 11962" d="M97.79,153.22l1.48-1.37L115,158.43a4.4,4.4,0,0,1,4.1,4.32l-.86,51.39c0,3.49,1,7.52-1.18,10.27L114.5,228c-5.14,6.6-17,4.21-20.89-3.19a5.33,5.33,0,0,1-.54-1.34,10,10,0,0,1-.22-1.15c-.41-4.14-.39-7.73-.39-7.73-.22-4.54-.28-6.41-.29-6.36S82.53,207,80.09,194.51c-1.21-6.18-.85-14.67-.37-23C80.39,160,88.5,153.08,97.79,153.22Z" fill="#ffbf9d"/>
        <path id="Path_11963" data-name="Path 11963" d="M100.26,179.88a1.6,1.6,0,0,0,1.61,1.56,1.53,1.53,0,0,0,1.6-1.5,1.61,1.61,0,0,0-1.61-1.57,1.54,1.54,0,0,0-1.6,1.51Z" fill="#263238"/>
        <path id="Path_11964" data-name="Path 11964" d="M84.14,180a1.6,1.6,0,0,0,1.61,1.56,1.53,1.53,0,0,0,1.6-1.5,1.61,1.61,0,0,0-1.61-1.57,1.54,1.54,0,0,0-1.6,1.51Z" fill="#263238"/>
        <path id="Path_11965" data-name="Path 11965" d="M81.33,174.82c.2.21,1.39-.74,3.11-.79s3,.76,3.2.54-.12-.47-.69-.85a4.37,4.37,0,0,0-2.57-.69,4.19,4.19,0,0,0-2.47.89C81.39,174.35,81.22,174.73,81.33,174.82Z" fill="#263238"/>
        <path id="Path_11966" data-name="Path 11966" d="M98.83,175.25c.23.18,1.31-.88,3-1.12s3.08.45,3.24.21-.17-.45-.78-.77a4.42,4.42,0,0,0-2.63-.43,4.29,4.29,0,0,0-2.36,1.15C98.85,174.77,98.72,175.17,98.83,175.25Z" fill="#263238"/>
        <path id="Path_11967" data-name="Path 11967" d="M92.63,187.72a11.63,11.63,0,0,0-2.82-.4c-.45,0-.87-.1-1-.4a2.18,2.18,0,0,1,.25-1.32c.37-1.08.76-2.22,1.18-3.4,1.64-4.85,2.8-8.83,2.61-8.89s-1.68,3.81-3.32,8.66l-1.13,3.42a2.54,2.54,0,0,0-.16,1.74,1.09,1.09,0,0,0,.74.61,2.69,2.69,0,0,0,.76.08,11.13,11.13,0,0,0,2.89-.1Z" fill="#263238"/>
        <path id="Path_11968" data-name="Path 11968" d="M92.17,208.2a31.94,31.94,0,0,0,16.6-5.08s-3.9,8.81-16.47,8.1Z" fill="#ff9a6c"/>
        <path id="Path_11969" data-name="Path 11969" d="M93.51,191.86a3.09,3.09,0,0,1,2.75-1.26,2.85,2.85,0,0,1,2,1,1.83,1.83,0,0,1,.21,2.06,2.11,2.11,0,0,1-2.25.65A6.55,6.55,0,0,1,94,193.05a1.83,1.83,0,0,1-.51-.49.58.58,0,0,1,0-.64" fill="#ff9a6c"/>
        <path id="Path_11970" data-name="Path 11970" d="M97.75,188.73c-.28,0-.21,1.87-1.77,3.26s-3.56,1.25-3.56,1.52c0,.11.45.34,1.3.34a4.73,4.73,0,0,0,3-1.16A4,4,0,0,0,98.06,190C98.11,189.17,97.88,188.72,97.75,188.73Z" fill="#263238"/>
        <path id="Path_11971" data-name="Path 11971" d="M97.26,166.86c.23.44,1.91,0,3.95-.05s3.74.28,4-.17c.09-.22-.25-.62-1-1a6.59,6.59,0,0,0-3-.61,6.76,6.76,0,0,0-3,.78C97.48,166.23,97.16,166.65,97.26,166.86Z" fill="#263238"/>
        <path id="Path_11972" data-name="Path 11972" d="M81.68,167.42c.32.38,1.49-.07,2.92-.14s2.65.16,2.91-.26c.12-.2-.09-.59-.63-.94a4.25,4.25,0,0,0-4.7.32C81.69,166.82,81.54,167.23,81.68,167.42Z" fill="#263238"/>
        <path id="Path_11973" data-name="Path 11973" d="M118.43,184.68s-8.87,2.62-13.57-19.26c-1.6-7.48-8.43-13.61-8.43-13.61l2.81-.81s17.36,5.16,17.65,5.38,4.27,9.07,4.27,9.07Z" fill="#263238"/>
        <path id="Path_11974" data-name="Path 11974" d="M116.27,183.83c0-.93,1-3.16,1.88-3.34,2.44-.47,6.88-.43,7.15,5.8.36,8.53-8.28,7.14-8.3,6.89S116.38,187.05,116.27,183.83Z" fill="#ffbf9d"/>
        <path id="Path_11975" data-name="Path 11975" d="M119.46,189.84a2.835,2.835,0,0,0,.41.2,1.47,1.47,0,0,0,1.11,0c.89-.37,1.59-1.83,1.56-3.37a4.9,4.9,0,0,0-.5-2.11,1.72,1.72,0,0,0-1.17-1.09.76.76,0,0,0-.86.44c-.1.25,0,.41-.09.43s-.18-.14-.13-.49a1,1,0,0,1,.31-.55,1.16,1.16,0,0,1,.81-.25,2.11,2.11,0,0,1,1.61,1.25,5,5,0,0,1,.62,2.36c0,1.72-.79,3.37-2,3.77a1.58,1.58,0,0,1-1.37-.16C119.49,190.05,119.44,189.86,119.46,189.84Z" fill="#ff9a6c"/>
        <path id="Path_11976" data-name="Path 11976" d="M112.5,180.42a11.12,11.12,0,0,1-1.27-.27,7.74,7.74,0,0,1-3-1.81,10.181,10.181,0,0,1-1.56-1.87,14.69,14.69,0,0,1-1.25-2.51,52.19,52.19,0,0,1-1.75-6.22c-.57-2.23-1.19-4.34-1.88-6.22a34.65,34.65,0,0,0-2.15-4.84,23.831,23.831,0,0,0-1.91-3c-.25-.35-.46-.59-.6-.77a2,2,0,0,0-.22-.25,1.93,1.93,0,0,0,.19.28c.12.18.33.44.56.79a28.85,28.85,0,0,1,1.84,3,36.749,36.749,0,0,1,2.1,4.84c.67,1.87,1.28,4,1.85,6.2a51.838,51.838,0,0,0,1.77,6.25,14.269,14.269,0,0,0,1.29,2.53,10.571,10.571,0,0,0,1.61,1.89,7.48,7.48,0,0,0,3.09,1.77,4.49,4.49,0,0,0,1.29.21Z" fill="#263238"/>
        <path id="Path_11977" data-name="Path 11977" d="M138.15,226.32l-19-7.17-27-5.88L70.4,216.15c-4.59.1-12.54,9.74-18.59,20.08-5.42,9.26-9.69,18.57-9.69,18.57l25.31,9.46c1.44,10.77,3.56,25,5.39,30.61,3.12,9.59,4.07,22.75,4.07,22.75L137,309.78l.85-41.29,19.77-2.58C157.63,264.46,150,230,138.15,226.32Z" fill="#e4c6a9"/>
        <path id="Path_11978" data-name="Path 11978" d="M136.63,242.87a4.7,4.7,0,0,0,.11,1c.1.66.24,1.62.39,2.8a76.129,76.129,0,0,1,.58,9.32,77.467,77.467,0,0,1-.6,9.31c-.15,1.19-.29,2.15-.39,2.81a5.209,5.209,0,0,0-.12,1,4.44,4.44,0,0,0,.28-1c.16-.66.34-1.61.53-2.8a60.311,60.311,0,0,0,0-18.71c-.19-1.18-.37-2.14-.52-2.79a4.44,4.44,0,0,0-.26-.94Z" fill="#263238"/>
        <path id="Path_11979" data-name="Path 11979" d="M156.86,266.5l-19.53,2.11.31,5.36-4.34-6.22-6.55,13.59s2.64,7.94,4.07,12.32c3.81,11.75,9.9,24.86,17,24,8.55-1,14.6-11.26,14.32-17.83C161.91,293.89,156.86,266.5,156.86,266.5Z" fill="#ffbf9d"/>
        <path id="Path_11980" data-name="Path 11980" d="M166.01,344.39l33.87,13.28L187,373.24l-28.81-5.01Z" fill="#ffbf9d"/>
        <path id="Path_11981" data-name="Path 11981" d="M77,316.92s-.89,38.63,2.65,45.35,37.78,7,37.78,7l54,2.74,6.3-25.26s-39.29-18.24-43-20.35-12.49-5.8-12.49-5.8l-13.22-17Z" fill="#263238"/>
        <path id="Path_11982" data-name="Path 11982" d="M139.38,369.69a2.619,2.619,0,0,0-.43-.15l-1.24-.36-4.62-1.27-15.53-4.13h-.06a23.464,23.464,0,0,1-2.6-.17,20.219,20.219,0,0,1-4.9-1.15,23.308,23.308,0,0,1-4.24-2,23.89,23.89,0,0,1-9-9.6c-.29-.56-.47-1-.62-1.32a2.07,2.07,0,0,0-.24-.46,2.479,2.479,0,0,0,.16.49c.12.31.28.79.55,1.37a22.661,22.661,0,0,0,2.89,4.59,24.321,24.321,0,0,0,6.08,5.27,23.17,23.17,0,0,0,4.31,2.05,22.7,22.7,0,0,0,2.42.74,24,24,0,0,0,2.56.44,24.7,24.7,0,0,0,2.66.17h0l15.57,4,4.65,1.14,1.26.29A1.53,1.53,0,0,0,139.38,369.69Z" fill="#455a64"/>
        <path id="Path_11983" data-name="Path 11983" d="M137.77,328.67l9.2-56.24s-1.22-40.48,21.51-37.58,20,38.52,20,38.52-2.94,48.83-4.55,55.88-2.42,14.89-7.06,17.71l-20.63-3.21Z" fill="#263238"/>
        <path id="Path_11984" data-name="Path 11984" d="M155.5,245.09,150,258.38l3.41,50.76s29.3,2.51,29,1.71,5.25-25.28,5.25-25.28,1.82-32.49-6.86-38.69S155.5,245.09,155.5,245.09Z" fill="#263238"/>
        <path id="Path_11985" data-name="Path 11985" d="M154.59,309.23l.38,24.24,20.47,11.23L181,311Z" fill="#ffbf9d"/>
        <path id="Path_11986" data-name="Path 11986" d="M108.98,303.59l22.35-9.21,13.37,11.98-7.42,23.89-19.61-7.32Z" fill="#263238"/>
        <path id="Path_11987" data-name="Path 11987" d="M176.44,346.73l-.27-.16-.82-.41-3.16-1.54L160.54,339l-17.31-8.24L133,325.94l-5.41-2.56-2.77-1.31-1.4-.66a10.2,10.2,0,0,0-1.44-.61,20.5,20.5,0,0,0-6.08-1.23,24.5,24.5,0,0,0-6,.37,30.36,30.36,0,0,0-10.54,4.15,33.879,33.879,0,0,0-7.75,6.73,46.691,46.691,0,0,0-5.09,7.35A67.7,67.7,0,0,0,81.39,350c-.48,1.45-.81,2.59-1,3.37l-.24.88a1.18,1.18,0,0,0-.06.3.716.716,0,0,1,.11-.29l.28-.87c.24-.77.6-1.89,1.1-3.33a70.7,70.7,0,0,1,5.22-11.78,47.828,47.828,0,0,1,5.1-7.26,33.59,33.59,0,0,1,7.69-6.63,30,30,0,0,1,10.4-4.07,23.752,23.752,0,0,1,5.91-.36,20.27,20.27,0,0,1,6,1.21,9.739,9.739,0,0,1,1.42.6l1.4.66,2.77,1.31,5.41,2.55,10.23,4.83,17.35,8.15,11.71,5.47,3.19,1.46.84.37a1.77,1.77,0,0,0,.22.16Z" fill="#455a64"/>
        <path id="Path_11988" data-name="Path 11988" d="M133.86,327a22.791,22.791,0,0,1,.25-3.68,28.771,28.771,0,0,1,3.21-8.26,51.419,51.419,0,0,0,3.84-8.11,16.884,16.884,0,0,0,.64-2.66,4,4,0,0,0,.07-1c-.08,0-.22,1.41-1,3.56a63.383,63.383,0,0,1-3.94,8,26.64,26.64,0,0,0-3.12,8.41,12.34,12.34,0,0,0-.11,2.74A4.149,4.149,0,0,0,133.86,327Z" fill="#455a64"/>
        <path id="Path_11989" data-name="Path 11989" d="M187.72,285.57l-.08.26a3.716,3.716,0,0,1-.2.78c-.17.72-.4,1.72-.71,3-.6,2.61-1.47,6.39-2.49,11.07-.51,2.34-1.06,4.9-1.59,7.67-.13.7-.27,1.39-.36,2.13a3,3,0,0,0,0,.32v-.05h-.05a4.184,4.184,0,0,1-.52.05h-1.11c-1.49,0-3-.11-4.61-.2-6.32-.38-13.25-.93-20.53-1.53l-2-.17.19.2c-1-14.11-1.84-26.78-2.48-36-.33-4.56-.6-8.25-.79-10.83-.1-1.25-.18-2.23-.24-2.93a6.008,6.008,0,0,0-.07-.76,1,1,0,0,0,0-.26,1,1,0,0,0,0,.26v.76c0,.7.1,1.69.16,2.94.16,2.58.38,6.27.66,10.84.6,9.18,1.43,21.86,2.35,36v.19h.19l2,.17c7.28.61,14.22,1.14,20.55,1.5,1.58.08,3.12.16,4.63.18h1.12a3.944,3.944,0,0,0,.58-.06.831.831,0,0,0,.21-.08.22.22,0,0,0,.08-.11.21.21,0,0,0,0-.11c0-.05-.13,0,0,0h0a2.111,2.111,0,0,1,0-.23c.08-.7.22-1.41.34-2.1.52-2.77,1.05-5.33,1.54-7.68,1-4.66,1.8-8.44,2.36-11.09l.63-3c.06-.33.12-.59.15-.79a.78.78,0,0,0,.09-.34Z" fill="#455a64"/>
        <path id="Path_11990" data-name="Path 11990" d="M160.74,241.26a3.449,3.449,0,0,0-.65.56c-.41.38-1,1-1.62,1.71a33.649,33.649,0,0,0-7.1,13.64c-.24,1-.4,1.75-.48,2.3a3.25,3.25,0,0,0-.08.86c.07,0,.31-1.19.85-3.08a38.76,38.76,0,0,1,7.05-13.53C159.94,242.19,160.8,241.31,160.74,241.26Z" fill="#455a64"/>
        <path id="Path_11991" data-name="Path 11991" d="M127.28,320.55a3.33,3.33,0,0,0-.14-.81c-.12-.51-.32-1.25-.6-2.15a44.81,44.81,0,0,0-2.8-6.83,45.531,45.531,0,0,0-3.89-6.27,17.706,17.706,0,0,0-1.39-1.74,2.82,2.82,0,0,0-.57-.59s.65,1,1.71,2.51a58.893,58.893,0,0,1,3.75,6.29,57.562,57.562,0,0,1,2.89,6.73C126.88,319.45,127.21,320.57,127.28,320.55Z" fill="#455a64"/>
        <path id="Path_11992" data-name="Path 11992" d="M90.52,317.62c-.07,0-.36.85-1,2.19a26.36,26.36,0,0,1-3,4.92,25.56,25.56,0,0,1-4,4.12c-1.14.93-1.91,1.44-1.87,1.5s.22-.08.59-.28a15.322,15.322,0,0,0,1.47-1A21.581,21.581,0,0,0,86.93,325a21.919,21.919,0,0,0,2.9-5.07,15.15,15.15,0,0,0,.57-1.67,2,2,0,0,0,.12-.64Z" fill="#455a64"/>
        <path id="Path_11993" data-name="Path 11993" d="M199.38,373.61c12.62-.64,15.8-.24,28.42-.88,3.08-.16,14.29.23,16.86-1.47,2.35-1.54,5.36-3,6-5.73,1-4.62-.25-9.85-4.5-12.74a10.2,10.2,0,0,0-5-1.7c-7.45-.59-14.26,4.85-21.71,3.23-2-.43-3.82-1.55-5.82-2a12.78,12.78,0,0,0-8.73,1.4c-2.67,1.38-3.29,1.61-3.29,1.61l-13.26-4.49L184.22,374Z" fill="#fafafa"/>
        <path id="Path_11994" data-name="Path 11994" d="M188.14,345.34l7,2.28a2.2,2.2,0,0,1,1.46,2.54L191.17,375a2.17,2.17,0,0,1-2.38,1.71l-7.08-.79a2.18,2.18,0,0,1-1.9-2.62l5.51-26.3a2.19,2.19,0,0,1,2.82-1.66Z" fill="#fafafa"/>
        <path id="Path_11995" data-name="Path 11995" d="M191,376a25.068,25.068,0,0,0,1.29-3.73c.71-2.33,1.6-5.57,2.4-9.21s1.33-7,1.62-9.38c.14-1.21.24-2.2.28-2.88a3.25,3.25,0,0,0,0-1.06,33.232,33.232,0,0,0-.7,3.88c-.4,2.39-1,5.7-1.78,9.31s-1.63,6.88-2.23,9.23A29,29,0,0,0,191,376Z" fill="#263238"/>
        <path id="Path_11996" data-name="Path 11996" d="M195.39,353.33a11.1,11.1,0,0,0-11-1.75c0,.19,2.56-.54,5.65,0S195.3,353.49,195.39,353.33Z" fill="#263238"/>
        <path id="Path_11997" data-name="Path 11997" d="M194.56,362.71a24.661,24.661,0,0,0-5.86-1.84,24.322,24.322,0,0,0-6.08-.93,45.9,45.9,0,0,0,5.94,1.51C191.85,362.21,194.51,362.88,194.56,362.71Z" fill="#263238"/>
        <path id="Path_11998" data-name="Path 11998" d="M191.38,372.44c0-.19-2.71.14-5.7-1.14s-4.69-3.37-4.82-3.24.28.64,1,1.43a11.21,11.21,0,0,0,3.55,2.37,10.93,10.93,0,0,0,4.19.84,3.73,3.73,0,0,0,1.78-.26Z" fill="#263238"/>
        <path id="Path_11999" data-name="Path 11999" d="M154.06,325.72l.53,10.48,20.92,10.04,3.48-17.5Z" fill="#fafafa"/>
        <path id="Path_12000" data-name="Path 12000" d="M182.45,322.59l-1.57,7.3a2.23,2.23,0,0,1-2.42,1.75l-25.76-2.83a2.23,2.23,0,0,1-2-2.23v-7.27a2.24,2.24,0,0,1,2.46-2.2l27.28,2.79a2.23,2.23,0,0,1,2.01,2.69Z" fill="#fafafa"/>
        <path id="Path_12001" data-name="Path 12001" d="M151.7,328.75a23,23,0,0,0,3.91.92c2.44.46,5.82,1,9.59,1.46a92.859,92.859,0,0,0,9.68.64h2.94a3.718,3.718,0,0,0,1.07-.11,31.339,31.339,0,0,0-4-.3c-2.47-.15-5.88-.4-9.63-.82s-7.13-.92-9.58-1.28a30.428,30.428,0,0,0-3.98-.51Z" fill="#263238"/>
        <path id="Path_12002" data-name="Path 12002" d="M175.13,330.78a9.53,9.53,0,0,0,1.83-5.59c.2-3.36-1.11-5.85-1.23-5.76a22.5,22.5,0,0,1,.62,5.72A27.605,27.605,0,0,1,175.13,330.78Z" fill="#263238"/>
        <path id="Path_12003" data-name="Path 12003" d="M165.53,330.94a25.07,25.07,0,0,0,1.25-6.14c.44-3.44.47-6.25.3-6.26s-.47,2.77-.9,6.18S165.36,330.9,165.53,330.94Z" fill="#263238"/>
        <path id="Path_12004" data-name="Path 12004" d="M155.34,328.75c.19,0-.42-2.74.55-5.9s2.92-5.11,2.77-5.23-.61.35-1.33,1.21a11.32,11.32,0,0,0-2.44,8.17,3.9,3.9,0,0,0,.45,1.75Z" fill="#263238"/>
        <path id="Path_12005" data-name="Path 12005" d="M107.49,248.78s10.69,1.51,11.37,2.17,14.44,16.8,14.44,16.8l-6.55,13.59-12.13-6.25a19,19,0,0,0-3.84-1.15s-12.14-1.65-13-3.09-.38-1.79.51-2,8.15.43,9.77.69a24.79,24.79,0,0,0,4.82-.1s-5.05-1.07-6.2-1.44-12.45-2.65-12.31-4.68,1.52-2.78,8.61-1A50.319,50.319,0,0,0,115,263.93l-15.69-5.11s-6.32-1.88-4.34-3.72,15.5,1.58,15.5,1.58l6,2.12-1.76-3.55s-8.5-2.33-9.6-3.15c-1.36-1-1.57-2-.58-2.87S107.49,248.78,107.49,248.78Z" fill="#ffbf9d"/>
        <path id="Path_12006" data-name="Path 12006" d="M71,231.77a6.17,6.17,0,0,1-.14,1.2c-.14.87-.32,1.95-.54,3.23-.45,2.73-1,6.51-1.59,10.69s-.93,8-1.19,10.75c-.12,1.29-.23,2.38-.31,3.26a6.491,6.491,0,0,1-.17,1.2,4.8,4.8,0,0,1,0-1.21c0-.78.06-1.9.14-3.28.17-2.77.5-6.59,1-10.78s1.2-8,1.75-10.69c.28-1.36.52-2.46.7-3.21a4.76,4.76,0,0,1,.35-1.16Z" fill="#263238"/>
        <path id="Path_12007" data-name="Path 12007" d="M141.67,232.82c0-.28-2.66-16.7-3.9-22.51l-19.56,3c-.27,2.43-.36,10.9-.3,13.75A12.63,12.63,0,0,0,120.6,235a7.68,7.68,0,0,0,7.66,2.64,10.4,10.4,0,0,0,6.41,4.3c2.6.4,5.57-.95,6.4-3.45a13.93,13.93,0,0,0,.6-5.67Z" fill="#263238"/>
        <path id="Path_12008" data-name="Path 12008" d="M113.18,235.07,110.06,265a1.88,1.88,0,0,1-2,1.68L89.54,265.2a1.87,1.87,0,0,1-1.72-2L90,231.73A1.88,1.88,0,0,1,92.18,230l19.42,3a1.87,1.87,0,0,1,1.58,2.07Z" fill="#263238"/>
        <path id="Path_12009" data-name="Path 12009" d="M97.54,245s-10.78-.27-11.57.27S69,259.5,69,259.5L73.22,274s11.65-3.74,13-4.18a19.6,19.6,0,0,1,4-.51s12.25.37,13.29-.92.66-1.7-.18-2.09-8.11-.91-9.75-.91a24.874,24.874,0,0,1-4.74-.89s5.16-.23,6.35-.41,12.72-.58,12.92-2.59-1-3-8.33-2.42a50.5,50.5,0,0,1-12-.32L104,256.27s6.54-.82,4.89-3-15.56-1-15.56-1l-6.25,1.11,2.31-3.22s8.77-.9,10-1.53c1.51-.78,1.88-1.7,1-2.73S97.54,245,97.54,245Z" fill="#ffbf9d"/>
        <path id="Path_12010" data-name="Path 12010" d="M46.26,256.35l18.08,6.75L64,265.61l5.44-6.48,5,13s-8.41,16.53-10.23,20.77C59,305.18,49.74,311.59,43.1,308.87c-8-3.26-12.58-11.7-8.93-21.06C36.34,282.24,46.26,256.35,46.26,256.35Z" fill="#ffbf9d"/>
        <path id="Path_12011" data-name="Path 12011" d="M69,259.5s.15-.15.44-.41l1.33-1.15,5.12-4.37L84,246.72l1.22-1,.64-.52a2.49,2.49,0,0,1,.85-.22c1.11-.12,2.25-.14,3.42-.16h7.42a5.69,5.69,0,0,1,1.95.28,2.53,2.53,0,0,1,.91.52,2.15,2.15,0,0,1,.58.9,1.35,1.35,0,0,1-.09,1.11,2.58,2.58,0,0,1-.75.79,3.79,3.79,0,0,1-1,.52c-.35.1-.69.18-1,.25-2.77.53-5.69.86-8.71,1.19l.14-.07-2.31,3.21-.19-.31,6.25-1.11h0c2.62-.2,5.32-.33,8.07-.32a36.822,36.822,0,0,1,4.18.22,12.829,12.829,0,0,1,2.11.39,3.5,3.5,0,0,1,1,.46,1.44,1.44,0,0,1,.65,1,1.31,1.31,0,0,1-.57,1.08,4.209,4.209,0,0,1-1,.55,12.873,12.873,0,0,1-2.11.65c-1.44.31-2.89.46-4.34.7l-8.84,1.34-4.8.72v-.42a52.7,52.7,0,0,0,11.13.37,47.514,47.514,0,0,1,5.46-.19,7.62,7.62,0,0,1,2.69.5,2,2,0,0,1,1.07,1,2.47,2.47,0,0,1,.15,1.42,1.09,1.09,0,0,1-.46.63,3.728,3.728,0,0,1-.61.34,8.576,8.576,0,0,1-1.27.42,24.774,24.774,0,0,1-2.54.5c-1.69.25-3.36.41-5,.54l-2.45.18c-.79.06-1.61.18-2.41.22-1.59.1-3.15.18-4.69.25v-.38a20.152,20.152,0,0,0,5.18.91c1.74.07,3.43.2,5.08.34.82.08,1.64.16,2.44.26.4.05.8.1,1.19.17a4.051,4.051,0,0,1,.62.16,2.74,2.74,0,0,1,.54.32.88.88,0,0,1,.35.6,1.14,1.14,0,0,1-.14.64,3.46,3.46,0,0,1-.32.52l-.18.23a.92.92,0,0,1-.26.22,7.09,7.09,0,0,1-2.23.53,74.461,74.461,0,0,1-8.27.28H90.88a13.292,13.292,0,0,0-1.79,0,12.848,12.848,0,0,0-3.26.54l-9.38,3-2.48.76-.63.19-.22.06.21-.08.63-.22,2.46-.82,9.34-3.06a21.449,21.449,0,0,1,7-.6,73.918,73.918,0,0,0,8.23-.32,6.721,6.721,0,0,0,2.11-.5.58.58,0,0,0,.17-.14l.17-.22a2.53,2.53,0,0,0,.28-.47c.17-.33.17-.64-.12-.84a2.159,2.159,0,0,0-.47-.28c-.16-.05-.35-.09-.54-.13-.38-.07-.78-.12-1.17-.17q-1.2-.13-2.43-.24c-1.64-.14-3.33-.26-5.06-.33a20.579,20.579,0,0,1-5.27-.9.187.187,0,0,1,.04-.37h0c1.54-.07,3.1-.15,4.69-.26.8,0,1.57-.16,2.4-.23l2.45-.18c1.64-.14,3.31-.29,5-.55a23.5,23.5,0,0,0,2.5-.49,8,8,0,0,0,1.2-.4c.36-.16.78-.4.83-.68a2,2,0,0,0-.12-1.15,1.61,1.61,0,0,0-.86-.76,7.34,7.34,0,0,0-2.54-.46,47.008,47.008,0,0,0-5.41.2A51.866,51.866,0,0,1,87.67,259a.2.2,0,0,1-.18-.24.21.21,0,0,1,.18-.18h0l4.8-.73,8.84-1.34c1.45-.24,2.91-.39,4.31-.69a12.261,12.261,0,0,0,2-.62,4.271,4.271,0,0,0,.89-.5.87.87,0,0,0,.41-.71c-.06-.59-.72-.94-1.37-1.11a11.707,11.707,0,0,0-2-.38,41.152,41.152,0,0,0-4.14-.22c-2.74,0-5.43.11-8,.3h0l-6.26,1.1a.19.19,0,0,1-.22-.16.2.2,0,0,1,0-.15c.81-1.11,1.6-2.22,2.32-3.21a.22.22,0,0,1,.14-.08c3-.32,5.93-.65,8.67-1.16a9.55,9.55,0,0,0,1-.24,3.25,3.25,0,0,0,.86-.46c.54-.37.95-.94.73-1.51a2,2,0,0,0-1.28-1.21,5,5,0,0,0-1.83-.26h0c-2.59-.07-5.07-.1-7.4-.07a26.979,26.979,0,0,0-3.4.14,2.119,2.119,0,0,0-.72.17l-.63.5-1.22,1L76,253.72,70.81,258l-1.36,1.11C69.15,259.38,69,259.5,69,259.5Z" fill="#ff9a6c"/>
        <path id="Path_12012" data-name="Path 12012" d="M69,259.5c.11.09-5,6.53-11.36,14.37S46,288,45.85,287.92s5-6.52,11.36-14.37S68.87,259.41,69,259.5Z" fill="#ff9a6c"/>
      </g>
    </g>
  </g>
</svg>
