<svg xmlns="http://www.w3.org/2000/svg" width="415.386" height="372.332" viewBox="0 0 415.386 372.332">
  <path id="care-about-planet-svgrepo-com" d="M199.255,361.9c-3.469.417-6.975.722-10.489.915V331.262a9,9,0,0,0-18,0v30.827c-17.887-3.883-34.774-19.278-48.3-44.319a201.66,201.66,0,0,1-17.486-45.95q23.629,3.254,47.9,4.418a9,9,0,0,0,.86-17.98,520.625,520.625,0,0,1-52.791-5.206,298.483,298.483,0,0,1-4.417-51.757,303.677,303.677,0,0,1,2.724-40.913,498.132,498.132,0,0,0,71.507,6.28v16.365a9,9,0,0,0,18,0V166.645a504.016,504.016,0,0,0,57.662-4.366,9,9,0,0,0-2.4-17.84,485.665,485.665,0,0,1-55.264,4.2V40.514c25.664,5.624,49.148,35,62.731,79.477a9,9,0,0,0,17.215-5.257c-8.247-27-20.308-49.82-34.89-66.014a161.157,161.157,0,0,1,73.949,53.654,9,9,0,0,0,14.235-11.017A178.676,178.676,0,0,0,179.981,21.529c-.143,0-.287,0-.43,0C80.528,21.647,0,102.244,0,201.295c0,99.124,80.643,179.767,179.767,179.767a182.435,182.435,0,0,0,21.633-1.291,9,9,0,1,0-2.145-17.872ZM170.767,40.5V148.66a480,480,0,0,1-68.5-6.025c4.383-21.491,11.205-41.157,20.2-57.813C135.992,59.781,152.879,44.385,170.767,40.5Zm-45.25,8.384A142.581,142.581,0,0,0,106.63,76.268c-9.867,18.268-17.319,39.757-22.06,63.146a440.767,440.767,0,0,1-48.351-12.657c9.586-18.389,38.372-48.276,38.372-48.276s10.888-7.766,23.945-15.722C107.476,57.312,117.639,51.7,125.517,48.886ZM21.366,234.21a162.135,162.135,0,0,1,7.4-90.957c.091.033.183.064.275.1a458.7,458.7,0,0,0,52.5,13.818,324.623,324.623,0,0,0,.651,92.692,478.53,478.53,0,0,1-59.873-15.391A9.337,9.337,0,0,0,21.366,234.21Zm5.745,20.642A501.6,501.6,0,0,0,85.772,268.81c4.759,21.209,11.789,40.721,20.858,57.513A142.626,142.626,0,0,0,125.517,353.7,162.586,162.586,0,0,1,27.111,254.852ZM414.35,229.284c-1.619-10.076-5.553-20.593-12.381-33.1-2.581-4.721-10.952-8.358-14.649-8.765a8.993,8.993,0,0,0-5.9,1.41c-1.222-5.169-3.7-11.464-8.064-21.5-5.591-12.849-12.988-20.915-21.987-23.975a25.609,25.609,0,0,0-12.843-.951c-.272-2.883-.492-5.585-.624-8.019a9.012,9.012,0,0,0-.4-2.455,9.024,9.024,0,0,0-5.5-5.8c-15.518-6.014-29.293-2.84-40.943,9.437-11.019,11.612-11.773,30.813-12.571,51.151-.621,15.871-7.013,41.11-12.789,59.439-2.042,6.481-6.224,9.821-8.407,10.039-.841.09-1.757-.73-2.691-2.426a46.585,46.585,0,0,1-2.111-4.474c-.743-1.79-1.458-4.178-2.214-6.707a78.182,78.182,0,0,0-5.119-13.772C239.4,217.733,233.18,210,226.146,205.167c-5.029-3.456-12.432-5.454-19.349-5.215a21.739,21.739,0,0,0-15.546,7.16c-5.663,6.154-8.735,16.241-8.219,26.974.288,6.084,3.651,17.558,5.751,22.478,4.218,9.88,7.162,17.831,10.01,25.521,6.753,18.224,12.585,33.963,25.3,52.588a76.371,76.371,0,0,0,6.576,8.037c5.393,6,11.5,12.8,12.237,29.158,0,.157-.005.315-.005.472,0,11.866,9.063,21.519,20.2,21.519h93.846a9.022,9.022,0,0,0,1.364-.1,20.165,20.165,0,0,0,17.414-13.629c3.775-10.325,7.6-21.064,11.372-31.922,3.437-9.906,7.121-20.727,11.262-33.08C411.129,277.022,418.167,254.253,414.35,229.284ZM381.3,309.4c-4.121,12.292-7.785,23.054-11.2,32.9-3.738,10.764-7.531,21.41-11.277,31.656-.461,1.268-1.294,1.846-1.872,1.846a8.926,8.926,0,0,0-1,.056H263.1c-.9,0-2.2-1.371-2.2-3.519l.005-.214q.012-.344,0-.689c-.938-23.048-10.51-33.7-16.873-40.788a62.116,62.116,0,0,1-5.073-6.127c-11.47-16.8-16.685-30.873-23.287-48.688-2.786-7.524-5.943-16.053-10.334-26.336-1.72-4.03-4.186-13.3-4.326-16.269-.278-5.765,1.123-11.362,3.484-13.928a3.8,3.8,0,0,1,2.927-1.359c.172-.006.343-.009.515-.009a15.886,15.886,0,0,1,8.015,2.072c4.542,3.118,8.868,8.714,13.226,17.1a63.883,63.883,0,0,1,3.849,10.637,87.355,87.355,0,0,0,2.84,8.462,63.437,63.437,0,0,0,2.965,6.246c4.533,8.232,11.9,12.477,20.237,11.652,10.306-1.024,19.869-10.083,23.8-22.54,2.973-9.434,12.739-41.938,13.608-64.154.632-16.1,1.286-32.758,7.642-39.457,5.186-5.465,10.15-7.528,16.248-6.506.362,4.207.852,8.766,1.359,13.5,1.759,16.378,3.947,36.762,1.167,49.26-4.788,21.537-9.041,40.32-12.6,52.075a9,9,0,1,0,17.229,5.213c3.738-12.353,8.072-31.484,12.94-53.38,2.976-13.376,1.653-31.067-.057-47.69a8.047,8.047,0,0,1,5.168-.03c3.886,1.321,7.891,6.334,11.275,14.114,8.358,19.21,8.239,20.054,6.781,30.394-.24,1.714-.571,3.626-1.01,5.841-1.214,6.113-2.3,12.052-3.349,17.795-2.43,13.3-4.726,25.86-7.946,36.588a9,9,0,0,0,17.241,5.175c3.507-11.685,5.89-24.723,8.413-38.526,1.037-5.677,2.11-11.548,3.3-17.528.506-2.553.892-4.792,1.179-6.84.16-1.135.3-2.2.43-3.221a8.956,8.956,0,0,0,2.952,1.051,15.8,15.8,0,0,1,2.144,1.064c5.318,9.978,8.378,18.22,9.592,25.772C399.746,252.866,393.177,273.942,381.3,309.4Z" transform="translate(0 -21.527)" fill="#c53f3f"/>
</svg>
