<svg id="Group_307" data-name="Group 307" xmlns="http://www.w3.org/2000/svg" width="37.515" height="37.515" viewBox="0 0 37.515 37.515">
  <g id="Path_1096" data-name="Path 1096" transform="translate(0)" fill="#fff">
    <path d="M 18.75745582580566 37.01491546630859 C 16.29249572753906 37.01491546630859 13.90152549743652 36.53226470947266 11.65098571777344 35.58035659790039 C 9.476955413818359 34.66082763671875 7.524375915527344 33.34432601928711 5.847486019134521 31.66742515563965 C 4.170585632324219 29.99053573608398 2.854085922241211 28.03795623779297 1.934555768966675 25.86392593383789 C 0.9826458096504211 23.6133861541748 0.4999958276748657 21.22241592407227 0.4999958276748657 18.75745582580566 C 0.4999958276748657 16.29249572753906 0.9826458096504211 13.90152549743652 1.934555768966675 11.65098571777344 C 2.854085922241211 9.476955413818359 4.170585632324219 7.524375915527344 5.847486019134521 5.847486019134521 C 7.524375915527344 4.170585632324219 9.476955413818359 2.854085922241211 11.65098571777344 1.934555768966675 C 13.90152549743652 0.9826458096504211 16.29249572753906 0.4999958276748657 18.75745582580566 0.4999958276748657 C 21.22241592407227 0.4999958276748657 23.6133861541748 0.9826458096504211 25.86392593383789 1.934555768966675 C 28.03795623779297 2.854085922241211 29.99053573608398 4.170585632324219 31.66742515563965 5.847486019134521 C 33.34432601928711 7.524375915527344 34.66082763671875 9.476955413818359 35.58035659790039 11.65098571777344 C 36.53226470947266 13.90152549743652 37.01491546630859 16.29249572753906 37.01491546630859 18.75745582580566 C 37.01491546630859 21.22241592407227 36.53226470947266 23.6133861541748 35.58035659790039 25.86392593383789 C 34.66082763671875 28.03795623779297 33.34432601928711 29.99053573608398 31.66742515563965 31.66742515563965 C 29.99053573608398 33.34432601928711 28.03795623779297 34.66082763671875 25.86392593383789 35.58035659790039 C 23.6133861541748 36.53226470947266 21.22241592407227 37.01491546630859 18.75745582580566 37.01491546630859 Z" stroke="none"/>
    <path d="M 18.75745582580566 0.9999961853027344 C 14.0142650604248 0.9999961853027344 9.554975509643555 2.847095489501953 6.20103645324707 6.20103645324707 C 2.847095489501953 9.554975509643555 0.9999961853027344 14.0142650604248 0.9999961853027344 18.75745582580566 C 0.9999961853027344 23.50064468383789 2.847095489501953 27.95992660522461 6.20103645324707 31.31387519836426 C 9.554975509643555 34.66781616210938 14.0142650604248 36.51491546630859 18.75745582580566 36.51491546630859 C 23.50064468383789 36.51491546630859 27.95992660522461 34.66781616210938 31.31387519836426 31.31387519836426 C 34.66781616210938 27.95992660522461 36.51491546630859 23.50064468383789 36.51491546630859 18.75745582580566 C 36.51491546630859 14.0142650604248 34.66781616210938 9.554975509643555 31.31387519836426 6.20103645324707 C 27.95992660522461 2.847095489501953 23.50064468383789 0.9999961853027344 18.75745582580566 0.9999961853027344 M 18.75745582580566 -3.814697265625e-06 C 29.11690521240234 -3.814697265625e-06 37.51491546630859 8.397994995117188 37.51491546630859 18.75745582580566 C 37.51491546630859 29.11690521240234 29.11690521240234 37.51491546630859 18.75745582580566 37.51491546630859 C 8.397994995117188 37.51491546630859 -3.814697265625e-06 29.11690521240234 -3.814697265625e-06 18.75745582580566 C -3.814697265625e-06 8.397994995117188 8.397994995117188 -3.814697265625e-06 18.75745582580566 -3.814697265625e-06 Z" stroke="none" fill="#7d7c83"/>
  </g>
  <g id="Icon_Add" data-name="Icon / Add" transform="translate(9.104 9.415)">
    <path id="Path" d="M17.343,7.932H10.764V1.089A1.374,1.374,0,0,0,9.362,0a1.365,1.365,0,0,0-1.4,1.08V7.924l-6.7.008A1.387,1.387,0,0,0,0,9.293a1.478,1.478,0,0,0,1.265,1.445l6.7-.008v6.675a1.266,1.266,0,0,0,1.4,1.28,1.263,1.263,0,0,0,1.4-1.272V10.738h6.579a1.425,1.425,0,0,0,1.343-1.445A1.343,1.343,0,0,0,17.343,7.932Z" fill="#2dc7ff"/>
  </g>
</svg>
