<svg id="Group_8237" data-name="Group 8237" xmlns="http://www.w3.org/2000/svg" width="38.059" height="37.515" viewBox="0 0 38.059 37.515">
  <g id="Path_1096" data-name="Path 1096" fill="#fff">
    <path d="M 19.0293025970459 37.01491546630859 C 16.52675247192383 37.01491546630859 14.09939289093018 36.53192520141602 11.81465244293213 35.57936477661133 C 9.608052253723145 34.65938568115234 7.6263427734375 33.34236526489258 5.924552440643311 31.66489601135254 C 4.223272800445557 29.9879150390625 2.887682676315308 28.03538513183594 1.954902648925781 25.86154556274414 C 0.9895026087760925 23.61168670654297 0.5000026226043701 21.22152519226074 0.5000026226043701 18.75745582580566 C 0.5000026226043701 16.29338645935059 0.9895026087760925 13.90322589874268 1.954902648925781 11.65336608886719 C 2.887682676315308 9.479525566101074 4.223272800445557 7.526995658874512 5.924552440643311 5.850015640258789 C 7.6263427734375 4.172545909881592 9.608052253723145 2.855525732040405 11.81465244293213 1.935545802116394 C 14.09939289093018 0.9829858541488647 16.52675247192383 0.4999958276748657 19.0293025970459 0.4999958276748657 C 21.53185272216797 0.4999958276748657 23.95921325683594 0.9829858541488647 26.24395179748535 1.935545802116394 C 28.45055198669434 2.855525732040405 30.4322624206543 4.172545909881592 32.13405227661133 5.850015640258789 C 33.83533096313477 7.526995658874512 35.17092132568359 9.479525566101074 36.10370254516602 11.65336608886719 C 37.0691032409668 13.90322589874268 37.55860137939453 16.29338645935059 37.55860137939453 18.75745582580566 C 37.55860137939453 21.22152519226074 37.0691032409668 23.61168670654297 36.10370254516602 25.86154556274414 C 35.17092132568359 28.03538513183594 33.83533096313477 29.9879150390625 32.13405227661133 31.66489601135254 C 30.4322624206543 33.34236526489258 28.45055198669434 34.65938568115234 26.24395179748535 35.57936477661133 C 23.95921325683594 36.53192520141602 21.53185272216797 37.01491546630859 19.0293025970459 37.01491546630859 Z" stroke="none"/>
    <path d="M 19.0293025970459 0.9999961853027344 C 14.21079254150391 0.9999961853027344 9.681423187255859 2.848896026611328 6.275562286376953 6.206106185913086 C 2.873561859130859 9.55949592590332 1.000003814697266 14.0169849395752 1.000003814697266 18.75745582580566 C 1.000003814697266 23.49791717529297 2.873561859130859 27.95540618896484 6.275562286376953 31.30880546569824 C 9.681423187255859 34.666015625 14.21079254150391 36.51491546630859 19.0293025970459 36.51491546630859 C 23.84781265258789 36.51491546630859 28.37718200683594 34.666015625 31.78304290771484 31.30880546569824 C 35.18504333496094 27.95540618896484 37.05860137939453 23.49791717529297 37.05860137939453 18.75745582580566 C 37.05860137939453 14.0169849395752 35.18504333496094 9.55949592590332 31.78304290771484 6.206106185913086 C 28.37718200683594 2.848896026611328 23.84781265258789 0.9999961853027344 19.0293025970459 0.9999961853027344 M 19.0293025970459 -3.814697265625e-06 C 29.53889274597168 -3.814697265625e-06 38.05860137939453 8.397994995117188 38.05860137939453 18.75745582580566 C 38.05860137939453 29.11690521240234 29.53889274597168 37.51491546630859 19.0293025970459 37.51491546630859 C 8.519712448120117 37.51491546630859 3.814697265625e-06 29.11690521240234 3.814697265625e-06 18.75745582580566 C 3.814697265625e-06 8.397994995117188 8.519712448120117 -3.814697265625e-06 19.0293025970459 -3.814697265625e-06 Z" stroke="none" fill="#7d7c83"/>
  </g>
  <g id="Icon_Add" data-name="Icon / Add" transform="translate(9.235 9.415)">
    <path id="Path" d="M17.343,7.932H10.764V1.089A1.374,1.374,0,0,0,9.362,0a1.365,1.365,0,0,0-1.4,1.08V7.924l-6.7.008A1.387,1.387,0,0,0,0,9.293a1.478,1.478,0,0,0,1.265,1.445l6.7-.008v6.675a1.266,1.266,0,0,0,1.4,1.28,1.263,1.263,0,0,0,1.4-1.272V10.738h6.579a1.425,1.425,0,0,0,1.343-1.445A1.343,1.343,0,0,0,17.343,7.932Z" fill="#c53f3f"/>
  </g>
</svg>
