<svg xmlns="http://www.w3.org/2000/svg" width="418.264" height="420" viewBox="0 0 418.264 420">
  <path id="shopping-cart" d="M199.039,373.884A46.058,46.058,0,1,0,245.1,419.943a46.057,46.057,0,0,0-46.061-46.059Zm181.277,0a46.058,46.058,0,1,0,46.059,46.058,46.058,46.058,0,0,0-46.059-46.058Zm74.816-246.205H141.567l-6.8-40.047A49.869,49.869,0,0,0,85.475,46H56.868a10,10,0,0,0,0,20H85.474A29.92,29.92,0,0,1,115.05,90.979l36.21,213.315a49.871,49.871,0,0,0,49.3,41.632H413.729a10,10,0,1,0,0-20H200.556a29.92,29.92,0,0,1-29.576-24.979L167.34,279.5H376.362a59.816,59.816,0,0,0,57.131-41.666l31.161-97.1a10,10,0,0,0-9.522-13.055Z" transform="translate(-46.868 -46)" fill="#e4c6a9"/>
</svg>
