<?xml version="1.0" encoding="iso-8859-1"?>
<!-- Generator: Adobe Illustrator 19.0.0, SVG Export Plug-In . SVG Version: 6.00 Build 0)  -->
<svg version="1.1" id="Layer_1" xmlns="http://www.w3.org/2000/svg" xmlns:xlink="http://www.w3.org/1999/xlink" x="0px" y="0px"
	 viewBox="0 0 512 512" style="enable-background:new 0 0 512 512;" xml:space="preserve">
<path style="fill:#B3404A;" d="M319.303,346.545c-29.284,0-60.009-15.884-91.343-47.209l-71.949-71.927
	c-24.429-24.458-39.542-48.646-44.926-71.904c-7.086-30.597,0.545-56.547,23.328-79.329l12.43-12.407
	c7.669-7.669,17.871-11.897,28.724-11.897c6.56,0,13.117,1.619,18.964,4.679c19.121,10.113,35.273,34.8,43.205,48.619l0.14,0.244
	c4.671,7.835,2.079,17.932-5.756,22.603c-7.839,4.668-17.996,2.061-22.667-5.774l-0.367-0.631
	c-10.012-17.441-21.764-31.507-29.941-35.831c-1.064-0.555-2.355-0.879-3.581-0.879c-2.056,0-3.916,0.771-5.376,2.233l-12.43,12.407
	c-14.833,14.833-19.035,28.891-14.493,48.509c3.969,17.149,16.118,35.989,36.108,56.001l71.941,71.921
	c24.913,24.908,47.78,37.537,67.967,37.537c14.832,0,25.069-4.463,36.523-15.92l12.42-12.42c2.423-2.415,2.938-5.919,1.335-8.95
	c-5.559-10.513-26.385-25.473-39.103-33.018c-1.802-1.014-3.607-1.594-4.966-1.594c-0.21,0-0.357,0.015-0.451,0.03
	c-0.021,0.031-0.045,0.069-0.073,0.114c-0.449,0.756-0.96,1.477-1.524,2.152c-5.333,6.379-12.115,13.591-13.834,15.264
	c-8.174,7.956-19.039,9.95-29.799,5.465c-6.423-2.677-11.778-7.115-16.957-11.41l-0.505-0.418
	c-1.98-1.64-42.408-41.567-42.779-41.942c-6.44-6.46-6.425-16.918,0.036-23.358c6.458-6.441,16.918-6.423,23.358,0.036
	c2.04,2.038,36.949,36.427,40.825,40.128l0.145,0.121c1.658,1.374,3.825,3.171,5.66,4.521c2.169-2.335,5.127-5.601,7.807-8.765
	c6.25-9.538,16.402-14.974,28.093-14.974c7.16,0,14.574,2.073,21.442,5.995c0.076,0.043,0.15,0.086,0.226,0.13
	c9.317,5.515,40.508,25.102,51.597,46.069c8.417,15.897,5.526,35.099-7.191,47.777l-12.401,12.401
	C361.466,338.652,343.002,346.545,319.303,346.545z"/>
<rect x="33.854" y="388.137" style="fill:#F4B2B0;" width="444.293" height="107.352"/>
<path style="fill:#B3404A;" d="M478.146,327.617c9.12,0,16.516-7.394,16.516-16.516V16.516C494.663,7.394,487.267,0,478.146,0
	H33.854c-9.12,0-16.516,7.394-16.516,16.516v371.615v30.356v76.996c0,9.122,7.396,16.516,16.516,16.516h444.292
	c9.12,0,16.516-7.394,16.516-16.516V388.132c0-9.122-7.396-16.516-16.516-16.516H50.37V33.033h411.26v278.068
	C461.63,320.223,469.026,327.617,478.146,327.617z M461.63,404.648v74.319H50.37v-60.48v-13.839H461.63z"/>
<g>
</g>
<g>
</g>
<g>
</g>
<g>
</g>
<g>
</g>
<g>
</g>
<g>
</g>
<g>
</g>
<g>
</g>
<g>
</g>
<g>
</g>
<g>
</g>
<g>
</g>
<g>
</g>
<g>
</g>
</svg>
