<svg xmlns="http://www.w3.org/2000/svg" width="512" height="499.086" viewBox="0 0 512 499.086">
  <g id="Group_8240" data-name="Group 8240" transform="translate(0 -6.457)">
    <g id="Group_8238" data-name="Group 8238">
      <rect id="Rectangle_17545" data-name="Rectangle 17545" width="26.156" height="247.632" transform="translate(110.016 296.274) rotate(-146.734)" fill="#666"/>
      <rect id="Rectangle_17546" data-name="Rectangle 17546" width="247.632" height="26.156" transform="translate(402.01 296.277) rotate(-123.266)" fill="#666"/>
    </g>
    <path id="Path_12013" data-name="Path 12013" d="M462.08,505.543H49.92A49.919,49.919,0,0,1,0,455.623V310.253a49.92,49.92,0,0,1,49.92-49.92H462.08A49.92,49.92,0,0,1,512,310.253V455.625A49.918,49.918,0,0,1,462.08,505.543Z" fill="#c53f3f"/>
    <path id="Path_12014" data-name="Path 12014" d="M49.92,476.77a21.17,21.17,0,0,1-21.147-21.147V310.253A21.17,21.17,0,0,1,49.92,289.106H462.08a21.17,21.17,0,0,1,21.147,21.147V455.625a21.17,21.17,0,0,1-21.147,21.147H49.92Z" fill="#c53f3f"/>
    <g id="Group_8239" data-name="Group 8239">
      <path id="Path_12015" data-name="Path 12015" d="M121.857,343.483h3.751a11.085,11.085,0,0,1,11.072,11.072,9.809,9.809,0,0,0,19.618,0,30.725,30.725,0,0,0-30.69-30.69h-3.751a34.441,34.441,0,0,0,0,68.882,14.822,14.822,0,1,1,0,29.645h-3.751a11.084,11.084,0,0,1-11.072-11.071,9.809,9.809,0,0,0-19.618,0,30.725,30.725,0,0,0,30.69,30.689h3.751a34.441,34.441,0,1,0,0-68.881,14.823,14.823,0,0,1,0-29.646Z" fill="#fff"/>
      <path id="Path_12016" data-name="Path 12016" d="M330.522,408.688a9.809,9.809,0,0,0-9.809,9.809v3.9H291.068v-88.72a9.809,9.809,0,0,0-19.618,0V432.2a9.809,9.809,0,0,0,9.809,9.809h49.263a9.809,9.809,0,0,0,9.809-9.809v-13.7A9.809,9.809,0,0,0,330.522,408.688Z" fill="#fff"/>
      <path id="Path_12017" data-name="Path 12017" d="M414.776,359.9a9.809,9.809,0,0,0,9.809-9.809v-16.42a9.809,9.809,0,0,0-9.809-9.809H365.512a9.809,9.809,0,0,0-9.809,9.809V432.2a9.809,9.809,0,0,0,9.809,9.809h49.264a9.809,9.809,0,0,0,9.809-9.809V418.5a9.809,9.809,0,1,0-19.618,0v3.9H375.321V392.747H393.3a9.809,9.809,0,1,0,0-19.618H375.321V343.482h29.646v6.61A9.811,9.811,0,0,0,414.776,359.9Z" fill="#fff"/>
      <path id="Path_12018" data-name="Path 12018" d="M211.258,324.5a34.161,34.161,0,0,0-34.122,34.122v72.941a9.809,9.809,0,0,0,19.618,0V408.539h29.008v23.027a9.809,9.809,0,0,0,19.618,0V358.625A34.161,34.161,0,0,0,211.258,324.5Zm-14.5,64.416V358.625a14.5,14.5,0,1,1,29.008,0v30.294Z" fill="#fff"/>
    </g>
    <path id="Path_12019" data-name="Path 12019" d="M256,102.255a47.9,47.9,0,1,1,47.9-47.9A47.954,47.954,0,0,1,256,102.255Zm0-69.641a21.742,21.742,0,1,0,21.742,21.742A21.766,21.766,0,0,0,256,32.614Z" fill="#c53f3f"/>
  </g>
</svg>
