<svg xmlns="http://www.w3.org/2000/svg" width="200" height="154.999" viewBox="0 0 200 154.999">
  <g id="Group_8245" data-name="Group 8245" transform="translate(-796 -818.5)">
    <path id="Path_12030" data-name="Path 12030" d="M973.166,818.5H818.833A22.858,22.858,0,0,0,796,841.333V950.666A22.859,22.859,0,0,0,818.833,973.5H973.166A22.86,22.86,0,0,0,996,950.666V841.333A22.86,22.86,0,0,0,973.166,818.5ZM896,961.5H818.833A10.845,10.845,0,0,1,808,950.667V841.333A10.845,10.845,0,0,1,818.833,830.5H896Zm82.58-89.371c-.547,9.145-5.668,27.261-20.869,39.845a69.157,69.157,0,0,0,14.92,1.573v12a74.654,74.654,0,0,1-28.469-5.325c-7.689,3.3-16.969,5.325-28.125,5.325v-12a65.549,65.549,0,0,0,14.366-1.5c-8.412-7.016-13.382-16.311-13.382-26.78h12c0,8.857,5.66,16.517,14.884,21.623a43.606,43.606,0,0,0,12.164-10.351,49.707,49.707,0,0,0,9.754-20.042H916.037v-12h22.3V852.513h12V864.5h21.055a7.2,7.2,0,0,1,7.191,7.629Z" fill="#c53f3f"/>
    <g id="Group_8244" data-name="Group 8244">
      <g id="Group_8243" data-name="Group 8243">
        <path id="Path_12031" data-name="Path 12031" d="M839.035,914.262l-4.45,11.258H818.614l26.355-61.09H860.94l25.746,61.09H870.1l-4.363-11.258Zm13.44-34.386-8.9,22.6H861.2Z"/>
      </g>
    </g>
  </g>
</svg>
