<?xml version="1.0" encoding="iso-8859-1"?>
<!-- Generator: Adobe Illustrator 19.0.0, SVG Export Plug-In . SVG Version: 6.00 Build 0)  -->
<svg version="1.1" id="Layer_1" xmlns="http://www.w3.org/2000/svg" xmlns:xlink="http://www.w3.org/1999/xlink" x="0px" y="0px"
	 viewBox="0 0 302.349 302.349" style="enable-background:new 0 0 302.349 302.349;" xml:space="preserve">
<g>
	<path style="fill:#CBE5C0;" d="M100.375,57.6c2.303-7.974,1.83-11.55,1.83-33.77c0-9.008,7.302-16.32,16.32-16.32
		c9.02,0,16.33,7.31,16.33,16.32c0-9.01,7.31-16.32,16.32-16.32s16.32,7.31,16.32,16.32c0-4.51,1.83-8.59,4.78-11.54
		c10.279-10.244,27.87-2.954,27.87,11.54c0,22.278-0.467,25.816,1.83,33.77H100.375z"/>
	<path style="fill:#CBE5C0;" d="M257.335,218.82c0,58.63-47.53,76.03-106.16,76.03s-106.16-17.4-106.16-76.03
		c0-36.07,18-99.06,45.5-142.2c0.47,0.07,0.95,0.11,1.44,0.11h118.44c0.49,0,0.97-0.04,1.44-0.11
		C239.335,119.76,257.335,182.75,257.335,218.82z"/>
	<path style="fill:#F59D00;" d="M219.955,67.16c0,2.64-1.07,5.04-2.8,6.77c-1.41,1.41-3.26,2.38-5.32,2.69
		c-0.47,0.07-0.95,0.11-1.44,0.11H91.955c-0.49,0-0.97-0.04-1.44-0.11c-4.59-0.69-8.12-4.66-8.12-9.46c0-2.64,1.07-5.03,2.8-6.76
		c1.73-1.73,4.12-2.8,6.76-2.8h118.44C215.675,57.6,219.955,61.88,219.955,67.16z"/>
	<circle style="fill:#FFDA79;" cx="151.175" cy="186.936" r="55.989"/>
	<g>
		<path style="fill:#13829B;" d="M222.305,79.374c0.05-0.049,0.104-0.092,0.154-0.142c10.661-10.664,3.154-29.133-12.064-29.133
			h-2.368c-0.499-3.561-0.382-3.527-0.382-26.27c0-20.839-25.003-31.586-40.157-17.343c-9.187-8.646-23.462-8.632-32.634,0.009
			c-15.042-14.164-40.149-3.66-40.149,17.334c0,22.705,0.117,22.706-0.382,26.27h-2.368c-15.263,0-22.818,18.544-11.897,29.251
			C53.34,124.584,37.515,184.66,37.515,218.82c0,63.223,50.694,83.53,113.66,83.53c62.962,0,113.66-20.305,113.66-83.53
			C264.835,184.666,249.015,124.605,222.305,79.374z M109.705,23.829c0-4.875,3.945-8.82,8.82-8.82c4.869,0,8.83,3.957,8.83,8.82
			c0,4.142,3.358,7.5,7.5,7.5s7.5-3.358,7.5-7.5c0-4.863,3.956-8.82,8.82-8.82c4.863,0,8.82,3.957,8.82,8.82
			c0,4.142,3.357,7.5,7.5,7.5c4.143,0,7.5-3.358,7.5-7.5c0-2.356,0.918-4.571,2.573-6.228c5.547-5.527,15.076-1.631,15.076,6.228
			c0,22.505-0.087,22.683,0.274,26.27h-13.883l2.297-4.281c1.959-3.65,0.588-8.196-3.063-10.155
			c-3.648-1.959-8.196-0.586-10.154,3.063l-6.102,11.373h-21.678l-6.102-11.373c-1.958-3.65-6.506-5.02-10.155-3.063
			c-3.65,1.958-5.021,6.505-3.063,10.155l2.297,4.281H109.43C109.79,46.535,109.705,46.533,109.705,23.829z M91.955,65.099
			c12.896,0,105.86,0,118.44,0c2.689,0,2.759,4.13,0,4.13c-0.259,0-118.514,0.009-118.77-0.028
			C89.179,68.826,89.399,65.099,91.955,65.099z M151.175,287.349c-54.095,0-98.66-14.477-98.66-68.53
			c0-32.102,16.03-91.828,42.094-134.59h16.899l-8.565,17.554c-1.816,3.723-0.271,8.213,3.451,10.029
			c3.725,1.817,8.214,0.269,10.029-3.451l11.775-24.132h15.477v13.367c0,4.142,3.358,7.5,7.5,7.5c4.143,0,7.5-3.358,7.5-7.5V84.229
			h15.477l11.775,24.132c1.817,3.724,6.309,5.267,10.029,3.451c3.723-1.816,5.268-6.307,3.451-10.029l-8.566-17.554h16.9
			c26.063,42.763,42.094,102.488,42.094,134.59C249.835,272.888,205.243,287.349,151.175,287.349z"/>
		<path style="fill:#13829B;" d="M151.175,123.447c-35.008,0-63.489,28.481-63.489,63.489c0,35.008,28.481,63.489,63.489,63.489
			c35.008,0,63.489-28.481,63.489-63.489C214.664,151.928,186.183,123.447,151.175,123.447z M151.175,235.425
			c-26.737,0-48.489-21.752-48.489-48.489c0-26.737,21.752-48.489,48.489-48.489c26.737,0,48.489,21.752,48.489,48.489
			C199.664,213.673,177.912,235.425,151.175,235.425z"/>
		<path style="fill:#13829B;" d="M155.514,181.195v-13.887c2.459,0.579,4.918,1.664,7.449,3.182
			c4.717,2.829,8.975-4.029,4.051-6.798c-3.327-2.098-6.943-3.472-11.211-3.978v-1.591c0-4.176-6.292-4.053-6.292,0v1.519
			c-9.041,0.723-15.189,6.075-15.189,13.814c0,8.173,4.918,12.15,15.478,14.899v14.249c-3.978-0.723-7.305-2.387-10.704-4.846
			c-2.402-1.868-6.365-0.325-6.365,3.182c0,1.519,0.723,2.676,1.953,3.472c4.412,3.11,9.402,5.063,14.827,5.642v4.484
			c0,4.053,6.292,4.177,6.292,0v-4.339c9.186-0.868,15.406-6.148,15.406-14.104C171.209,188.355,166.507,183.944,155.514,181.195z
			 M149.8,179.676c-5.569-1.808-6.943-3.688-6.943-6.726c0-3.183,2.314-5.642,6.943-6.076V179.676z M155.514,202.893V189.73
			c5.569,1.736,7.16,3.689,7.16,6.871C162.674,200.073,160.143,202.387,155.514,202.893z"/>
	</g>
</g>
<g>
</g>
<g>
</g>
<g>
</g>
<g>
</g>
<g>
</g>
<g>
</g>
<g>
</g>
<g>
</g>
<g>
</g>
<g>
</g>
<g>
</g>
<g>
</g>
<g>
</g>
<g>
</g>
<g>
</g>
</svg>
