<svg xmlns="http://www.w3.org/2000/svg" width="437.168" height="512.001" viewBox="0 0 437.168 512.001">
  <g id="Group_8242" data-name="Group 8242" transform="translate(-37.416)">
    <path id="Path_12020" data-name="Path 12020" d="M447.43,119.782H65.665a28.259,28.259,0,0,0-28.249,28.249c0,15.606,12.642,65.253,28.248,65.253l363.736-1.23c14.991,0,45.183-23.612,45.183-8.621v-56.5A27.152,27.152,0,0,0,447.43,119.782Z" fill="#4d4d4d"/>
    <path id="Path_12021" data-name="Path 12021" d="M292.845,149.457a72.352,72.352,0,0,1-5.165,26.834H153.927A72.04,72.04,0,0,1,218.27,77.453c.836-.037,1.685-.049,2.533-.049a71.4,71.4,0,0,1,12.433,1.082c33.832,17.967,59.325,41.333,59.325,64.515v.012C292.746,145.128,292.845,147.28,292.845,149.457Z" fill="#e54728"/>
    <path id="Path_12022" data-name="Path 12022" d="M269.576,149.515a48.172,48.172,0,0,1-96.151,4.31c-.123-1.423-.189-2.853-.189-4.309a48.17,48.17,0,0,1,96.34,0Z" fill="#f95428"/>
    <path id="Path_12023" data-name="Path 12023" d="M474.584,226.688V484.859A27.151,27.151,0,0,1,447.43,512H65.665a28.242,28.242,0,0,1-28.248-28.248V148.03a28.253,28.253,0,0,0,28.248,28.261H447.429a27.15,27.15,0,0,1,27.154,27.142v23.255Z" fill="#c8a8a8"/>
    <path id="Path_12024" data-name="Path 12024" d="M447.43,480.025H127.483A42.125,42.125,0,0,1,85.358,437.9V176.291H65.665A28.253,28.253,0,0,1,37.417,148.03V483.752h0a28.19,28.19,0,0,0,1.857,10.077q.346.906.753,1.782c.252.545.515,1.082.8,1.607q.653,1.2,1.414,2.329c.453.671.938,1.318,1.446,1.946a28.852,28.852,0,0,0,2,2.235,28.1,28.1,0,0,0,2.235,2c.628.508,1.275.992,1.946,1.446q1.126.762,2.329,1.414c.525.285,1.064.547,1.607.8q.876.406,1.782.753A28.193,28.193,0,0,0,65.664,512H447.429a27.155,27.155,0,0,0,27.154-27.154V452.883A27.149,27.149,0,0,1,447.43,480.025Z" fill="#666"/>
    <g id="Group_8241" data-name="Group 8241">
      <path id="Path_12025" data-name="Path 12025" d="M377.036,72.041a72.045,72.045,0,0,1-143.8,6.445c-.184-2.128-.283-4.267-.283-6.444a72.042,72.042,0,0,1,144.083,0Z" fill="#e54728"/>
      <path id="Path_12026" data-name="Path 12026" d="M292.845,149.457a71.651,71.651,0,0,1-.689,9.949c-.836.037-1.685.049-2.533.049a72.055,72.055,0,0,1-71.758-65.6c-.184-2.128-.283-4.267-.283-6.444a71.811,71.811,0,0,1,.689-9.961c.836-.037,1.685-.049,2.533-.049a71.4,71.4,0,0,1,12.433,1.082c33.832,17.967,59.325,41.333,59.325,64.515v.012C292.746,145.128,292.845,147.28,292.845,149.457Z" fill="#e54728"/>
    </g>
    <path id="Path_12027" data-name="Path 12027" d="M353.671,72.041a48.679,48.679,0,0,1-97.163,4.353c-.124-1.438-.191-2.884-.191-4.355a48.677,48.677,0,1,1,97.354,0Z" fill="#f95428"/>
    <path id="Path_12028" data-name="Path 12028" d="M397.721,301.718a35.043,35.043,0,1,1-35.049,35.049A35.049,35.049,0,0,1,397.721,301.718Z" fill="#4d4d4d"/>
    <path id="Path_12029" data-name="Path 12029" d="M410.634,358.891a35.033,35.033,0,0,1-30.381-52.5,35.042,35.042,0,1,0,47.854,47.837A34.894,34.894,0,0,1,410.634,358.891Z" fill="#333"/>
  </g>
</svg>
